<?xml version="1.0" encoding="UTF-8" standalone="no"?>
<!DOCTYPE svg PUBLIC "-//W3C//DTD SVG 1.1//EN"
 "http://www.w3.org/Graphics/SVG/1.1/DTD/svg11.dtd">
<!-- Generated by graphviz version 2.40.1 (20161225.0304)
 -->
<!-- Title: Tree Pages: 1 -->
<svg width="417pt" height="373pt"
 viewBox="0.00 0.00 417.00 373.00" xmlns="http://www.w3.org/2000/svg" xmlns:xlink="http://www.w3.org/1999/xlink">
<g id="graph0" class="graph" transform="scale(1 1) rotate(0) translate(4 369)">
<title>Tree</title>
<polygon fill="#ffffff" stroke="transparent" points="-4,4 -4,-369 413,-369 413,4 -4,4"/>
<!-- 0 -->
<g id="node1" class="node">
<title>0</title>
<path fill="#e58139" fill-opacity="0.647059" stroke="#000000" d="M314,-365C314,-365 182,-365 182,-365 176,-365 170,-359 170,-353 170,-353 170,-309 170,-309 170,-303 176,-297 182,-297 182,-297 314,-297 314,-297 320,-297 326,-303 326,-309 326,-309 326,-353 326,-353 326,-359 320,-365 314,-365"/>
<text text-anchor="middle" x="248" y="-349.8" font-family="Helvetica,sans-Serif" font-size="14.00" fill="#000000">fractal&#45;value &lt;= 0.755</text>
<text text-anchor="middle" x="248" y="-334.8" font-family="Helvetica,sans-Serif" font-size="14.00" fill="#000000">entropy = 0.829</text>
<text text-anchor="middle" x="248" y="-319.8" font-family="Helvetica,sans-Serif" font-size="14.00" fill="#000000">samples = 100.0%</text>
<text text-anchor="middle" x="248" y="-304.8" font-family="Helvetica,sans-Serif" font-size="14.00" fill="#000000">value = [0.739, 0.261]</text>
</g>
<!-- 1 -->
<g id="node2" class="node">
<title>1</title>
<path fill="#e58139" fill-opacity="0.764706" stroke="#000000" d="M223,-261C223,-261 107,-261 107,-261 101,-261 95,-255 95,-249 95,-249 95,-205 95,-205 95,-199 101,-193 107,-193 107,-193 223,-193 223,-193 229,-193 235,-199 235,-205 235,-205 235,-249 235,-249 235,-255 229,-261 223,-261"/>
<text text-anchor="middle" x="165" y="-245.8" font-family="Helvetica,sans-Serif" font-size="14.00" fill="#000000">nline &lt;= 349.5</text>
<text text-anchor="middle" x="165" y="-230.8" font-family="Helvetica,sans-Serif" font-size="14.00" fill="#000000">entropy = 0.701</text>
<text text-anchor="middle" x="165" y="-215.8" font-family="Helvetica,sans-Serif" font-size="14.00" fill="#000000">samples = 85.2%</text>
<text text-anchor="middle" x="165" y="-200.8" font-family="Helvetica,sans-Serif" font-size="14.00" fill="#000000">value = [0.81, 0.19]</text>
</g>
<!-- 0&#45;&gt;1 -->
<g id="edge1" class="edge">
<title>0&#45;&gt;1</title>
<path fill="none" stroke="#000000" d="M220.8227,-296.9465C213.7288,-288.0578 205.9985,-278.3716 198.614,-269.1188"/>
<polygon fill="#000000" stroke="#000000" points="201.2118,-266.7628 192.2384,-261.13 195.7406,-271.1293 201.2118,-266.7628"/>
<text text-anchor="middle" x="189.4484" y="-282.2738" font-family="Helvetica,sans-Serif" font-size="14.00" fill="#000000">True</text>
</g>
<!-- 2 -->
<g id="node7" class="node">
<title>2</title>
<path fill="#399de5" fill-opacity="0.509804" stroke="#000000" d="M397,-253.5C397,-253.5 265,-253.5 265,-253.5 259,-253.5 253,-247.5 253,-241.5 253,-241.5 253,-212.5 253,-212.5 253,-206.5 259,-200.5 265,-200.5 265,-200.5 397,-200.5 397,-200.5 403,-200.5 409,-206.5 409,-212.5 409,-212.5 409,-241.5 409,-241.5 409,-247.5 403,-253.5 397,-253.5"/>
<text text-anchor="middle" x="331" y="-238.3" font-family="Helvetica,sans-Serif" font-size="14.00" fill="#000000">entropy = 0.913</text>
<text text-anchor="middle" x="331" y="-223.3" font-family="Helvetica,sans-Serif" font-size="14.00" fill="#000000">samples = 14.8%</text>
<text text-anchor="middle" x="331" y="-208.3" font-family="Helvetica,sans-Serif" font-size="14.00" fill="#000000">value = [0.328, 0.672]</text>
</g>
<!-- 0&#45;&gt;2 -->
<g id="edge6" class="edge">
<title>0&#45;&gt;2</title>
<path fill="none" stroke="#000000" d="M275.1773,-296.9465C284.2318,-285.6012 294.323,-272.9567 303.4086,-261.5724"/>
<polygon fill="#000000" stroke="#000000" points="306.3151,-263.5414 309.8173,-253.5422 300.8439,-259.175 306.3151,-263.5414"/>
<text text-anchor="middle" x="312.6073" y="-274.686" font-family="Helvetica,sans-Serif" font-size="14.00" fill="#000000">False</text>
</g>
<!-- 3 -->
<g id="node3" class="node">
<title>3</title>
<path fill="#e58139" fill-opacity="0.913725" stroke="#000000" d="M144,-149.5C144,-149.5 12,-149.5 12,-149.5 6,-149.5 0,-143.5 0,-137.5 0,-137.5 0,-108.5 0,-108.5 0,-102.5 6,-96.5 12,-96.5 12,-96.5 144,-96.5 144,-96.5 150,-96.5 156,-102.5 156,-108.5 156,-108.5 156,-137.5 156,-137.5 156,-143.5 150,-149.5 144,-149.5"/>
<text text-anchor="middle" x="78" y="-134.3" font-family="Helvetica,sans-Serif" font-size="14.00" fill="#000000">entropy = 0.406</text>
<text text-anchor="middle" x="78" y="-119.3" font-family="Helvetica,sans-Serif" font-size="14.00" fill="#000000">samples = 36.7%</text>
<text text-anchor="middle" x="78" y="-104.3" font-family="Helvetica,sans-Serif" font-size="14.00" fill="#000000">value = [0.919, 0.081]</text>
</g>
<!-- 1&#45;&gt;3 -->
<g id="edge2" class="edge">
<title>1&#45;&gt;3</title>
<path fill="none" stroke="#000000" d="M136.5129,-192.9465C126.93,-181.491 116.239,-168.711 106.6441,-157.2412"/>
<polygon fill="#000000" stroke="#000000" points="109.3045,-154.9666 100.2035,-149.5422 103.9354,-159.458 109.3045,-154.9666"/>
</g>
<!-- 4 -->
<g id="node4" class="node">
<title>4</title>
<path fill="#e58139" fill-opacity="0.627451" stroke="#000000" d="M318,-157C318,-157 186,-157 186,-157 180,-157 174,-151 174,-145 174,-145 174,-101 174,-101 174,-95 180,-89 186,-89 186,-89 318,-89 318,-89 324,-89 330,-95 330,-101 330,-101 330,-145 330,-145 330,-151 324,-157 318,-157"/>
<text text-anchor="middle" x="252" y="-141.8" font-family="Helvetica,sans-Serif" font-size="14.00" fill="#000000">fractal&#45;value &lt;= 0.03</text>
<text text-anchor="middle" x="252" y="-126.8" font-family="Helvetica,sans-Serif" font-size="14.00" fill="#000000">entropy = 0.845</text>
<text text-anchor="middle" x="252" y="-111.8" font-family="Helvetica,sans-Serif" font-size="14.00" fill="#000000">samples = 48.5%</text>
<text text-anchor="middle" x="252" y="-96.8" font-family="Helvetica,sans-Serif" font-size="14.00" fill="#000000">value = [0.728, 0.272]</text>
</g>
<!-- 1&#45;&gt;4 -->
<g id="edge3" class="edge">
<title>1&#45;&gt;4</title>
<path fill="none" stroke="#000000" d="M193.4871,-192.9465C200.9979,-183.968 209.1895,-174.1758 217.0005,-164.8385"/>
<polygon fill="#000000" stroke="#000000" points="219.7171,-167.0459 223.4489,-157.13 214.348,-162.5544 219.7171,-167.0459"/>
</g>
<!-- 5 -->
<g id="node5" class="node">
<title>5</title>
<path fill="#e58139" fill-opacity="0.843137" stroke="#000000" d="M235,-53C235,-53 103,-53 103,-53 97,-53 91,-47 91,-41 91,-41 91,-12 91,-12 91,-6 97,0 103,0 103,0 235,0 235,0 241,0 247,-6 247,-12 247,-12 247,-41 247,-41 247,-47 241,-53 235,-53"/>
<text text-anchor="middle" x="169" y="-37.8" font-family="Helvetica,sans-Serif" font-size="14.00" fill="#000000">entropy = 0.572</text>
<text text-anchor="middle" x="169" y="-22.8" font-family="Helvetica,sans-Serif" font-size="14.00" fill="#000000">samples = 14.3%</text>
<text text-anchor="middle" x="169" y="-7.8" font-family="Helvetica,sans-Serif" font-size="14.00" fill="#000000">value = [0.865, 0.135]</text>
</g>
<!-- 4&#45;&gt;5 -->
<g id="edge4" class="edge">
<title>4&#45;&gt;5</title>
<path fill="none" stroke="#000000" d="M222.7373,-88.9777C214.9401,-79.9123 206.51,-70.111 198.6901,-61.0192"/>
<polygon fill="#000000" stroke="#000000" points="201.1809,-58.5477 192.0065,-53.2485 195.8738,-63.1123 201.1809,-58.5477"/>
</g>
<!-- 6 -->
<g id="node6" class="node">
<title>6</title>
<path fill="#e58139" fill-opacity="0.505882" stroke="#000000" d="M393,-53C393,-53 277,-53 277,-53 271,-53 265,-47 265,-41 265,-41 265,-12 265,-12 265,-6 271,0 277,0 277,0 393,0 393,0 399,0 405,-6 405,-12 405,-12 405,-41 405,-41 405,-47 399,-53 393,-53"/>
<text text-anchor="middle" x="335" y="-37.8" font-family="Helvetica,sans-Serif" font-size="14.00" fill="#000000">entropy = 0.915</text>
<text text-anchor="middle" x="335" y="-22.8" font-family="Helvetica,sans-Serif" font-size="14.00" fill="#000000">samples = 34.1%</text>
<text text-anchor="middle" x="335" y="-7.8" font-family="Helvetica,sans-Serif" font-size="14.00" fill="#000000">value = [0.67, 0.33]</text>
</g>
<!-- 4&#45;&gt;6 -->
<g id="edge5" class="edge">
<title>4&#45;&gt;6</title>
<path fill="none" stroke="#000000" d="M281.2627,-88.9777C289.0599,-79.9123 297.49,-70.111 305.3099,-61.0192"/>
<polygon fill="#000000" stroke="#000000" points="308.1262,-63.1123 311.9935,-53.2485 302.8191,-58.5477 308.1262,-63.1123"/>
</g>
</g>
</svg>
