<?xml version="1.0" encoding="UTF-8" standalone="no"?>
<!DOCTYPE svg PUBLIC "-//W3C//DTD SVG 1.1//EN"
 "http://www.w3.org/Graphics/SVG/1.1/DTD/svg11.dtd">
<!-- Generated by graphviz version 2.40.1 (20161225.0304)
 -->
<!-- Title: Tree Pages: 1 -->
<svg width="858pt" height="477pt"
 viewBox="0.00 0.00 858.00 477.00" xmlns="http://www.w3.org/2000/svg" xmlns:xlink="http://www.w3.org/1999/xlink">
<g id="graph0" class="graph" transform="scale(1 1) rotate(0) translate(4 473)">
<title>Tree</title>
<polygon fill="#ffffff" stroke="transparent" points="-4,4 -4,-473 854,-473 854,4 -4,4"/>
<!-- 0 -->
<g id="node1" class="node">
<title>0</title>
<path fill="#e58139" fill-opacity="0.647059" stroke="#000000" d="M589,-469C589,-469 457,-469 457,-469 451,-469 445,-463 445,-457 445,-457 445,-413 445,-413 445,-407 451,-401 457,-401 457,-401 589,-401 589,-401 595,-401 601,-407 601,-413 601,-413 601,-457 601,-457 601,-463 595,-469 589,-469"/>
<text text-anchor="middle" x="523" y="-453.8" font-family="Helvetica,sans-Serif" font-size="14.00" fill="#000000">fractal&#45;value &lt;= 0.755</text>
<text text-anchor="middle" x="523" y="-438.8" font-family="Helvetica,sans-Serif" font-size="14.00" fill="#000000">entropy = 0.829</text>
<text text-anchor="middle" x="523" y="-423.8" font-family="Helvetica,sans-Serif" font-size="14.00" fill="#000000">samples = 100.0%</text>
<text text-anchor="middle" x="523" y="-408.8" font-family="Helvetica,sans-Serif" font-size="14.00" fill="#000000">value = [0.739, 0.261]</text>
</g>
<!-- 1 -->
<g id="node2" class="node">
<title>1</title>
<path fill="#e58139" fill-opacity="0.764706" stroke="#000000" d="M498,-365C498,-365 382,-365 382,-365 376,-365 370,-359 370,-353 370,-353 370,-309 370,-309 370,-303 376,-297 382,-297 382,-297 498,-297 498,-297 504,-297 510,-303 510,-309 510,-309 510,-353 510,-353 510,-359 504,-365 498,-365"/>
<text text-anchor="middle" x="440" y="-349.8" font-family="Helvetica,sans-Serif" font-size="14.00" fill="#000000">nline &lt;= 349.5</text>
<text text-anchor="middle" x="440" y="-334.8" font-family="Helvetica,sans-Serif" font-size="14.00" fill="#000000">entropy = 0.701</text>
<text text-anchor="middle" x="440" y="-319.8" font-family="Helvetica,sans-Serif" font-size="14.00" fill="#000000">samples = 85.2%</text>
<text text-anchor="middle" x="440" y="-304.8" font-family="Helvetica,sans-Serif" font-size="14.00" fill="#000000">value = [0.81, 0.19]</text>
</g>
<!-- 0&#45;&gt;1 -->
<g id="edge1" class="edge">
<title>0&#45;&gt;1</title>
<path fill="none" stroke="#000000" d="M495.8227,-400.9465C488.7288,-392.0578 480.9985,-382.3716 473.614,-373.1188"/>
<polygon fill="#000000" stroke="#000000" points="476.2118,-370.7628 467.2384,-365.13 470.7406,-375.1293 476.2118,-370.7628"/>
<text text-anchor="middle" x="464.4484" y="-386.2738" font-family="Helvetica,sans-Serif" font-size="14.00" fill="#000000">True</text>
</g>
<!-- 2 -->
<g id="node13" class="node">
<title>2</title>
<path fill="#399de5" fill-opacity="0.509804" stroke="#000000" d="M672,-365C672,-365 540,-365 540,-365 534,-365 528,-359 528,-353 528,-353 528,-309 528,-309 528,-303 534,-297 540,-297 540,-297 672,-297 672,-297 678,-297 684,-303 684,-309 684,-309 684,-353 684,-353 684,-359 678,-365 672,-365"/>
<text text-anchor="middle" x="606" y="-349.8" font-family="Helvetica,sans-Serif" font-size="14.00" fill="#000000">soc &lt;= 108.5</text>
<text text-anchor="middle" x="606" y="-334.8" font-family="Helvetica,sans-Serif" font-size="14.00" fill="#000000">entropy = 0.913</text>
<text text-anchor="middle" x="606" y="-319.8" font-family="Helvetica,sans-Serif" font-size="14.00" fill="#000000">samples = 14.8%</text>
<text text-anchor="middle" x="606" y="-304.8" font-family="Helvetica,sans-Serif" font-size="14.00" fill="#000000">value = [0.328, 0.672]</text>
</g>
<!-- 0&#45;&gt;2 -->
<g id="edge12" class="edge">
<title>0&#45;&gt;2</title>
<path fill="none" stroke="#000000" d="M550.1773,-400.9465C557.2712,-392.0578 565.0015,-382.3716 572.386,-373.1188"/>
<polygon fill="#000000" stroke="#000000" points="575.2594,-375.1293 578.7616,-365.13 569.7882,-370.7628 575.2594,-375.1293"/>
<text text-anchor="middle" x="581.5516" y="-386.2738" font-family="Helvetica,sans-Serif" font-size="14.00" fill="#000000">False</text>
</g>
<!-- 3 -->
<g id="node3" class="node">
<title>3</title>
<path fill="#e58139" fill-opacity="0.913725" stroke="#000000" d="M332,-261C332,-261 162,-261 162,-261 156,-261 150,-255 150,-249 150,-249 150,-205 150,-205 150,-199 156,-193 162,-193 162,-193 332,-193 332,-193 338,-193 344,-199 344,-205 344,-205 344,-249 344,-249 344,-255 338,-261 332,-261"/>
<text text-anchor="middle" x="247" y="-245.8" font-family="Helvetica,sans-Serif" font-size="14.00" fill="#000000">halstead_mean &lt;= 261.682</text>
<text text-anchor="middle" x="247" y="-230.8" font-family="Helvetica,sans-Serif" font-size="14.00" fill="#000000">entropy = 0.406</text>
<text text-anchor="middle" x="247" y="-215.8" font-family="Helvetica,sans-Serif" font-size="14.00" fill="#000000">samples = 36.7%</text>
<text text-anchor="middle" x="247" y="-200.8" font-family="Helvetica,sans-Serif" font-size="14.00" fill="#000000">value = [0.919, 0.081]</text>
</g>
<!-- 1&#45;&gt;3 -->
<g id="edge2" class="edge">
<title>1&#45;&gt;3</title>
<path fill="none" stroke="#000000" d="M376.8046,-296.9465C358.393,-287.0252 338.1377,-276.1105 319.215,-265.9138"/>
<polygon fill="#000000" stroke="#000000" points="320.801,-262.7926 310.3374,-261.13 317.4803,-268.9549 320.801,-262.7926"/>
</g>
<!-- 4 -->
<g id="node6" class="node">
<title>4</title>
<path fill="#e58139" fill-opacity="0.627451" stroke="#000000" d="M506,-261C506,-261 374,-261 374,-261 368,-261 362,-255 362,-249 362,-249 362,-205 362,-205 362,-199 368,-193 374,-193 374,-193 506,-193 506,-193 512,-193 518,-199 518,-205 518,-205 518,-249 518,-249 518,-255 512,-261 506,-261"/>
<text text-anchor="middle" x="440" y="-245.8" font-family="Helvetica,sans-Serif" font-size="14.00" fill="#000000">fractal&#45;value &lt;= 0.03</text>
<text text-anchor="middle" x="440" y="-230.8" font-family="Helvetica,sans-Serif" font-size="14.00" fill="#000000">entropy = 0.845</text>
<text text-anchor="middle" x="440" y="-215.8" font-family="Helvetica,sans-Serif" font-size="14.00" fill="#000000">samples = 48.5%</text>
<text text-anchor="middle" x="440" y="-200.8" font-family="Helvetica,sans-Serif" font-size="14.00" fill="#000000">value = [0.728, 0.272]</text>
</g>
<!-- 1&#45;&gt;4 -->
<g id="edge5" class="edge">
<title>1&#45;&gt;4</title>
<path fill="none" stroke="#000000" d="M440,-296.9465C440,-288.776 440,-279.9318 440,-271.3697"/>
<polygon fill="#000000" stroke="#000000" points="443.5001,-271.13 440,-261.13 436.5001,-271.13 443.5001,-271.13"/>
</g>
<!-- 13 -->
<g id="node4" class="node">
<title>13</title>
<path fill="#e58139" fill-opacity="0.800000" stroke="#000000" d="M144,-149.5C144,-149.5 12,-149.5 12,-149.5 6,-149.5 0,-143.5 0,-137.5 0,-137.5 0,-108.5 0,-108.5 0,-102.5 6,-96.5 12,-96.5 12,-96.5 144,-96.5 144,-96.5 150,-96.5 156,-102.5 156,-108.5 156,-108.5 156,-137.5 156,-137.5 156,-143.5 150,-149.5 144,-149.5"/>
<text text-anchor="middle" x="78" y="-134.3" font-family="Helvetica,sans-Serif" font-size="14.00" fill="#000000">entropy = 0.651</text>
<text text-anchor="middle" x="78" y="-119.3" font-family="Helvetica,sans-Serif" font-size="14.00" fill="#000000">samples = 11.1%</text>
<text text-anchor="middle" x="78" y="-104.3" font-family="Helvetica,sans-Serif" font-size="14.00" fill="#000000">value = [0.833, 0.167]</text>
</g>
<!-- 3&#45;&gt;13 -->
<g id="edge3" class="edge">
<title>3&#45;&gt;13</title>
<path fill="none" stroke="#000000" d="M191.6631,-192.9465C171.7949,-180.72 149.4751,-166.9847 129.9086,-154.9437"/>
<polygon fill="#000000" stroke="#000000" points="131.482,-151.8024 121.131,-149.5422 127.8133,-157.764 131.482,-151.8024"/>
</g>
<!-- 14 -->
<g id="node5" class="node">
<title>14</title>
<path fill="#e58139" fill-opacity="0.952941" stroke="#000000" d="M318,-149.5C318,-149.5 186,-149.5 186,-149.5 180,-149.5 174,-143.5 174,-137.5 174,-137.5 174,-108.5 174,-108.5 174,-102.5 180,-96.5 186,-96.5 186,-96.5 318,-96.5 318,-96.5 324,-96.5 330,-102.5 330,-108.5 330,-108.5 330,-137.5 330,-137.5 330,-143.5 324,-149.5 318,-149.5"/>
<text text-anchor="middle" x="252" y="-134.3" font-family="Helvetica,sans-Serif" font-size="14.00" fill="#000000">entropy = 0.26</text>
<text text-anchor="middle" x="252" y="-119.3" font-family="Helvetica,sans-Serif" font-size="14.00" fill="#000000">samples = 25.6%</text>
<text text-anchor="middle" x="252" y="-104.3" font-family="Helvetica,sans-Serif" font-size="14.00" fill="#000000">value = [0.956, 0.044]</text>
</g>
<!-- 3&#45;&gt;14 -->
<g id="edge4" class="edge">
<title>3&#45;&gt;14</title>
<path fill="none" stroke="#000000" d="M248.6372,-192.9465C249.1509,-182.2621 249.7199,-170.4254 250.2416,-159.5742"/>
<polygon fill="#000000" stroke="#000000" points="253.7396,-159.6987 250.7239,-149.5422 246.7477,-159.3625 253.7396,-159.6987"/>
</g>
<!-- 5 -->
<g id="node7" class="node">
<title>5</title>
<path fill="#e58139" fill-opacity="0.843137" stroke="#000000" d="M501,-157C501,-157 369,-157 369,-157 363,-157 357,-151 357,-145 357,-145 357,-101 357,-101 357,-95 363,-89 369,-89 369,-89 501,-89 501,-89 507,-89 513,-95 513,-101 513,-101 513,-145 513,-145 513,-151 507,-157 501,-157"/>
<text text-anchor="middle" x="435" y="-141.8" font-family="Helvetica,sans-Serif" font-size="14.00" fill="#000000">indent_lines &lt;= 344.5</text>
<text text-anchor="middle" x="435" y="-126.8" font-family="Helvetica,sans-Serif" font-size="14.00" fill="#000000">entropy = 0.572</text>
<text text-anchor="middle" x="435" y="-111.8" font-family="Helvetica,sans-Serif" font-size="14.00" fill="#000000">samples = 14.3%</text>
<text text-anchor="middle" x="435" y="-96.8" font-family="Helvetica,sans-Serif" font-size="14.00" fill="#000000">value = [0.865, 0.135]</text>
</g>
<!-- 4&#45;&gt;5 -->
<g id="edge6" class="edge">
<title>4&#45;&gt;5</title>
<path fill="none" stroke="#000000" d="M438.3628,-192.9465C437.97,-184.776 437.5448,-175.9318 437.1332,-167.3697"/>
<polygon fill="#000000" stroke="#000000" points="440.6171,-166.9504 436.6409,-157.13 433.6252,-167.2866 440.6171,-166.9504"/>
</g>
<!-- 6 -->
<g id="node10" class="node">
<title>6</title>
<path fill="#e58139" fill-opacity="0.505882" stroke="#000000" d="M659,-157C659,-157 543,-157 543,-157 537,-157 531,-151 531,-145 531,-145 531,-101 531,-101 531,-95 537,-89 543,-89 543,-89 659,-89 659,-89 665,-89 671,-95 671,-101 671,-101 671,-145 671,-145 671,-151 665,-157 659,-157"/>
<text text-anchor="middle" x="601" y="-141.8" font-family="Helvetica,sans-Serif" font-size="14.00" fill="#000000">entity_refs.c &lt;= 0.5</text>
<text text-anchor="middle" x="601" y="-126.8" font-family="Helvetica,sans-Serif" font-size="14.00" fill="#000000">entropy = 0.915</text>
<text text-anchor="middle" x="601" y="-111.8" font-family="Helvetica,sans-Serif" font-size="14.00" fill="#000000">samples = 34.1%</text>
<text text-anchor="middle" x="601" y="-96.8" font-family="Helvetica,sans-Serif" font-size="14.00" fill="#000000">value = [0.67, 0.33]</text>
</g>
<!-- 4&#45;&gt;6 -->
<g id="edge9" class="edge">
<title>4&#45;&gt;6</title>
<path fill="none" stroke="#000000" d="M492.7174,-192.9465C507.7288,-183.2497 524.2094,-172.6039 539.6854,-162.6069"/>
<polygon fill="#000000" stroke="#000000" points="541.6633,-165.496 548.1641,-157.13 537.8651,-159.6161 541.6633,-165.496"/>
</g>
<!-- 7 -->
<g id="node8" class="node">
<title>7</title>
<path fill="#e58139" fill-opacity="0.266667" stroke="#000000" d="M327,-53C327,-53 195,-53 195,-53 189,-53 183,-47 183,-41 183,-41 183,-12 183,-12 183,-6 189,0 195,0 195,0 327,0 327,0 333,0 339,-6 339,-12 339,-12 339,-41 339,-41 339,-47 333,-53 327,-53"/>
<text text-anchor="middle" x="261" y="-37.8" font-family="Helvetica,sans-Serif" font-size="14.00" fill="#000000">entropy = 0.983</text>
<text text-anchor="middle" x="261" y="-22.8" font-family="Helvetica,sans-Serif" font-size="14.00" fill="#000000">samples = 3.0%</text>
<text text-anchor="middle" x="261" y="-7.8" font-family="Helvetica,sans-Serif" font-size="14.00" fill="#000000">value = [0.576, 0.424]</text>
</g>
<!-- 5&#45;&gt;7 -->
<g id="edge7" class="edge">
<title>5&#45;&gt;7</title>
<path fill="none" stroke="#000000" d="M373.6541,-88.9777C355.5738,-78.9504 335.87,-68.0228 318.0699,-58.1508"/>
<polygon fill="#000000" stroke="#000000" points="319.3964,-54.8843 308.9537,-53.095 316.0013,-61.0059 319.3964,-54.8843"/>
</g>
<!-- 8 -->
<g id="node9" class="node">
<title>8</title>
<path fill="#e58139" fill-opacity="0.937255" stroke="#000000" d="M501,-53C501,-53 369,-53 369,-53 363,-53 357,-47 357,-41 357,-41 357,-12 357,-12 357,-6 363,0 369,0 369,0 501,0 501,0 507,0 513,-6 513,-12 513,-12 513,-41 513,-41 513,-47 507,-53 501,-53"/>
<text text-anchor="middle" x="435" y="-37.8" font-family="Helvetica,sans-Serif" font-size="14.00" fill="#000000">entropy = 0.321</text>
<text text-anchor="middle" x="435" y="-22.8" font-family="Helvetica,sans-Serif" font-size="14.00" fill="#000000">samples = 11.3%</text>
<text text-anchor="middle" x="435" y="-7.8" font-family="Helvetica,sans-Serif" font-size="14.00" fill="#000000">value = [0.942, 0.058]</text>
</g>
<!-- 5&#45;&gt;8 -->
<g id="edge8" class="edge">
<title>5&#45;&gt;8</title>
<path fill="none" stroke="#000000" d="M435,-88.9777C435,-80.7364 435,-71.887 435,-63.5153"/>
<polygon fill="#000000" stroke="#000000" points="438.5001,-63.2484 435,-53.2485 431.5001,-63.2485 438.5001,-63.2484"/>
</g>
<!-- 9 -->
<g id="node11" class="node">
<title>9</title>
<path fill="#e58139" fill-opacity="0.552941" stroke="#000000" d="M659,-53C659,-53 543,-53 543,-53 537,-53 531,-47 531,-41 531,-41 531,-12 531,-12 531,-6 537,0 543,0 543,0 659,0 659,0 665,0 671,-6 671,-12 671,-12 671,-41 671,-41 671,-47 665,-53 659,-53"/>
<text text-anchor="middle" x="601" y="-37.8" font-family="Helvetica,sans-Serif" font-size="14.00" fill="#000000">entropy = 0.893</text>
<text text-anchor="middle" x="601" y="-22.8" font-family="Helvetica,sans-Serif" font-size="14.00" fill="#000000">samples = 33.0%</text>
<text text-anchor="middle" x="601" y="-7.8" font-family="Helvetica,sans-Serif" font-size="14.00" fill="#000000">value = [0.69, 0.31]</text>
</g>
<!-- 6&#45;&gt;9 -->
<g id="edge10" class="edge">
<title>6&#45;&gt;9</title>
<path fill="none" stroke="#000000" d="M601,-88.9777C601,-80.7364 601,-71.887 601,-63.5153"/>
<polygon fill="#000000" stroke="#000000" points="604.5001,-63.2484 601,-53.2485 597.5001,-63.2485 604.5001,-63.2484"/>
</g>
<!-- 10 -->
<g id="node12" class="node">
<title>10</title>
<path fill="#399de5" fill-opacity="0.913725" stroke="#000000" d="M833,-53C833,-53 701,-53 701,-53 695,-53 689,-47 689,-41 689,-41 689,-12 689,-12 689,-6 695,0 701,0 701,0 833,0 833,0 839,0 845,-6 845,-12 845,-12 845,-41 845,-41 845,-47 839,-53 833,-53"/>
<text text-anchor="middle" x="767" y="-37.8" font-family="Helvetica,sans-Serif" font-size="14.00" fill="#000000">entropy = 0.4</text>
<text text-anchor="middle" x="767" y="-22.8" font-family="Helvetica,sans-Serif" font-size="14.00" fill="#000000">samples = 1.1%</text>
<text text-anchor="middle" x="767" y="-7.8" font-family="Helvetica,sans-Serif" font-size="14.00" fill="#000000">value = [0.079, 0.921]</text>
</g>
<!-- 6&#45;&gt;10 -->
<g id="edge11" class="edge">
<title>6&#45;&gt;10</title>
<path fill="none" stroke="#000000" d="M659.5254,-88.9777C676.7744,-78.9504 695.5723,-68.0228 712.554,-58.1508"/>
<polygon fill="#000000" stroke="#000000" points="714.3647,-61.1467 721.251,-53.095 710.8467,-55.095 714.3647,-61.1467"/>
</g>
<!-- 11 -->
<g id="node14" class="node">
<title>11</title>
<path fill="#399de5" fill-opacity="0.274510" stroke="#000000" d="M664,-253.5C664,-253.5 548,-253.5 548,-253.5 542,-253.5 536,-247.5 536,-241.5 536,-241.5 536,-212.5 536,-212.5 536,-206.5 542,-200.5 548,-200.5 548,-200.5 664,-200.5 664,-200.5 670,-200.5 676,-206.5 676,-212.5 676,-212.5 676,-241.5 676,-241.5 676,-247.5 670,-253.5 664,-253.5"/>
<text text-anchor="middle" x="606" y="-238.3" font-family="Helvetica,sans-Serif" font-size="14.00" fill="#000000">entropy = 0.982</text>
<text text-anchor="middle" x="606" y="-223.3" font-family="Helvetica,sans-Serif" font-size="14.00" fill="#000000">samples = 10.6%</text>
<text text-anchor="middle" x="606" y="-208.3" font-family="Helvetica,sans-Serif" font-size="14.00" fill="#000000">value = [0.42, 0.58]</text>
</g>
<!-- 2&#45;&gt;11 -->
<g id="edge13" class="edge">
<title>2&#45;&gt;11</title>
<path fill="none" stroke="#000000" d="M606,-296.9465C606,-286.2621 606,-274.4254 606,-263.5742"/>
<polygon fill="#000000" stroke="#000000" points="609.5001,-263.5421 606,-253.5422 602.5001,-263.5422 609.5001,-263.5421"/>
</g>
<!-- 12 -->
<g id="node15" class="node">
<title>12</title>
<path fill="#399de5" fill-opacity="0.898039" stroke="#000000" d="M838,-253.5C838,-253.5 706,-253.5 706,-253.5 700,-253.5 694,-247.5 694,-241.5 694,-241.5 694,-212.5 694,-212.5 694,-206.5 700,-200.5 706,-200.5 706,-200.5 838,-200.5 838,-200.5 844,-200.5 850,-206.5 850,-212.5 850,-212.5 850,-241.5 850,-241.5 850,-247.5 844,-253.5 838,-253.5"/>
<text text-anchor="middle" x="772" y="-238.3" font-family="Helvetica,sans-Serif" font-size="14.00" fill="#000000">entropy = 0.448</text>
<text text-anchor="middle" x="772" y="-223.3" font-family="Helvetica,sans-Serif" font-size="14.00" fill="#000000">samples = 4.2%</text>
<text text-anchor="middle" x="772" y="-208.3" font-family="Helvetica,sans-Serif" font-size="14.00" fill="#000000">value = [0.094, 0.906]</text>
</g>
<!-- 2&#45;&gt;12 -->
<g id="edge14" class="edge">
<title>2&#45;&gt;12</title>
<path fill="none" stroke="#000000" d="M660.3546,-296.9465C679.8701,-284.72 701.7937,-270.9847 721.0129,-258.9437"/>
<polygon fill="#000000" stroke="#000000" points="723.0186,-261.8174 729.6346,-253.5422 719.3021,-255.8854 723.0186,-261.8174"/>
</g>
</g>
</svg>
