<?xml version="1.0" encoding="UTF-8" standalone="no"?>
<!DOCTYPE svg PUBLIC "-//W3C//DTD SVG 1.1//EN"
 "http://www.w3.org/Graphics/SVG/1.1/DTD/svg11.dtd">
<!-- Generated by graphviz version 2.40.1 (20161225.0304)
 -->
<!-- Title: Tree Pages: 1 -->
<svg width="1121pt" height="477pt"
 viewBox="0.00 0.00 1121.00 477.00" xmlns="http://www.w3.org/2000/svg" xmlns:xlink="http://www.w3.org/1999/xlink">
<g id="graph0" class="graph" transform="scale(1 1) rotate(0) translate(4 473)">
<title>Tree</title>
<polygon fill="#ffffff" stroke="transparent" points="-4,4 -4,-473 1117,-473 1117,4 -4,4"/>
<!-- 0 -->
<g id="node1" class="node">
<title>0</title>
<path fill="#e58139" fill-opacity="0.792157" stroke="#000000" d="M840,-469C840,-469 708,-469 708,-469 702,-469 696,-463 696,-457 696,-457 696,-413 696,-413 696,-407 702,-401 708,-401 708,-401 840,-401 840,-401 846,-401 852,-407 852,-413 852,-413 852,-457 852,-457 852,-463 846,-469 840,-469"/>
<text text-anchor="middle" x="774" y="-453.8" font-family="Helvetica,sans-Serif" font-size="14.00" fill="#000000">fractal&#45;value &lt;= 0.025</text>
<text text-anchor="middle" x="774" y="-438.8" font-family="Helvetica,sans-Serif" font-size="14.00" fill="#000000">entropy = 0.661</text>
<text text-anchor="middle" x="774" y="-423.8" font-family="Helvetica,sans-Serif" font-size="14.00" fill="#000000">samples = 100.0%</text>
<text text-anchor="middle" x="774" y="-408.8" font-family="Helvetica,sans-Serif" font-size="14.00" fill="#000000">value = [0.829, 0.171]</text>
</g>
<!-- 1 -->
<g id="node2" class="node">
<title>1</title>
<path fill="#e58139" fill-opacity="0.890196" stroke="#000000" d="M666,-365C666,-365 534,-365 534,-365 528,-365 522,-359 522,-353 522,-353 522,-309 522,-309 522,-303 528,-297 534,-297 534,-297 666,-297 666,-297 672,-297 678,-303 678,-309 678,-309 678,-353 678,-353 678,-359 672,-365 666,-365"/>
<text text-anchor="middle" x="600" y="-349.8" font-family="Helvetica,sans-Serif" font-size="14.00" fill="#000000">loc &lt;= 138.5</text>
<text text-anchor="middle" x="600" y="-334.8" font-family="Helvetica,sans-Serif" font-size="14.00" fill="#000000">entropy = 0.462</text>
<text text-anchor="middle" x="600" y="-319.8" font-family="Helvetica,sans-Serif" font-size="14.00" fill="#000000">samples = 78.3%</text>
<text text-anchor="middle" x="600" y="-304.8" font-family="Helvetica,sans-Serif" font-size="14.00" fill="#000000">value = [0.902, 0.098]</text>
</g>
<!-- 0&#45;&gt;1 -->
<g id="edge1" class="edge">
<title>0&#45;&gt;1</title>
<path fill="none" stroke="#000000" d="M717.0259,-400.9465C700.6522,-391.1599 682.6611,-380.4066 665.8011,-370.3294"/>
<polygon fill="#000000" stroke="#000000" points="667.4814,-367.2562 657.1021,-365.13 663.8901,-373.2648 667.4814,-367.2562"/>
<text text-anchor="middle" x="663.2065" y="-385.6733" font-family="Helvetica,sans-Serif" font-size="14.00" fill="#000000">True</text>
</g>
<!-- 2 -->
<g id="node11" class="node">
<title>2</title>
<path fill="#e58139" fill-opacity="0.219608" stroke="#000000" d="M927,-365C927,-365 795,-365 795,-365 789,-365 783,-359 783,-353 783,-353 783,-309 783,-309 783,-303 789,-297 795,-297 795,-297 927,-297 927,-297 933,-297 939,-303 939,-309 939,-309 939,-353 939,-353 939,-359 933,-365 927,-365"/>
<text text-anchor="middle" x="861" y="-349.8" font-family="Helvetica,sans-Serif" font-size="14.00" fill="#000000">variablesQty &lt;= 30.5</text>
<text text-anchor="middle" x="861" y="-334.8" font-family="Helvetica,sans-Serif" font-size="14.00" fill="#000000">entropy = 0.989</text>
<text text-anchor="middle" x="861" y="-319.8" font-family="Helvetica,sans-Serif" font-size="14.00" fill="#000000">samples = 21.7%</text>
<text text-anchor="middle" x="861" y="-304.8" font-family="Helvetica,sans-Serif" font-size="14.00" fill="#000000">value = [0.562, 0.438]</text>
</g>
<!-- 0&#45;&gt;2 -->
<g id="edge10" class="edge">
<title>0&#45;&gt;2</title>
<path fill="none" stroke="#000000" d="M802.4871,-400.9465C809.9979,-391.968 818.1895,-382.1758 826.0005,-372.8385"/>
<polygon fill="#000000" stroke="#000000" points="828.7171,-375.0459 832.4489,-365.13 823.348,-370.5544 828.7171,-375.0459"/>
<text text-anchor="middle" x="834.6653" y="-386.3316" font-family="Helvetica,sans-Serif" font-size="14.00" fill="#000000">False</text>
</g>
<!-- 3 -->
<g id="node3" class="node">
<title>3</title>
<path fill="#e58139" fill-opacity="0.933333" stroke="#000000" d="M405,-261C405,-261 273,-261 273,-261 267,-261 261,-255 261,-249 261,-249 261,-205 261,-205 261,-199 267,-193 273,-193 273,-193 405,-193 405,-193 411,-193 417,-199 417,-205 417,-205 417,-249 417,-249 417,-255 411,-261 405,-261"/>
<text text-anchor="middle" x="339" y="-245.8" font-family="Helvetica,sans-Serif" font-size="14.00" fill="#000000">time &lt;= 52.5</text>
<text text-anchor="middle" x="339" y="-230.8" font-family="Helvetica,sans-Serif" font-size="14.00" fill="#000000">entropy = 0.332</text>
<text text-anchor="middle" x="339" y="-215.8" font-family="Helvetica,sans-Serif" font-size="14.00" fill="#000000">samples = 66.4%</text>
<text text-anchor="middle" x="339" y="-200.8" font-family="Helvetica,sans-Serif" font-size="14.00" fill="#000000">value = [0.939, 0.061]</text>
</g>
<!-- 1&#45;&gt;3 -->
<g id="edge2" class="edge">
<title>1&#45;&gt;3</title>
<path fill="none" stroke="#000000" d="M521.6914,-299.7966C491.7543,-287.8676 457.4299,-274.1905 426.6747,-261.9355"/>
<polygon fill="#000000" stroke="#000000" points="427.8386,-258.6317 417.2533,-258.1814 425.2474,-265.1345 427.8386,-258.6317"/>
</g>
<!-- 4 -->
<g id="node8" class="node">
<title>4</title>
<path fill="#e58139" fill-opacity="0.564706" stroke="#000000" d="M666,-261C666,-261 534,-261 534,-261 528,-261 522,-255 522,-249 522,-249 522,-205 522,-205 522,-199 528,-193 534,-193 534,-193 666,-193 666,-193 672,-193 678,-199 678,-205 678,-205 678,-249 678,-249 678,-255 672,-261 666,-261"/>
<text text-anchor="middle" x="600" y="-245.8" font-family="Helvetica,sans-Serif" font-size="14.00" fill="#000000">rfc &lt;= 68.5</text>
<text text-anchor="middle" x="600" y="-230.8" font-family="Helvetica,sans-Serif" font-size="14.00" fill="#000000">entropy = 0.885</text>
<text text-anchor="middle" x="600" y="-215.8" font-family="Helvetica,sans-Serif" font-size="14.00" fill="#000000">samples = 11.9%</text>
<text text-anchor="middle" x="600" y="-200.8" font-family="Helvetica,sans-Serif" font-size="14.00" fill="#000000">value = [0.697, 0.303]</text>
</g>
<!-- 1&#45;&gt;4 -->
<g id="edge7" class="edge">
<title>1&#45;&gt;4</title>
<path fill="none" stroke="#000000" d="M600,-296.9465C600,-288.776 600,-279.9318 600,-271.3697"/>
<polygon fill="#000000" stroke="#000000" points="603.5001,-271.13 600,-261.13 596.5001,-271.13 603.5001,-271.13"/>
</g>
<!-- 7 -->
<g id="node4" class="node">
<title>7</title>
<path fill="#e58139" fill-opacity="0.898039" stroke="#000000" d="M231,-157C231,-157 99,-157 99,-157 93,-157 87,-151 87,-145 87,-145 87,-101 87,-101 87,-95 93,-89 99,-89 99,-89 231,-89 231,-89 237,-89 243,-95 243,-101 243,-101 243,-145 243,-145 243,-151 237,-157 231,-157"/>
<text text-anchor="middle" x="165" y="-141.8" font-family="Helvetica,sans-Serif" font-size="14.00" fill="#000000">time &lt;= 41.5</text>
<text text-anchor="middle" x="165" y="-126.8" font-family="Helvetica,sans-Serif" font-size="14.00" fill="#000000">entropy = 0.44</text>
<text text-anchor="middle" x="165" y="-111.8" font-family="Helvetica,sans-Serif" font-size="14.00" fill="#000000">samples = 41.6%</text>
<text text-anchor="middle" x="165" y="-96.8" font-family="Helvetica,sans-Serif" font-size="14.00" fill="#000000">value = [0.909, 0.091]</text>
</g>
<!-- 3&#45;&gt;7 -->
<g id="edge3" class="edge">
<title>3&#45;&gt;7</title>
<path fill="none" stroke="#000000" d="M282.0259,-192.9465C265.6522,-183.1599 247.6611,-172.4066 230.8011,-162.3294"/>
<polygon fill="#000000" stroke="#000000" points="232.4814,-159.2562 222.1021,-157.13 228.8901,-165.2648 232.4814,-159.2562"/>
</g>
<!-- 8 -->
<g id="node7" class="node">
<title>8</title>
<path fill="#e58139" fill-opacity="0.988235" stroke="#000000" d="M405,-149.5C405,-149.5 273,-149.5 273,-149.5 267,-149.5 261,-143.5 261,-137.5 261,-137.5 261,-108.5 261,-108.5 261,-102.5 267,-96.5 273,-96.5 273,-96.5 405,-96.5 405,-96.5 411,-96.5 417,-102.5 417,-108.5 417,-108.5 417,-137.5 417,-137.5 417,-143.5 411,-149.5 405,-149.5"/>
<text text-anchor="middle" x="339" y="-134.3" font-family="Helvetica,sans-Serif" font-size="14.00" fill="#000000">entropy = 0.087</text>
<text text-anchor="middle" x="339" y="-119.3" font-family="Helvetica,sans-Serif" font-size="14.00" fill="#000000">samples = 24.9%</text>
<text text-anchor="middle" x="339" y="-104.3" font-family="Helvetica,sans-Serif" font-size="14.00" fill="#000000">value = [0.989, 0.011]</text>
</g>
<!-- 3&#45;&gt;8 -->
<g id="edge6" class="edge">
<title>3&#45;&gt;8</title>
<path fill="none" stroke="#000000" d="M339,-192.9465C339,-182.2621 339,-170.4254 339,-159.5742"/>
<polygon fill="#000000" stroke="#000000" points="342.5001,-159.5421 339,-149.5422 335.5001,-159.5422 342.5001,-159.5421"/>
</g>
<!-- 13 -->
<g id="node5" class="node">
<title>13</title>
<path fill="#e58139" fill-opacity="0.945098" stroke="#000000" d="M144,-53C144,-53 12,-53 12,-53 6,-53 0,-47 0,-41 0,-41 0,-12 0,-12 0,-6 6,0 12,0 12,0 144,0 144,0 150,0 156,-6 156,-12 156,-12 156,-41 156,-41 156,-47 150,-53 144,-53"/>
<text text-anchor="middle" x="78" y="-37.8" font-family="Helvetica,sans-Serif" font-size="14.00" fill="#000000">entropy = 0.301</text>
<text text-anchor="middle" x="78" y="-22.8" font-family="Helvetica,sans-Serif" font-size="14.00" fill="#000000">samples = 25.1%</text>
<text text-anchor="middle" x="78" y="-7.8" font-family="Helvetica,sans-Serif" font-size="14.00" fill="#000000">value = [0.946, 0.054]</text>
</g>
<!-- 7&#45;&gt;13 -->
<g id="edge4" class="edge">
<title>7&#45;&gt;13</title>
<path fill="none" stroke="#000000" d="M134.3271,-88.9777C126.0715,-79.8207 117.1391,-69.9129 108.8728,-60.744"/>
<polygon fill="#000000" stroke="#000000" points="111.4108,-58.3321 102.1152,-53.2485 106.2117,-63.0193 111.4108,-58.3321"/>
</g>
<!-- 14 -->
<g id="node6" class="node">
<title>14</title>
<path fill="#e58139" fill-opacity="0.827451" stroke="#000000" d="M318,-53C318,-53 186,-53 186,-53 180,-53 174,-47 174,-41 174,-41 174,-12 174,-12 174,-6 180,0 186,0 186,0 318,0 318,0 324,0 330,-6 330,-12 330,-12 330,-41 330,-41 330,-47 324,-53 318,-53"/>
<text text-anchor="middle" x="252" y="-37.8" font-family="Helvetica,sans-Serif" font-size="14.00" fill="#000000">entropy = 0.606</text>
<text text-anchor="middle" x="252" y="-22.8" font-family="Helvetica,sans-Serif" font-size="14.00" fill="#000000">samples = 16.4%</text>
<text text-anchor="middle" x="252" y="-7.8" font-family="Helvetica,sans-Serif" font-size="14.00" fill="#000000">value = [0.852, 0.148]</text>
</g>
<!-- 7&#45;&gt;14 -->
<g id="edge5" class="edge">
<title>7&#45;&gt;14</title>
<path fill="none" stroke="#000000" d="M195.6729,-88.9777C203.9285,-79.8207 212.8609,-69.9129 221.1272,-60.744"/>
<polygon fill="#000000" stroke="#000000" points="223.7883,-63.0193 227.8848,-53.2485 218.5892,-58.3321 223.7883,-63.0193"/>
</g>
<!-- 11 -->
<g id="node9" class="node">
<title>11</title>
<path fill="#e58139" fill-opacity="0.741176" stroke="#000000" d="M579,-149.5C579,-149.5 447,-149.5 447,-149.5 441,-149.5 435,-143.5 435,-137.5 435,-137.5 435,-108.5 435,-108.5 435,-102.5 441,-96.5 447,-96.5 447,-96.5 579,-96.5 579,-96.5 585,-96.5 591,-102.5 591,-108.5 591,-108.5 591,-137.5 591,-137.5 591,-143.5 585,-149.5 579,-149.5"/>
<text text-anchor="middle" x="513" y="-134.3" font-family="Helvetica,sans-Serif" font-size="14.00" fill="#000000">entropy = 0.733</text>
<text text-anchor="middle" x="513" y="-119.3" font-family="Helvetica,sans-Serif" font-size="14.00" fill="#000000">samples = 8.0%</text>
<text text-anchor="middle" x="513" y="-104.3" font-family="Helvetica,sans-Serif" font-size="14.00" fill="#000000">value = [0.795, 0.205]</text>
</g>
<!-- 4&#45;&gt;11 -->
<g id="edge8" class="edge">
<title>4&#45;&gt;11</title>
<path fill="none" stroke="#000000" d="M571.5129,-192.9465C561.93,-181.491 551.239,-168.711 541.6441,-157.2412"/>
<polygon fill="#000000" stroke="#000000" points="544.3045,-154.9666 535.2035,-149.5422 538.9354,-159.458 544.3045,-154.9666"/>
</g>
<!-- 12 -->
<g id="node10" class="node">
<title>12</title>
<path fill="#399de5" fill-opacity="0.011765" stroke="#000000" d="M753,-149.5C753,-149.5 621,-149.5 621,-149.5 615,-149.5 609,-143.5 609,-137.5 609,-137.5 609,-108.5 609,-108.5 609,-102.5 615,-96.5 621,-96.5 621,-96.5 753,-96.5 753,-96.5 759,-96.5 765,-102.5 765,-108.5 765,-108.5 765,-137.5 765,-137.5 765,-143.5 759,-149.5 753,-149.5"/>
<text text-anchor="middle" x="687" y="-134.3" font-family="Helvetica,sans-Serif" font-size="14.00" fill="#000000">entropy = 1.0</text>
<text text-anchor="middle" x="687" y="-119.3" font-family="Helvetica,sans-Serif" font-size="14.00" fill="#000000">samples = 3.9%</text>
<text text-anchor="middle" x="687" y="-104.3" font-family="Helvetica,sans-Serif" font-size="14.00" fill="#000000">value = [0.498, 0.502]</text>
</g>
<!-- 4&#45;&gt;12 -->
<g id="edge9" class="edge">
<title>4&#45;&gt;12</title>
<path fill="none" stroke="#000000" d="M628.4871,-192.9465C638.07,-181.491 648.761,-168.711 658.3559,-157.2412"/>
<polygon fill="#000000" stroke="#000000" points="661.0646,-159.458 664.7965,-149.5422 655.6955,-154.9666 661.0646,-159.458"/>
</g>
<!-- 5 -->
<g id="node12" class="node">
<title>5</title>
<path fill="#e58139" fill-opacity="0.517647" stroke="#000000" d="M927,-261C927,-261 795,-261 795,-261 789,-261 783,-255 783,-249 783,-249 783,-205 783,-205 783,-199 789,-193 795,-193 795,-193 927,-193 927,-193 933,-193 939,-199 939,-205 939,-205 939,-249 939,-249 939,-255 933,-261 927,-261"/>
<text text-anchor="middle" x="861" y="-245.8" font-family="Helvetica,sans-Serif" font-size="14.00" fill="#000000">fractal&#45;value &lt;= 0.495</text>
<text text-anchor="middle" x="861" y="-230.8" font-family="Helvetica,sans-Serif" font-size="14.00" fill="#000000">entropy = 0.911</text>
<text text-anchor="middle" x="861" y="-215.8" font-family="Helvetica,sans-Serif" font-size="14.00" fill="#000000">samples = 15.1%</text>
<text text-anchor="middle" x="861" y="-200.8" font-family="Helvetica,sans-Serif" font-size="14.00" fill="#000000">value = [0.674, 0.326]</text>
</g>
<!-- 2&#45;&gt;5 -->
<g id="edge11" class="edge">
<title>2&#45;&gt;5</title>
<path fill="none" stroke="#000000" d="M861,-296.9465C861,-288.776 861,-279.9318 861,-271.3697"/>
<polygon fill="#000000" stroke="#000000" points="864.5001,-271.13 861,-261.13 857.5001,-271.13 864.5001,-271.13"/>
</g>
<!-- 6 -->
<g id="node15" class="node">
<title>6</title>
<path fill="#399de5" fill-opacity="0.564706" stroke="#000000" d="M1101,-253.5C1101,-253.5 969,-253.5 969,-253.5 963,-253.5 957,-247.5 957,-241.5 957,-241.5 957,-212.5 957,-212.5 957,-206.5 963,-200.5 969,-200.5 969,-200.5 1101,-200.5 1101,-200.5 1107,-200.5 1113,-206.5 1113,-212.5 1113,-212.5 1113,-241.5 1113,-241.5 1113,-247.5 1107,-253.5 1101,-253.5"/>
<text text-anchor="middle" x="1035" y="-238.3" font-family="Helvetica,sans-Serif" font-size="14.00" fill="#000000">entropy = 0.884</text>
<text text-anchor="middle" x="1035" y="-223.3" font-family="Helvetica,sans-Serif" font-size="14.00" fill="#000000">samples = 6.5%</text>
<text text-anchor="middle" x="1035" y="-208.3" font-family="Helvetica,sans-Serif" font-size="14.00" fill="#000000">value = [0.302, 0.698]</text>
</g>
<!-- 2&#45;&gt;6 -->
<g id="edge14" class="edge">
<title>2&#45;&gt;6</title>
<path fill="none" stroke="#000000" d="M917.9741,-296.9465C938.5222,-284.6649 961.6173,-270.8609 981.8277,-258.7811"/>
<polygon fill="#000000" stroke="#000000" points="983.805,-261.6769 990.5929,-253.5422 980.2136,-255.6684 983.805,-261.6769"/>
</g>
<!-- 9 -->
<g id="node13" class="node">
<title>9</title>
<path fill="#399de5" fill-opacity="0.258824" stroke="#000000" d="M927,-149.5C927,-149.5 795,-149.5 795,-149.5 789,-149.5 783,-143.5 783,-137.5 783,-137.5 783,-108.5 783,-108.5 783,-102.5 789,-96.5 795,-96.5 795,-96.5 927,-96.5 927,-96.5 933,-96.5 939,-102.5 939,-108.5 939,-108.5 939,-137.5 939,-137.5 939,-143.5 933,-149.5 927,-149.5"/>
<text text-anchor="middle" x="861" y="-134.3" font-family="Helvetica,sans-Serif" font-size="14.00" fill="#000000">entropy = 0.984</text>
<text text-anchor="middle" x="861" y="-119.3" font-family="Helvetica,sans-Serif" font-size="14.00" fill="#000000">samples = 3.9%</text>
<text text-anchor="middle" x="861" y="-104.3" font-family="Helvetica,sans-Serif" font-size="14.00" fill="#000000">value = [0.426, 0.574]</text>
</g>
<!-- 5&#45;&gt;9 -->
<g id="edge12" class="edge">
<title>5&#45;&gt;9</title>
<path fill="none" stroke="#000000" d="M861,-192.9465C861,-182.2621 861,-170.4254 861,-159.5742"/>
<polygon fill="#000000" stroke="#000000" points="864.5001,-159.5421 861,-149.5422 857.5001,-159.5422 864.5001,-159.5421"/>
</g>
<!-- 10 -->
<g id="node14" class="node">
<title>10</title>
<path fill="#e58139" fill-opacity="0.686275" stroke="#000000" d="M1101,-149.5C1101,-149.5 969,-149.5 969,-149.5 963,-149.5 957,-143.5 957,-137.5 957,-137.5 957,-108.5 957,-108.5 957,-102.5 963,-96.5 969,-96.5 969,-96.5 1101,-96.5 1101,-96.5 1107,-96.5 1113,-102.5 1113,-108.5 1113,-108.5 1113,-137.5 1113,-137.5 1113,-143.5 1107,-149.5 1101,-149.5"/>
<text text-anchor="middle" x="1035" y="-134.3" font-family="Helvetica,sans-Serif" font-size="14.00" fill="#000000">entropy = 0.793</text>
<text text-anchor="middle" x="1035" y="-119.3" font-family="Helvetica,sans-Serif" font-size="14.00" fill="#000000">samples = 11.2%</text>
<text text-anchor="middle" x="1035" y="-104.3" font-family="Helvetica,sans-Serif" font-size="14.00" fill="#000000">value = [0.761, 0.239]</text>
</g>
<!-- 5&#45;&gt;10 -->
<g id="edge13" class="edge">
<title>5&#45;&gt;10</title>
<path fill="none" stroke="#000000" d="M917.9741,-192.9465C938.5222,-180.6649 961.6173,-166.8609 981.8277,-154.7811"/>
<polygon fill="#000000" stroke="#000000" points="983.805,-157.6769 990.5929,-149.5422 980.2136,-151.6684 983.805,-157.6769"/>
</g>
</g>
</svg>
