<?xml version="1.0" encoding="UTF-8" standalone="no"?>
<!DOCTYPE svg PUBLIC "-//W3C//DTD SVG 1.1//EN"
 "http://www.w3.org/Graphics/SVG/1.1/DTD/svg11.dtd">
<!-- Generated by graphviz version 2.40.1 (20161225.0304)
 -->
<!-- Title: Tree Pages: 1 -->
<svg width="512pt" height="373pt"
 viewBox="0.00 0.00 512.00 373.00" xmlns="http://www.w3.org/2000/svg" xmlns:xlink="http://www.w3.org/1999/xlink">
<g id="graph0" class="graph" transform="scale(1 1) rotate(0) translate(4 369)">
<title>Tree</title>
<polygon fill="#ffffff" stroke="transparent" points="-4,4 -4,-369 508,-369 508,4 -4,4"/>
<!-- 0 -->
<g id="node1" class="node">
<title>0</title>
<path fill="#e58139" fill-opacity="0.803922" stroke="#000000" d="M405,-365C405,-365 273,-365 273,-365 267,-365 261,-359 261,-353 261,-353 261,-309 261,-309 261,-303 267,-297 273,-297 273,-297 405,-297 405,-297 411,-297 417,-303 417,-309 417,-309 417,-353 417,-353 417,-359 411,-365 405,-365"/>
<text text-anchor="middle" x="339" y="-349.8" font-family="Helvetica,sans-Serif" font-size="14.00" fill="#000000">rfc &lt;= 42.5</text>
<text text-anchor="middle" x="339" y="-334.8" font-family="Helvetica,sans-Serif" font-size="14.00" fill="#000000">entropy = 0.642</text>
<text text-anchor="middle" x="339" y="-319.8" font-family="Helvetica,sans-Serif" font-size="14.00" fill="#000000">samples = 100.0%</text>
<text text-anchor="middle" x="339" y="-304.8" font-family="Helvetica,sans-Serif" font-size="14.00" fill="#000000">value = [0.837, 0.163]</text>
</g>
<!-- 1 -->
<g id="node2" class="node">
<title>1</title>
<path fill="#e58139" fill-opacity="0.886275" stroke="#000000" d="M318,-261C318,-261 186,-261 186,-261 180,-261 174,-255 174,-249 174,-249 174,-205 174,-205 174,-199 180,-193 186,-193 186,-193 318,-193 318,-193 324,-193 330,-199 330,-205 330,-205 330,-249 330,-249 330,-255 324,-261 318,-261"/>
<text text-anchor="middle" x="252" y="-245.8" font-family="Helvetica,sans-Serif" font-size="14.00" fill="#000000">fractal&#45;value &lt;= 0.1</text>
<text text-anchor="middle" x="252" y="-230.8" font-family="Helvetica,sans-Serif" font-size="14.00" fill="#000000">entropy = 0.476</text>
<text text-anchor="middle" x="252" y="-215.8" font-family="Helvetica,sans-Serif" font-size="14.00" fill="#000000">samples = 83.2%</text>
<text text-anchor="middle" x="252" y="-200.8" font-family="Helvetica,sans-Serif" font-size="14.00" fill="#000000">value = [0.898, 0.102]</text>
</g>
<!-- 0&#45;&gt;1 -->
<g id="edge1" class="edge">
<title>0&#45;&gt;1</title>
<path fill="none" stroke="#000000" d="M310.5129,-296.9465C303.0021,-287.968 294.8105,-278.1758 286.9995,-268.8385"/>
<polygon fill="#000000" stroke="#000000" points="289.652,-266.5544 280.5511,-261.13 284.2829,-271.0459 289.652,-266.5544"/>
<text text-anchor="middle" x="278.3347" y="-282.3316" font-family="Helvetica,sans-Serif" font-size="14.00" fill="#000000">True</text>
</g>
<!-- 2 -->
<g id="node7" class="node">
<title>2</title>
<path fill="#e58139" fill-opacity="0.125490" stroke="#000000" d="M492,-253.5C492,-253.5 360,-253.5 360,-253.5 354,-253.5 348,-247.5 348,-241.5 348,-241.5 348,-212.5 348,-212.5 348,-206.5 354,-200.5 360,-200.5 360,-200.5 492,-200.5 492,-200.5 498,-200.5 504,-206.5 504,-212.5 504,-212.5 504,-241.5 504,-241.5 504,-247.5 498,-253.5 492,-253.5"/>
<text text-anchor="middle" x="426" y="-238.3" font-family="Helvetica,sans-Serif" font-size="14.00" fill="#000000">entropy = 0.997</text>
<text text-anchor="middle" x="426" y="-223.3" font-family="Helvetica,sans-Serif" font-size="14.00" fill="#000000">samples = 16.8%</text>
<text text-anchor="middle" x="426" y="-208.3" font-family="Helvetica,sans-Serif" font-size="14.00" fill="#000000">value = [0.533, 0.467]</text>
</g>
<!-- 0&#45;&gt;2 -->
<g id="edge6" class="edge">
<title>0&#45;&gt;2</title>
<path fill="none" stroke="#000000" d="M367.4871,-296.9465C377.07,-285.491 387.761,-272.711 397.3559,-261.2412"/>
<polygon fill="#000000" stroke="#000000" points="400.0646,-263.458 403.7965,-253.5422 394.6955,-258.9666 400.0646,-263.458"/>
<text text-anchor="middle" x="406.0128" y="-274.7437" font-family="Helvetica,sans-Serif" font-size="14.00" fill="#000000">False</text>
</g>
<!-- 3 -->
<g id="node3" class="node">
<title>3</title>
<path fill="#e58139" fill-opacity="0.929412" stroke="#000000" d="M231,-157C231,-157 99,-157 99,-157 93,-157 87,-151 87,-145 87,-145 87,-101 87,-101 87,-95 93,-89 99,-89 99,-89 231,-89 231,-89 237,-89 243,-95 243,-101 243,-101 243,-145 243,-145 243,-151 237,-157 231,-157"/>
<text text-anchor="middle" x="165" y="-141.8" font-family="Helvetica,sans-Serif" font-size="14.00" fill="#000000">age&#45;months &lt;= 106.5</text>
<text text-anchor="middle" x="165" y="-126.8" font-family="Helvetica,sans-Serif" font-size="14.00" fill="#000000">entropy = 0.349</text>
<text text-anchor="middle" x="165" y="-111.8" font-family="Helvetica,sans-Serif" font-size="14.00" fill="#000000">samples = 68.8%</text>
<text text-anchor="middle" x="165" y="-96.8" font-family="Helvetica,sans-Serif" font-size="14.00" fill="#000000">value = [0.935, 0.065]</text>
</g>
<!-- 1&#45;&gt;3 -->
<g id="edge2" class="edge">
<title>1&#45;&gt;3</title>
<path fill="none" stroke="#000000" d="M223.5129,-192.9465C216.0021,-183.968 207.8105,-174.1758 199.9995,-164.8385"/>
<polygon fill="#000000" stroke="#000000" points="202.652,-162.5544 193.5511,-157.13 197.2829,-167.0459 202.652,-162.5544"/>
</g>
<!-- 4 -->
<g id="node6" class="node">
<title>4</title>
<path fill="#e58139" fill-opacity="0.615686" stroke="#000000" d="M405,-149.5C405,-149.5 273,-149.5 273,-149.5 267,-149.5 261,-143.5 261,-137.5 261,-137.5 261,-108.5 261,-108.5 261,-102.5 267,-96.5 273,-96.5 273,-96.5 405,-96.5 405,-96.5 411,-96.5 417,-102.5 417,-108.5 417,-108.5 417,-137.5 417,-137.5 417,-143.5 411,-149.5 405,-149.5"/>
<text text-anchor="middle" x="339" y="-134.3" font-family="Helvetica,sans-Serif" font-size="14.00" fill="#000000">entropy = 0.853</text>
<text text-anchor="middle" x="339" y="-119.3" font-family="Helvetica,sans-Serif" font-size="14.00" fill="#000000">samples = 14.4%</text>
<text text-anchor="middle" x="339" y="-104.3" font-family="Helvetica,sans-Serif" font-size="14.00" fill="#000000">value = [0.722, 0.278]</text>
</g>
<!-- 1&#45;&gt;4 -->
<g id="edge5" class="edge">
<title>1&#45;&gt;4</title>
<path fill="none" stroke="#000000" d="M280.4871,-192.9465C290.07,-181.491 300.761,-168.711 310.3559,-157.2412"/>
<polygon fill="#000000" stroke="#000000" points="313.0646,-159.458 316.7965,-149.5422 307.6955,-154.9666 313.0646,-159.458"/>
</g>
<!-- 5 -->
<g id="node4" class="node">
<title>5</title>
<path fill="#e58139" fill-opacity="0.988235" stroke="#000000" d="M144,-53C144,-53 12,-53 12,-53 6,-53 0,-47 0,-41 0,-41 0,-12 0,-12 0,-6 6,0 12,0 12,0 144,0 144,0 150,0 156,-6 156,-12 156,-12 156,-41 156,-41 156,-47 150,-53 144,-53"/>
<text text-anchor="middle" x="78" y="-37.8" font-family="Helvetica,sans-Serif" font-size="14.00" fill="#000000">entropy = 0.095</text>
<text text-anchor="middle" x="78" y="-22.8" font-family="Helvetica,sans-Serif" font-size="14.00" fill="#000000">samples = 34.3%</text>
<text text-anchor="middle" x="78" y="-7.8" font-family="Helvetica,sans-Serif" font-size="14.00" fill="#000000">value = [0.988, 0.012]</text>
</g>
<!-- 3&#45;&gt;5 -->
<g id="edge3" class="edge">
<title>3&#45;&gt;5</title>
<path fill="none" stroke="#000000" d="M134.3271,-88.9777C126.0715,-79.8207 117.1391,-69.9129 108.8728,-60.744"/>
<polygon fill="#000000" stroke="#000000" points="111.4108,-58.3321 102.1152,-53.2485 106.2117,-63.0193 111.4108,-58.3321"/>
</g>
<!-- 6 -->
<g id="node5" class="node">
<title>6</title>
<path fill="#e58139" fill-opacity="0.866667" stroke="#000000" d="M318,-53C318,-53 186,-53 186,-53 180,-53 174,-47 174,-41 174,-41 174,-12 174,-12 174,-6 180,0 186,0 186,0 318,0 318,0 324,0 330,-6 330,-12 330,-12 330,-41 330,-41 330,-47 324,-53 318,-53"/>
<text text-anchor="middle" x="252" y="-37.8" font-family="Helvetica,sans-Serif" font-size="14.00" fill="#000000">entropy = 0.525</text>
<text text-anchor="middle" x="252" y="-22.8" font-family="Helvetica,sans-Serif" font-size="14.00" fill="#000000">samples = 34.5%</text>
<text text-anchor="middle" x="252" y="-7.8" font-family="Helvetica,sans-Serif" font-size="14.00" fill="#000000">value = [0.882, 0.118]</text>
</g>
<!-- 3&#45;&gt;6 -->
<g id="edge4" class="edge">
<title>3&#45;&gt;6</title>
<path fill="none" stroke="#000000" d="M195.6729,-88.9777C203.9285,-79.8207 212.8609,-69.9129 221.1272,-60.744"/>
<polygon fill="#000000" stroke="#000000" points="223.7883,-63.0193 227.8848,-53.2485 218.5892,-58.3321 223.7883,-63.0193"/>
</g>
</g>
</svg>
