<?xml version="1.0" encoding="UTF-8" standalone="no"?>
<!DOCTYPE svg PUBLIC "-//W3C//DTD SVG 1.1//EN"
 "http://www.w3.org/Graphics/SVG/1.1/DTD/svg11.dtd">
<!-- Generated by graphviz version 2.40.1 (20161225.0304)
 -->
<!-- Title: Tree Pages: 1 -->
<svg width="736pt" height="581pt"
 viewBox="0.00 0.00 736.00 581.00" xmlns="http://www.w3.org/2000/svg" xmlns:xlink="http://www.w3.org/1999/xlink">
<g id="graph0" class="graph" transform="scale(1 1) rotate(0) translate(4 577)">
<title>Tree</title>
<polygon fill="#ffffff" stroke="transparent" points="-4,4 -4,-577 732,-577 732,4 -4,4"/>
<!-- 0 -->
<g id="node1" class="node">
<title>0</title>
<path fill="#e58139" fill-opacity="0.180392" stroke="#000000" d="M503.5,-573C503.5,-573 390.5,-573 390.5,-573 384.5,-573 378.5,-567 378.5,-561 378.5,-561 378.5,-517 378.5,-517 378.5,-511 384.5,-505 390.5,-505 390.5,-505 503.5,-505 503.5,-505 509.5,-505 515.5,-511 515.5,-517 515.5,-517 515.5,-561 515.5,-561 515.5,-567 509.5,-573 503.5,-573"/>
<text text-anchor="middle" x="447" y="-557.8" font-family="Helvetica,sans-Serif" font-size="14.00" fill="#000000">rfc &lt;= 68.5</text>
<text text-anchor="middle" x="447" y="-542.8" font-family="Helvetica,sans-Serif" font-size="14.00" fill="#000000">mse = 0.142</text>
<text text-anchor="middle" x="447" y="-527.8" font-family="Helvetica,sans-Serif" font-size="14.00" fill="#000000">samples = 100.0%</text>
<text text-anchor="middle" x="447" y="-512.8" font-family="Helvetica,sans-Serif" font-size="14.00" fill="#000000">value = 0.171</text>
</g>
<!-- 1 -->
<g id="node2" class="node">
<title>1</title>
<path fill="#e58139" fill-opacity="0.109804" stroke="#000000" d="M426,-469C426,-469 294,-469 294,-469 288,-469 282,-463 282,-457 282,-457 282,-413 282,-413 282,-407 288,-401 294,-401 294,-401 426,-401 426,-401 432,-401 438,-407 438,-413 438,-413 438,-457 438,-457 438,-463 432,-469 426,-469"/>
<text text-anchor="middle" x="360" y="-453.8" font-family="Helvetica,sans-Serif" font-size="14.00" fill="#000000">fractal&#45;value &lt;= 0.075</text>
<text text-anchor="middle" x="360" y="-438.8" font-family="Helvetica,sans-Serif" font-size="14.00" fill="#000000">mse = 0.11</text>
<text text-anchor="middle" x="360" y="-423.8" font-family="Helvetica,sans-Serif" font-size="14.00" fill="#000000">samples = 90.9%</text>
<text text-anchor="middle" x="360" y="-408.8" font-family="Helvetica,sans-Serif" font-size="14.00" fill="#000000">value = 0.126</text>
</g>
<!-- 0&#45;&gt;1 -->
<g id="edge1" class="edge">
<title>0&#45;&gt;1</title>
<path fill="none" stroke="#000000" d="M418.5129,-504.9465C411.0021,-495.968 402.8105,-486.1758 394.9995,-476.8385"/>
<polygon fill="#000000" stroke="#000000" points="397.652,-474.5544 388.5511,-469.13 392.2829,-479.0459 397.652,-474.5544"/>
<text text-anchor="middle" x="386.3347" y="-490.3316" font-family="Helvetica,sans-Serif" font-size="14.00" fill="#000000">True</text>
</g>
<!-- 2 -->
<g id="node13" class="node">
<title>2</title>
<path fill="#e58139" fill-opacity="0.854902" stroke="#000000" d="M600,-469C600,-469 468,-469 468,-469 462,-469 456,-463 456,-457 456,-457 456,-413 456,-413 456,-407 462,-401 468,-401 468,-401 600,-401 600,-401 606,-401 612,-407 612,-413 612,-413 612,-457 612,-457 612,-463 606,-469 600,-469"/>
<text text-anchor="middle" x="534" y="-453.8" font-family="Helvetica,sans-Serif" font-size="14.00" fill="#000000">fractal&#45;value &lt;= 0.025</text>
<text text-anchor="middle" x="534" y="-438.8" font-family="Helvetica,sans-Serif" font-size="14.00" fill="#000000">mse = 0.235</text>
<text text-anchor="middle" x="534" y="-423.8" font-family="Helvetica,sans-Serif" font-size="14.00" fill="#000000">samples = 9.1%</text>
<text text-anchor="middle" x="534" y="-408.8" font-family="Helvetica,sans-Serif" font-size="14.00" fill="#000000">value = 0.623</text>
</g>
<!-- 0&#45;&gt;2 -->
<g id="edge12" class="edge">
<title>0&#45;&gt;2</title>
<path fill="none" stroke="#000000" d="M475.4871,-504.9465C482.9979,-495.968 491.1895,-486.1758 499.0005,-476.8385"/>
<polygon fill="#000000" stroke="#000000" points="501.7171,-479.0459 505.4489,-469.13 496.348,-474.5544 501.7171,-479.0459"/>
<text text-anchor="middle" x="507.6653" y="-490.3316" font-family="Helvetica,sans-Serif" font-size="14.00" fill="#000000">False</text>
</g>
<!-- 3 -->
<g id="node3" class="node">
<title>3</title>
<path fill="#e58139" fill-opacity="0.035294" stroke="#000000" d="M257,-365C257,-365 153,-365 153,-365 147,-365 141,-359 141,-353 141,-353 141,-309 141,-309 141,-303 147,-297 153,-297 153,-297 257,-297 257,-297 263,-297 269,-303 269,-309 269,-309 269,-353 269,-353 269,-359 263,-365 257,-365"/>
<text text-anchor="middle" x="205" y="-349.8" font-family="Helvetica,sans-Serif" font-size="14.00" fill="#000000">loc &lt;= 90.5</text>
<text text-anchor="middle" x="205" y="-334.8" font-family="Helvetica,sans-Serif" font-size="14.00" fill="#000000">mse = 0.071</text>
<text text-anchor="middle" x="205" y="-319.8" font-family="Helvetica,sans-Serif" font-size="14.00" fill="#000000">samples = 74.4%</text>
<text text-anchor="middle" x="205" y="-304.8" font-family="Helvetica,sans-Serif" font-size="14.00" fill="#000000">value = 0.076</text>
</g>
<!-- 1&#45;&gt;3 -->
<g id="edge2" class="edge">
<title>1&#45;&gt;3</title>
<path fill="none" stroke="#000000" d="M309.2472,-400.9465C294.929,-391.3395 279.2225,-380.8009 264.4437,-370.8848"/>
<polygon fill="#000000" stroke="#000000" points="266.1209,-367.7953 255.8668,-365.13 262.2207,-373.6081 266.1209,-367.7953"/>
</g>
<!-- 4 -->
<g id="node6" class="node">
<title>4</title>
<path fill="#e58139" fill-opacity="0.447059" stroke="#000000" d="M431,-365C431,-365 299,-365 299,-365 293,-365 287,-359 287,-353 287,-353 287,-309 287,-309 287,-303 293,-297 299,-297 299,-297 431,-297 431,-297 437,-297 443,-303 443,-309 443,-309 443,-353 443,-353 443,-359 437,-365 431,-365"/>
<text text-anchor="middle" x="365" y="-349.8" font-family="Helvetica,sans-Serif" font-size="14.00" fill="#000000">fractal&#45;value &lt;= 0.495</text>
<text text-anchor="middle" x="365" y="-334.8" font-family="Helvetica,sans-Serif" font-size="14.00" fill="#000000">mse = 0.228</text>
<text text-anchor="middle" x="365" y="-319.8" font-family="Helvetica,sans-Serif" font-size="14.00" fill="#000000">samples = 16.5%</text>
<text text-anchor="middle" x="365" y="-304.8" font-family="Helvetica,sans-Serif" font-size="14.00" fill="#000000">value = 0.351</text>
</g>
<!-- 1&#45;&gt;4 -->
<g id="edge5" class="edge">
<title>1&#45;&gt;4</title>
<path fill="none" stroke="#000000" d="M361.6372,-400.9465C362.03,-392.776 362.4552,-383.9318 362.8668,-375.3697"/>
<polygon fill="#000000" stroke="#000000" points="366.3748,-375.2866 363.3591,-365.13 359.3829,-374.9504 366.3748,-375.2866"/>
</g>
<!-- 7 -->
<g id="node4" class="node">
<title>7</title>
<path fill="transparent" stroke="#000000" d="M116,-253.5C116,-253.5 12,-253.5 12,-253.5 6,-253.5 0,-247.5 0,-241.5 0,-241.5 0,-212.5 0,-212.5 0,-206.5 6,-200.5 12,-200.5 12,-200.5 116,-200.5 116,-200.5 122,-200.5 128,-206.5 128,-212.5 128,-212.5 128,-241.5 128,-241.5 128,-247.5 122,-253.5 116,-253.5"/>
<text text-anchor="middle" x="64" y="-238.3" font-family="Helvetica,sans-Serif" font-size="14.00" fill="#000000">mse = 0.05</text>
<text text-anchor="middle" x="64" y="-223.3" font-family="Helvetica,sans-Serif" font-size="14.00" fill="#000000">samples = 59.0%</text>
<text text-anchor="middle" x="64" y="-208.3" font-family="Helvetica,sans-Serif" font-size="14.00" fill="#000000">value = 0.052</text>
</g>
<!-- 3&#45;&gt;7 -->
<g id="edge3" class="edge">
<title>3&#45;&gt;7</title>
<path fill="none" stroke="#000000" d="M158.8313,-296.9465C142.5536,-284.9403 124.3035,-271.4791 108.193,-259.5962"/>
<polygon fill="#000000" stroke="#000000" points="110.1103,-256.6614 99.985,-253.5422 105.9552,-262.2948 110.1103,-256.6614"/>
</g>
<!-- 8 -->
<g id="node5" class="node">
<title>8</title>
<path fill="#e58139" fill-opacity="0.172549" stroke="#000000" d="M262,-253.5C262,-253.5 158,-253.5 158,-253.5 152,-253.5 146,-247.5 146,-241.5 146,-241.5 146,-212.5 146,-212.5 146,-206.5 152,-200.5 158,-200.5 158,-200.5 262,-200.5 262,-200.5 268,-200.5 274,-206.5 274,-212.5 274,-212.5 274,-241.5 274,-241.5 274,-247.5 268,-253.5 262,-253.5"/>
<text text-anchor="middle" x="210" y="-238.3" font-family="Helvetica,sans-Serif" font-size="14.00" fill="#000000">mse = 0.14</text>
<text text-anchor="middle" x="210" y="-223.3" font-family="Helvetica,sans-Serif" font-size="14.00" fill="#000000">samples = 15.4%</text>
<text text-anchor="middle" x="210" y="-208.3" font-family="Helvetica,sans-Serif" font-size="14.00" fill="#000000">value = 0.168</text>
</g>
<!-- 3&#45;&gt;8 -->
<g id="edge4" class="edge">
<title>3&#45;&gt;8</title>
<path fill="none" stroke="#000000" d="M206.6372,-296.9465C207.1509,-286.2621 207.7199,-274.4254 208.2416,-263.5742"/>
<polygon fill="#000000" stroke="#000000" points="211.7396,-263.6987 208.7239,-253.5422 204.7477,-263.3625 211.7396,-263.6987"/>
</g>
<!-- 5 -->
<g id="node7" class="node">
<title>5</title>
<path fill="#e58139" fill-opacity="0.839216" stroke="#000000" d="M409,-253.5C409,-253.5 313,-253.5 313,-253.5 307,-253.5 301,-247.5 301,-241.5 301,-241.5 301,-212.5 301,-212.5 301,-206.5 307,-200.5 313,-200.5 313,-200.5 409,-200.5 409,-200.5 415,-200.5 421,-206.5 421,-212.5 421,-212.5 421,-241.5 421,-241.5 421,-247.5 415,-253.5 409,-253.5"/>
<text text-anchor="middle" x="361" y="-238.3" font-family="Helvetica,sans-Serif" font-size="14.00" fill="#000000">mse = 0.237</text>
<text text-anchor="middle" x="361" y="-223.3" font-family="Helvetica,sans-Serif" font-size="14.00" fill="#000000">samples = 4.5%</text>
<text text-anchor="middle" x="361" y="-208.3" font-family="Helvetica,sans-Serif" font-size="14.00" fill="#000000">value = 0.612</text>
</g>
<!-- 4&#45;&gt;5 -->
<g id="edge6" class="edge">
<title>4&#45;&gt;5</title>
<path fill="none" stroke="#000000" d="M363.6903,-296.9465C363.2793,-286.2621 362.8241,-274.4254 362.4067,-263.5742"/>
<polygon fill="#000000" stroke="#000000" points="365.9027,-263.4002 362.0209,-253.5422 358.9079,-263.6693 365.9027,-263.4002"/>
</g>
<!-- 6 -->
<g id="node8" class="node">
<title>6</title>
<path fill="#e58139" fill-opacity="0.298039" stroke="#000000" d="M583,-261C583,-261 451,-261 451,-261 445,-261 439,-255 439,-249 439,-249 439,-205 439,-205 439,-199 445,-193 451,-193 451,-193 583,-193 583,-193 589,-193 595,-199 595,-205 595,-205 595,-249 595,-249 595,-255 589,-261 583,-261"/>
<text text-anchor="middle" x="517" y="-245.8" font-family="Helvetica,sans-Serif" font-size="14.00" fill="#000000">fractal&#45;value &lt;= 0.505</text>
<text text-anchor="middle" x="517" y="-230.8" font-family="Helvetica,sans-Serif" font-size="14.00" fill="#000000">mse = 0.189</text>
<text text-anchor="middle" x="517" y="-215.8" font-family="Helvetica,sans-Serif" font-size="14.00" fill="#000000">samples = 12.0%</text>
<text text-anchor="middle" x="517" y="-200.8" font-family="Helvetica,sans-Serif" font-size="14.00" fill="#000000">value = 0.252</text>
</g>
<!-- 4&#45;&gt;6 -->
<g id="edge7" class="edge">
<title>4&#45;&gt;6</title>
<path fill="none" stroke="#000000" d="M414.7705,-296.9465C428.8115,-287.3395 444.214,-276.8009 458.7068,-266.8848"/>
<polygon fill="#000000" stroke="#000000" points="460.841,-269.6655 467.1177,-261.13 456.8882,-263.8883 460.841,-269.6655"/>
</g>
<!-- 9 -->
<g id="node9" class="node">
<title>9</title>
<path fill="#e58139" fill-opacity="0.203922" stroke="#000000" d="M489,-149.5C489,-149.5 393,-149.5 393,-149.5 387,-149.5 381,-143.5 381,-137.5 381,-137.5 381,-108.5 381,-108.5 381,-102.5 387,-96.5 393,-96.5 393,-96.5 489,-96.5 489,-96.5 495,-96.5 501,-102.5 501,-108.5 501,-108.5 501,-137.5 501,-137.5 501,-143.5 495,-149.5 489,-149.5"/>
<text text-anchor="middle" x="441" y="-134.3" font-family="Helvetica,sans-Serif" font-size="14.00" fill="#000000">mse = 0.153</text>
<text text-anchor="middle" x="441" y="-119.3" font-family="Helvetica,sans-Serif" font-size="14.00" fill="#000000">samples = 9.1%</text>
<text text-anchor="middle" x="441" y="-104.3" font-family="Helvetica,sans-Serif" font-size="14.00" fill="#000000">value = 0.188</text>
</g>
<!-- 6&#45;&gt;9 -->
<g id="edge8" class="edge">
<title>6&#45;&gt;9</title>
<path fill="none" stroke="#000000" d="M492.1148,-192.9465C483.9044,-181.7113 474.7631,-169.2021 466.507,-157.9043"/>
<polygon fill="#000000" stroke="#000000" points="469.1223,-155.551 460.3962,-149.5422 463.4705,-159.6812 469.1223,-155.551"/>
</g>
<!-- 10 -->
<g id="node10" class="node">
<title>10</title>
<path fill="#e58139" fill-opacity="0.603922" stroke="#000000" d="M655,-157C655,-157 531,-157 531,-157 525,-157 519,-151 519,-145 519,-145 519,-101 519,-101 519,-95 525,-89 531,-89 531,-89 655,-89 655,-89 661,-89 667,-95 667,-101 667,-101 667,-145 667,-145 667,-151 661,-157 655,-157"/>
<text text-anchor="middle" x="593" y="-141.8" font-family="Helvetica,sans-Serif" font-size="14.00" fill="#000000">fractal&#45;value &lt;= 0.66</text>
<text text-anchor="middle" x="593" y="-126.8" font-family="Helvetica,sans-Serif" font-size="14.00" fill="#000000">mse = 0.248</text>
<text text-anchor="middle" x="593" y="-111.8" font-family="Helvetica,sans-Serif" font-size="14.00" fill="#000000">samples = 2.9%</text>
<text text-anchor="middle" x="593" y="-96.8" font-family="Helvetica,sans-Serif" font-size="14.00" fill="#000000">value = 0.456</text>
</g>
<!-- 6&#45;&gt;10 -->
<g id="edge9" class="edge">
<title>6&#45;&gt;10</title>
<path fill="none" stroke="#000000" d="M541.8852,-192.9465C548.3153,-184.1475 555.3163,-174.5672 562.0159,-165.3993"/>
<polygon fill="#000000" stroke="#000000" points="564.9845,-167.269 568.0588,-157.13 559.3328,-163.1389 564.9845,-167.269"/>
</g>
<!-- 11 -->
<g id="node11" class="node">
<title>11</title>
<path fill="#e58139" fill-opacity="0.976471" stroke="#000000" d="M572,-53C572,-53 476,-53 476,-53 470,-53 464,-47 464,-41 464,-41 464,-12 464,-12 464,-6 470,0 476,0 476,0 572,0 572,0 578,0 584,-6 584,-12 584,-12 584,-41 584,-41 584,-47 578,-53 572,-53"/>
<text text-anchor="middle" x="524" y="-37.8" font-family="Helvetica,sans-Serif" font-size="14.00" fill="#000000">mse = 0.209</text>
<text text-anchor="middle" x="524" y="-22.8" font-family="Helvetica,sans-Serif" font-size="14.00" fill="#000000">samples = 1.1%</text>
<text text-anchor="middle" x="524" y="-7.8" font-family="Helvetica,sans-Serif" font-size="14.00" fill="#000000">value = 0.702</text>
</g>
<!-- 10&#45;&gt;11 -->
<g id="edge10" class="edge">
<title>10&#45;&gt;11</title>
<path fill="none" stroke="#000000" d="M568.6732,-88.9777C562.3221,-80.0954 555.466,-70.5067 549.0768,-61.5711"/>
<polygon fill="#000000" stroke="#000000" points="551.7893,-59.3472 543.1259,-53.2485 546.0952,-63.4187 551.7893,-59.3472"/>
</g>
<!-- 12 -->
<g id="node12" class="node">
<title>12</title>
<path fill="#e58139" fill-opacity="0.372549" stroke="#000000" d="M710,-53C710,-53 614,-53 614,-53 608,-53 602,-47 602,-41 602,-41 602,-12 602,-12 602,-6 608,0 614,0 614,0 710,0 710,0 716,0 722,-6 722,-12 722,-12 722,-41 722,-41 722,-47 716,-53 710,-53"/>
<text text-anchor="middle" x="662" y="-37.8" font-family="Helvetica,sans-Serif" font-size="14.00" fill="#000000">mse = 0.21</text>
<text text-anchor="middle" x="662" y="-22.8" font-family="Helvetica,sans-Serif" font-size="14.00" fill="#000000">samples = 1.8%</text>
<text text-anchor="middle" x="662" y="-7.8" font-family="Helvetica,sans-Serif" font-size="14.00" fill="#000000">value = 0.3</text>
</g>
<!-- 10&#45;&gt;12 -->
<g id="edge11" class="edge">
<title>10&#45;&gt;12</title>
<path fill="none" stroke="#000000" d="M617.3268,-88.9777C623.6779,-80.0954 630.534,-70.5067 636.9232,-61.5711"/>
<polygon fill="#000000" stroke="#000000" points="639.9048,-63.4187 642.8741,-53.2485 634.2107,-59.3472 639.9048,-63.4187"/>
</g>
<!-- 13 -->
<g id="node14" class="node">
<title>13</title>
<path fill="#e58139" fill-opacity="0.670588" stroke="#000000" d="M578,-357.5C578,-357.5 482,-357.5 482,-357.5 476,-357.5 470,-351.5 470,-345.5 470,-345.5 470,-316.5 470,-316.5 470,-310.5 476,-304.5 482,-304.5 482,-304.5 578,-304.5 578,-304.5 584,-304.5 590,-310.5 590,-316.5 590,-316.5 590,-345.5 590,-345.5 590,-351.5 584,-357.5 578,-357.5"/>
<text text-anchor="middle" x="530" y="-342.3" font-family="Helvetica,sans-Serif" font-size="14.00" fill="#000000">mse = 0.25</text>
<text text-anchor="middle" x="530" y="-327.3" font-family="Helvetica,sans-Serif" font-size="14.00" fill="#000000">samples = 4.0%</text>
<text text-anchor="middle" x="530" y="-312.3" font-family="Helvetica,sans-Serif" font-size="14.00" fill="#000000">value = 0.5</text>
</g>
<!-- 2&#45;&gt;13 -->
<g id="edge13" class="edge">
<title>2&#45;&gt;13</title>
<path fill="none" stroke="#000000" d="M532.6903,-400.9465C532.2793,-390.2621 531.8241,-378.4254 531.4067,-367.5742"/>
<polygon fill="#000000" stroke="#000000" points="534.9027,-367.4002 531.0209,-357.5422 527.9079,-367.6693 534.9027,-367.4002"/>
</g>
<!-- 14 -->
<g id="node15" class="node">
<title>14</title>
<path fill="#e58139" stroke="#000000" d="M716,-357.5C716,-357.5 620,-357.5 620,-357.5 614,-357.5 608,-351.5 608,-345.5 608,-345.5 608,-316.5 608,-316.5 608,-310.5 614,-304.5 620,-304.5 620,-304.5 716,-304.5 716,-304.5 722,-304.5 728,-310.5 728,-316.5 728,-316.5 728,-345.5 728,-345.5 728,-351.5 722,-357.5 716,-357.5"/>
<text text-anchor="middle" x="668" y="-342.3" font-family="Helvetica,sans-Serif" font-size="14.00" fill="#000000">mse = 0.202</text>
<text text-anchor="middle" x="668" y="-327.3" font-family="Helvetica,sans-Serif" font-size="14.00" fill="#000000">samples = 5.1%</text>
<text text-anchor="middle" x="668" y="-312.3" font-family="Helvetica,sans-Serif" font-size="14.00" fill="#000000">value = 0.719</text>
</g>
<!-- 2&#45;&gt;14 -->
<g id="edge14" class="edge">
<title>2&#45;&gt;14</title>
<path fill="none" stroke="#000000" d="M577.8766,-400.9465C593.2043,-389.0504 610.3723,-375.726 625.5791,-363.9237"/>
<polygon fill="#000000" stroke="#000000" points="628.0475,-366.4384 633.8014,-357.5422 623.7556,-360.9085 628.0475,-366.4384"/>
</g>
</g>
</svg>
