<?xml version="1.0" encoding="UTF-8" standalone="no"?>
<!DOCTYPE svg PUBLIC "-//W3C//DTD SVG 1.1//EN"
 "http://www.w3.org/Graphics/SVG/1.1/DTD/svg11.dtd">
<!-- Generated by graphviz version 2.40.1 (20161225.0304)
 -->
<!-- Title: Tree Pages: 1 -->
<svg width="860pt" height="581pt"
 viewBox="0.00 0.00 860.00 581.00" xmlns="http://www.w3.org/2000/svg" xmlns:xlink="http://www.w3.org/1999/xlink">
<g id="graph0" class="graph" transform="scale(1 1) rotate(0) translate(4 577)">
<title>Tree</title>
<polygon fill="#ffffff" stroke="transparent" points="-4,4 -4,-577 856,-577 856,4 -4,4"/>
<!-- 0 -->
<g id="node1" class="node">
<title>0</title>
<path fill="#e58139" fill-opacity="0.803922" stroke="#000000" d="M579,-573C579,-573 447,-573 447,-573 441,-573 435,-567 435,-561 435,-561 435,-517 435,-517 435,-511 441,-505 447,-505 447,-505 579,-505 579,-505 585,-505 591,-511 591,-517 591,-517 591,-561 591,-561 591,-567 585,-573 579,-573"/>
<text text-anchor="middle" x="513" y="-557.8" font-family="Helvetica,sans-Serif" font-size="14.00" fill="#000000">rfc &lt;= 42.5</text>
<text text-anchor="middle" x="513" y="-542.8" font-family="Helvetica,sans-Serif" font-size="14.00" fill="#000000">entropy = 0.642</text>
<text text-anchor="middle" x="513" y="-527.8" font-family="Helvetica,sans-Serif" font-size="14.00" fill="#000000">samples = 100.0%</text>
<text text-anchor="middle" x="513" y="-512.8" font-family="Helvetica,sans-Serif" font-size="14.00" fill="#000000">value = [0.837, 0.163]</text>
</g>
<!-- 1 -->
<g id="node2" class="node">
<title>1</title>
<path fill="#e58139" fill-opacity="0.886275" stroke="#000000" d="M492,-469C492,-469 360,-469 360,-469 354,-469 348,-463 348,-457 348,-457 348,-413 348,-413 348,-407 354,-401 360,-401 360,-401 492,-401 492,-401 498,-401 504,-407 504,-413 504,-413 504,-457 504,-457 504,-463 498,-469 492,-469"/>
<text text-anchor="middle" x="426" y="-453.8" font-family="Helvetica,sans-Serif" font-size="14.00" fill="#000000">fractal&#45;value &lt;= 0.1</text>
<text text-anchor="middle" x="426" y="-438.8" font-family="Helvetica,sans-Serif" font-size="14.00" fill="#000000">entropy = 0.476</text>
<text text-anchor="middle" x="426" y="-423.8" font-family="Helvetica,sans-Serif" font-size="14.00" fill="#000000">samples = 83.2%</text>
<text text-anchor="middle" x="426" y="-408.8" font-family="Helvetica,sans-Serif" font-size="14.00" fill="#000000">value = [0.898, 0.102]</text>
</g>
<!-- 0&#45;&gt;1 -->
<g id="edge1" class="edge">
<title>0&#45;&gt;1</title>
<path fill="none" stroke="#000000" d="M484.5129,-504.9465C477.0021,-495.968 468.8105,-486.1758 460.9995,-476.8385"/>
<polygon fill="#000000" stroke="#000000" points="463.652,-474.5544 454.5511,-469.13 458.2829,-479.0459 463.652,-474.5544"/>
<text text-anchor="middle" x="452.3347" y="-490.3316" font-family="Helvetica,sans-Serif" font-size="14.00" fill="#000000">True</text>
</g>
<!-- 2 -->
<g id="node13" class="node">
<title>2</title>
<path fill="#e58139" fill-opacity="0.125490" stroke="#000000" d="M666,-469C666,-469 534,-469 534,-469 528,-469 522,-463 522,-457 522,-457 522,-413 522,-413 522,-407 528,-401 534,-401 534,-401 666,-401 666,-401 672,-401 678,-407 678,-413 678,-413 678,-457 678,-457 678,-463 672,-469 666,-469"/>
<text text-anchor="middle" x="600" y="-453.8" font-family="Helvetica,sans-Serif" font-size="14.00" fill="#000000">rfc &lt;= 92.5</text>
<text text-anchor="middle" x="600" y="-438.8" font-family="Helvetica,sans-Serif" font-size="14.00" fill="#000000">entropy = 0.997</text>
<text text-anchor="middle" x="600" y="-423.8" font-family="Helvetica,sans-Serif" font-size="14.00" fill="#000000">samples = 16.8%</text>
<text text-anchor="middle" x="600" y="-408.8" font-family="Helvetica,sans-Serif" font-size="14.00" fill="#000000">value = [0.533, 0.467]</text>
</g>
<!-- 0&#45;&gt;2 -->
<g id="edge12" class="edge">
<title>0&#45;&gt;2</title>
<path fill="none" stroke="#000000" d="M541.4871,-504.9465C548.9979,-495.968 557.1895,-486.1758 565.0005,-476.8385"/>
<polygon fill="#000000" stroke="#000000" points="567.7171,-479.0459 571.4489,-469.13 562.348,-474.5544 567.7171,-479.0459"/>
<text text-anchor="middle" x="573.6653" y="-490.3316" font-family="Helvetica,sans-Serif" font-size="14.00" fill="#000000">False</text>
</g>
<!-- 3 -->
<g id="node3" class="node">
<title>3</title>
<path fill="#e58139" fill-opacity="0.929412" stroke="#000000" d="M318,-365C318,-365 186,-365 186,-365 180,-365 174,-359 174,-353 174,-353 174,-309 174,-309 174,-303 180,-297 186,-297 186,-297 318,-297 318,-297 324,-297 330,-303 330,-309 330,-309 330,-353 330,-353 330,-359 324,-365 318,-365"/>
<text text-anchor="middle" x="252" y="-349.8" font-family="Helvetica,sans-Serif" font-size="14.00" fill="#000000">age&#45;months &lt;= 106.5</text>
<text text-anchor="middle" x="252" y="-334.8" font-family="Helvetica,sans-Serif" font-size="14.00" fill="#000000">entropy = 0.349</text>
<text text-anchor="middle" x="252" y="-319.8" font-family="Helvetica,sans-Serif" font-size="14.00" fill="#000000">samples = 68.8%</text>
<text text-anchor="middle" x="252" y="-304.8" font-family="Helvetica,sans-Serif" font-size="14.00" fill="#000000">value = [0.935, 0.065]</text>
</g>
<!-- 1&#45;&gt;3 -->
<g id="edge2" class="edge">
<title>1&#45;&gt;3</title>
<path fill="none" stroke="#000000" d="M369.0259,-400.9465C352.6522,-391.1599 334.6611,-380.4066 317.8011,-370.3294"/>
<polygon fill="#000000" stroke="#000000" points="319.4814,-367.2562 309.1021,-365.13 315.8901,-373.2648 319.4814,-367.2562"/>
</g>
<!-- 4 -->
<g id="node10" class="node">
<title>4</title>
<path fill="#e58139" fill-opacity="0.615686" stroke="#000000" d="M492,-365C492,-365 360,-365 360,-365 354,-365 348,-359 348,-353 348,-353 348,-309 348,-309 348,-303 354,-297 360,-297 360,-297 492,-297 492,-297 498,-297 504,-303 504,-309 504,-309 504,-353 504,-353 504,-359 498,-365 492,-365"/>
<text text-anchor="middle" x="426" y="-349.8" font-family="Helvetica,sans-Serif" font-size="14.00" fill="#000000">fractal&#45;value &lt;= 0.49</text>
<text text-anchor="middle" x="426" y="-334.8" font-family="Helvetica,sans-Serif" font-size="14.00" fill="#000000">entropy = 0.853</text>
<text text-anchor="middle" x="426" y="-319.8" font-family="Helvetica,sans-Serif" font-size="14.00" fill="#000000">samples = 14.4%</text>
<text text-anchor="middle" x="426" y="-304.8" font-family="Helvetica,sans-Serif" font-size="14.00" fill="#000000">value = [0.722, 0.278]</text>
</g>
<!-- 1&#45;&gt;4 -->
<g id="edge9" class="edge">
<title>1&#45;&gt;4</title>
<path fill="none" stroke="#000000" d="M426,-400.9465C426,-392.776 426,-383.9318 426,-375.3697"/>
<polygon fill="#000000" stroke="#000000" points="429.5001,-375.13 426,-365.13 422.5001,-375.13 429.5001,-375.13"/>
</g>
<!-- 5 -->
<g id="node4" class="node">
<title>5</title>
<path fill="#e58139" fill-opacity="0.988235" stroke="#000000" d="M144,-253.5C144,-253.5 12,-253.5 12,-253.5 6,-253.5 0,-247.5 0,-241.5 0,-241.5 0,-212.5 0,-212.5 0,-206.5 6,-200.5 12,-200.5 12,-200.5 144,-200.5 144,-200.5 150,-200.5 156,-206.5 156,-212.5 156,-212.5 156,-241.5 156,-241.5 156,-247.5 150,-253.5 144,-253.5"/>
<text text-anchor="middle" x="78" y="-238.3" font-family="Helvetica,sans-Serif" font-size="14.00" fill="#000000">entropy = 0.095</text>
<text text-anchor="middle" x="78" y="-223.3" font-family="Helvetica,sans-Serif" font-size="14.00" fill="#000000">samples = 34.3%</text>
<text text-anchor="middle" x="78" y="-208.3" font-family="Helvetica,sans-Serif" font-size="14.00" fill="#000000">value = [0.988, 0.012]</text>
</g>
<!-- 3&#45;&gt;5 -->
<g id="edge3" class="edge">
<title>3&#45;&gt;5</title>
<path fill="none" stroke="#000000" d="M195.0259,-296.9465C174.4778,-284.6649 151.3827,-270.8609 131.1723,-258.7811"/>
<polygon fill="#000000" stroke="#000000" points="132.7864,-255.6684 122.4071,-253.5422 129.195,-261.6769 132.7864,-255.6684"/>
</g>
<!-- 6 -->
<g id="node5" class="node">
<title>6</title>
<path fill="#e58139" fill-opacity="0.866667" stroke="#000000" d="M318,-261C318,-261 186,-261 186,-261 180,-261 174,-255 174,-249 174,-249 174,-205 174,-205 174,-199 180,-193 186,-193 186,-193 318,-193 318,-193 324,-193 330,-199 330,-205 330,-205 330,-249 330,-249 330,-255 324,-261 318,-261"/>
<text text-anchor="middle" x="252" y="-245.8" font-family="Helvetica,sans-Serif" font-size="14.00" fill="#000000">time &lt;= 41.5</text>
<text text-anchor="middle" x="252" y="-230.8" font-family="Helvetica,sans-Serif" font-size="14.00" fill="#000000">entropy = 0.525</text>
<text text-anchor="middle" x="252" y="-215.8" font-family="Helvetica,sans-Serif" font-size="14.00" fill="#000000">samples = 34.5%</text>
<text text-anchor="middle" x="252" y="-200.8" font-family="Helvetica,sans-Serif" font-size="14.00" fill="#000000">value = [0.882, 0.118]</text>
</g>
<!-- 3&#45;&gt;6 -->
<g id="edge4" class="edge">
<title>3&#45;&gt;6</title>
<path fill="none" stroke="#000000" d="M252,-296.9465C252,-288.776 252,-279.9318 252,-271.3697"/>
<polygon fill="#000000" stroke="#000000" points="255.5001,-271.13 252,-261.13 248.5001,-271.13 255.5001,-271.13"/>
</g>
<!-- 11 -->
<g id="node6" class="node">
<title>11</title>
<path fill="#e58139" fill-opacity="0.964706" stroke="#000000" d="M231,-149.5C231,-149.5 99,-149.5 99,-149.5 93,-149.5 87,-143.5 87,-137.5 87,-137.5 87,-108.5 87,-108.5 87,-102.5 93,-96.5 99,-96.5 99,-96.5 231,-96.5 231,-96.5 237,-96.5 243,-102.5 243,-108.5 243,-108.5 243,-137.5 243,-137.5 243,-143.5 237,-149.5 231,-149.5"/>
<text text-anchor="middle" x="165" y="-134.3" font-family="Helvetica,sans-Serif" font-size="14.00" fill="#000000">entropy = 0.209</text>
<text text-anchor="middle" x="165" y="-119.3" font-family="Helvetica,sans-Serif" font-size="14.00" fill="#000000">samples = 11.1%</text>
<text text-anchor="middle" x="165" y="-104.3" font-family="Helvetica,sans-Serif" font-size="14.00" fill="#000000">value = [0.967, 0.033]</text>
</g>
<!-- 6&#45;&gt;11 -->
<g id="edge5" class="edge">
<title>6&#45;&gt;11</title>
<path fill="none" stroke="#000000" d="M223.5129,-192.9465C213.93,-181.491 203.239,-168.711 193.6441,-157.2412"/>
<polygon fill="#000000" stroke="#000000" points="196.3045,-154.9666 187.2035,-149.5422 190.9354,-159.458 196.3045,-154.9666"/>
</g>
<!-- 12 -->
<g id="node7" class="node">
<title>12</title>
<path fill="#e58139" fill-opacity="0.811765" stroke="#000000" d="M405,-157C405,-157 273,-157 273,-157 267,-157 261,-151 261,-145 261,-145 261,-101 261,-101 261,-95 267,-89 273,-89 273,-89 405,-89 405,-89 411,-89 417,-95 417,-101 417,-101 417,-145 417,-145 417,-151 411,-157 405,-157"/>
<text text-anchor="middle" x="339" y="-141.8" font-family="Helvetica,sans-Serif" font-size="14.00" fill="#000000">totalMethods &lt;= 6.5</text>
<text text-anchor="middle" x="339" y="-126.8" font-family="Helvetica,sans-Serif" font-size="14.00" fill="#000000">entropy = 0.632</text>
<text text-anchor="middle" x="339" y="-111.8" font-family="Helvetica,sans-Serif" font-size="14.00" fill="#000000">samples = 23.4%</text>
<text text-anchor="middle" x="339" y="-96.8" font-family="Helvetica,sans-Serif" font-size="14.00" fill="#000000">value = [0.841, 0.159]</text>
</g>
<!-- 6&#45;&gt;12 -->
<g id="edge6" class="edge">
<title>6&#45;&gt;12</title>
<path fill="none" stroke="#000000" d="M280.4871,-192.9465C287.9979,-183.968 296.1895,-174.1758 304.0005,-164.8385"/>
<polygon fill="#000000" stroke="#000000" points="306.7171,-167.0459 310.4489,-157.13 301.348,-162.5544 306.7171,-167.0459"/>
</g>
<!-- 13 -->
<g id="node8" class="node">
<title>13</title>
<path fill="#e58139" fill-opacity="0.886275" stroke="#000000" d="M318,-53C318,-53 186,-53 186,-53 180,-53 174,-47 174,-41 174,-41 174,-12 174,-12 174,-6 180,0 186,0 186,0 318,0 318,0 324,0 330,-6 330,-12 330,-12 330,-41 330,-41 330,-47 324,-53 318,-53"/>
<text text-anchor="middle" x="252" y="-37.8" font-family="Helvetica,sans-Serif" font-size="14.00" fill="#000000">entropy = 0.472</text>
<text text-anchor="middle" x="252" y="-22.8" font-family="Helvetica,sans-Serif" font-size="14.00" fill="#000000">samples = 15.5%</text>
<text text-anchor="middle" x="252" y="-7.8" font-family="Helvetica,sans-Serif" font-size="14.00" fill="#000000">value = [0.899, 0.101]</text>
</g>
<!-- 12&#45;&gt;13 -->
<g id="edge7" class="edge">
<title>12&#45;&gt;13</title>
<path fill="none" stroke="#000000" d="M308.3271,-88.9777C300.0715,-79.8207 291.1391,-69.9129 282.8728,-60.744"/>
<polygon fill="#000000" stroke="#000000" points="285.4108,-58.3321 276.1152,-53.2485 280.2117,-63.0193 285.4108,-58.3321"/>
</g>
<!-- 14 -->
<g id="node9" class="node">
<title>14</title>
<path fill="#e58139" fill-opacity="0.627451" stroke="#000000" d="M492,-53C492,-53 360,-53 360,-53 354,-53 348,-47 348,-41 348,-41 348,-12 348,-12 348,-6 354,0 360,0 360,0 492,0 492,0 498,0 504,-6 504,-12 504,-12 504,-41 504,-41 504,-47 498,-53 492,-53"/>
<text text-anchor="middle" x="426" y="-37.8" font-family="Helvetica,sans-Serif" font-size="14.00" fill="#000000">entropy = 0.845</text>
<text text-anchor="middle" x="426" y="-22.8" font-family="Helvetica,sans-Serif" font-size="14.00" fill="#000000">samples = 7.9%</text>
<text text-anchor="middle" x="426" y="-7.8" font-family="Helvetica,sans-Serif" font-size="14.00" fill="#000000">value = [0.728, 0.272]</text>
</g>
<!-- 12&#45;&gt;14 -->
<g id="edge8" class="edge">
<title>12&#45;&gt;14</title>
<path fill="none" stroke="#000000" d="M369.6729,-88.9777C377.9285,-79.8207 386.8609,-69.9129 395.1272,-60.744"/>
<polygon fill="#000000" stroke="#000000" points="397.7883,-63.0193 401.8848,-53.2485 392.5892,-58.3321 397.7883,-63.0193"/>
</g>
<!-- 9 -->
<g id="node11" class="node">
<title>9</title>
<path fill="#399de5" fill-opacity="0.239216" stroke="#000000" d="M492,-253.5C492,-253.5 360,-253.5 360,-253.5 354,-253.5 348,-247.5 348,-241.5 348,-241.5 348,-212.5 348,-212.5 348,-206.5 354,-200.5 360,-200.5 360,-200.5 492,-200.5 492,-200.5 498,-200.5 504,-206.5 504,-212.5 504,-212.5 504,-241.5 504,-241.5 504,-247.5 498,-253.5 492,-253.5"/>
<text text-anchor="middle" x="426" y="-238.3" font-family="Helvetica,sans-Serif" font-size="14.00" fill="#000000">entropy = 0.987</text>
<text text-anchor="middle" x="426" y="-223.3" font-family="Helvetica,sans-Serif" font-size="14.00" fill="#000000">samples = 3.1%</text>
<text text-anchor="middle" x="426" y="-208.3" font-family="Helvetica,sans-Serif" font-size="14.00" fill="#000000">value = [0.432, 0.568]</text>
</g>
<!-- 4&#45;&gt;9 -->
<g id="edge10" class="edge">
<title>4&#45;&gt;9</title>
<path fill="none" stroke="#000000" d="M426,-296.9465C426,-286.2621 426,-274.4254 426,-263.5742"/>
<polygon fill="#000000" stroke="#000000" points="429.5001,-263.5421 426,-253.5422 422.5001,-263.5422 429.5001,-263.5421"/>
</g>
<!-- 10 -->
<g id="node12" class="node">
<title>10</title>
<path fill="#e58139" fill-opacity="0.749020" stroke="#000000" d="M638,-253.5C638,-253.5 534,-253.5 534,-253.5 528,-253.5 522,-247.5 522,-241.5 522,-241.5 522,-212.5 522,-212.5 522,-206.5 528,-200.5 534,-200.5 534,-200.5 638,-200.5 638,-200.5 644,-200.5 650,-206.5 650,-212.5 650,-212.5 650,-241.5 650,-241.5 650,-247.5 644,-253.5 638,-253.5"/>
<text text-anchor="middle" x="586" y="-238.3" font-family="Helvetica,sans-Serif" font-size="14.00" fill="#000000">entropy = 0.721</text>
<text text-anchor="middle" x="586" y="-223.3" font-family="Helvetica,sans-Serif" font-size="14.00" fill="#000000">samples = 11.3%</text>
<text text-anchor="middle" x="586" y="-208.3" font-family="Helvetica,sans-Serif" font-size="14.00" fill="#000000">value = [0.8, 0.2]</text>
</g>
<!-- 4&#45;&gt;10 -->
<g id="edge11" class="edge">
<title>4&#45;&gt;10</title>
<path fill="none" stroke="#000000" d="M478.39,-296.9465C497.1153,-284.775 518.141,-271.1084 536.6053,-259.1066"/>
<polygon fill="#000000" stroke="#000000" points="538.6889,-261.9267 545.1659,-253.5422 534.874,-256.0575 538.6889,-261.9267"/>
</g>
<!-- 7 -->
<g id="node14" class="node">
<title>7</title>
<path fill="#e58139" fill-opacity="0.474510" stroke="#000000" d="M666,-357.5C666,-357.5 534,-357.5 534,-357.5 528,-357.5 522,-351.5 522,-345.5 522,-345.5 522,-316.5 522,-316.5 522,-310.5 528,-304.5 534,-304.5 534,-304.5 666,-304.5 666,-304.5 672,-304.5 678,-310.5 678,-316.5 678,-316.5 678,-345.5 678,-345.5 678,-351.5 672,-357.5 666,-357.5"/>
<text text-anchor="middle" x="600" y="-342.3" font-family="Helvetica,sans-Serif" font-size="14.00" fill="#000000">entropy = 0.93</text>
<text text-anchor="middle" x="600" y="-327.3" font-family="Helvetica,sans-Serif" font-size="14.00" fill="#000000">samples = 11.0%</text>
<text text-anchor="middle" x="600" y="-312.3" font-family="Helvetica,sans-Serif" font-size="14.00" fill="#000000">value = [0.655, 0.345]</text>
</g>
<!-- 2&#45;&gt;7 -->
<g id="edge13" class="edge">
<title>2&#45;&gt;7</title>
<path fill="none" stroke="#000000" d="M600,-400.9465C600,-390.2621 600,-378.4254 600,-367.5742"/>
<polygon fill="#000000" stroke="#000000" points="603.5001,-367.5421 600,-357.5422 596.5001,-367.5422 603.5001,-367.5421"/>
</g>
<!-- 8 -->
<g id="node15" class="node">
<title>8</title>
<path fill="#399de5" fill-opacity="0.568627" stroke="#000000" d="M840,-357.5C840,-357.5 708,-357.5 708,-357.5 702,-357.5 696,-351.5 696,-345.5 696,-345.5 696,-316.5 696,-316.5 696,-310.5 702,-304.5 708,-304.5 708,-304.5 840,-304.5 840,-304.5 846,-304.5 852,-310.5 852,-316.5 852,-316.5 852,-345.5 852,-345.5 852,-351.5 846,-357.5 840,-357.5"/>
<text text-anchor="middle" x="774" y="-342.3" font-family="Helvetica,sans-Serif" font-size="14.00" fill="#000000">entropy = 0.883</text>
<text text-anchor="middle" x="774" y="-327.3" font-family="Helvetica,sans-Serif" font-size="14.00" fill="#000000">samples = 5.8%</text>
<text text-anchor="middle" x="774" y="-312.3" font-family="Helvetica,sans-Serif" font-size="14.00" fill="#000000">value = [0.302, 0.698]</text>
</g>
<!-- 2&#45;&gt;8 -->
<g id="edge14" class="edge">
<title>2&#45;&gt;8</title>
<path fill="none" stroke="#000000" d="M656.9741,-400.9465C677.5222,-388.6649 700.6173,-374.8609 720.8277,-362.7811"/>
<polygon fill="#000000" stroke="#000000" points="722.805,-365.6769 729.5929,-357.5422 719.2136,-359.6684 722.805,-365.6769"/>
</g>
</g>
</svg>
