<?xml version="1.0" encoding="UTF-8" standalone="no"?>
<!DOCTYPE svg PUBLIC "-//W3C//DTD SVG 1.1//EN"
 "http://www.w3.org/Graphics/SVG/1.1/DTD/svg11.dtd">
<!-- Generated by graphviz version 2.40.1 (20161225.0304)
 -->
<!-- Title: Tree Pages: 1 -->
<svg width="863pt" height="477pt"
 viewBox="0.00 0.00 863.00 477.00" xmlns="http://www.w3.org/2000/svg" xmlns:xlink="http://www.w3.org/1999/xlink">
<g id="graph0" class="graph" transform="scale(1 1) rotate(0) translate(4 473)">
<title>Tree</title>
<polygon fill="#ffffff" stroke="transparent" points="-4,4 -4,-473 859,-473 859,4 -4,4"/>
<!-- 0 -->
<g id="node1" class="node">
<title>0</title>
<path fill="#e58139" fill-opacity="0.749020" stroke="#000000" d="M578,-469C578,-469 446,-469 446,-469 440,-469 434,-463 434,-457 434,-457 434,-413 434,-413 434,-407 440,-401 446,-401 446,-401 578,-401 578,-401 584,-401 590,-407 590,-413 590,-413 590,-457 590,-457 590,-463 584,-469 578,-469"/>
<text text-anchor="middle" x="512" y="-453.8" font-family="Helvetica,sans-Serif" font-size="14.00" fill="#000000">fractal&#45;value &lt;= 0.1</text>
<text text-anchor="middle" x="512" y="-438.8" font-family="Helvetica,sans-Serif" font-size="14.00" fill="#000000">entropy = 0.725</text>
<text text-anchor="middle" x="512" y="-423.8" font-family="Helvetica,sans-Serif" font-size="14.00" fill="#000000">samples = 100.0%</text>
<text text-anchor="middle" x="512" y="-408.8" font-family="Helvetica,sans-Serif" font-size="14.00" fill="#000000">value = [0.799, 0.201]</text>
</g>
<!-- 1 -->
<g id="node2" class="node">
<title>1</title>
<path fill="#e58139" fill-opacity="0.898039" stroke="#000000" d="M494,-365C494,-365 344,-365 344,-365 338,-365 332,-359 332,-353 332,-353 332,-309 332,-309 332,-303 338,-297 344,-297 344,-297 494,-297 494,-297 500,-297 506,-303 506,-309 506,-309 506,-353 506,-353 506,-359 500,-365 494,-365"/>
<text text-anchor="middle" x="419" y="-349.8" font-family="Helvetica,sans-Serif" font-size="14.00" fill="#000000">assignmentsQty &lt;= 15.5</text>
<text text-anchor="middle" x="419" y="-334.8" font-family="Helvetica,sans-Serif" font-size="14.00" fill="#000000">entropy = 0.448</text>
<text text-anchor="middle" x="419" y="-319.8" font-family="Helvetica,sans-Serif" font-size="14.00" fill="#000000">samples = 70.2%</text>
<text text-anchor="middle" x="419" y="-304.8" font-family="Helvetica,sans-Serif" font-size="14.00" fill="#000000">value = [0.906, 0.094]</text>
</g>
<!-- 0&#45;&gt;1 -->
<g id="edge1" class="edge">
<title>0&#45;&gt;1</title>
<path fill="none" stroke="#000000" d="M481.5483,-400.9465C473.5194,-391.968 464.763,-382.1758 456.4133,-372.8385"/>
<polygon fill="#000000" stroke="#000000" points="458.795,-370.2512 449.5201,-365.13 453.577,-374.9174 458.795,-370.2512"/>
<text text-anchor="middle" x="448.1263" y="-386.3911" font-family="Helvetica,sans-Serif" font-size="14.00" fill="#000000">True</text>
</g>
<!-- 2 -->
<g id="node11" class="node">
<title>2</title>
<path fill="#e58139" fill-opacity="0.164706" stroke="#000000" d="M676,-365C676,-365 536,-365 536,-365 530,-365 524,-359 524,-353 524,-353 524,-309 524,-309 524,-303 530,-297 536,-297 536,-297 676,-297 676,-297 682,-297 688,-303 688,-309 688,-309 688,-353 688,-353 688,-359 682,-365 676,-365"/>
<text text-anchor="middle" x="606" y="-349.8" font-family="Helvetica,sans-Serif" font-size="14.00" fill="#000000">publicMethods &lt;= 49.5</text>
<text text-anchor="middle" x="606" y="-334.8" font-family="Helvetica,sans-Serif" font-size="14.00" fill="#000000">entropy = 0.994</text>
<text text-anchor="middle" x="606" y="-319.8" font-family="Helvetica,sans-Serif" font-size="14.00" fill="#000000">samples = 29.8%</text>
<text text-anchor="middle" x="606" y="-304.8" font-family="Helvetica,sans-Serif" font-size="14.00" fill="#000000">value = [0.545, 0.455]</text>
</g>
<!-- 0&#45;&gt;2 -->
<g id="edge10" class="edge">
<title>0&#45;&gt;2</title>
<path fill="none" stroke="#000000" d="M542.7791,-400.9465C550.9755,-391.8782 559.922,-381.9799 568.4375,-372.5585"/>
<polygon fill="#000000" stroke="#000000" points="571.0429,-374.8957 575.1517,-365.13 565.8497,-370.2019 571.0429,-374.8957"/>
<text text-anchor="middle" x="576.4128" y="-386.3982" font-family="Helvetica,sans-Serif" font-size="14.00" fill="#000000">False</text>
</g>
<!-- 3 -->
<g id="node3" class="node">
<title>3</title>
<path fill="#e58139" fill-opacity="0.984314" stroke="#000000" d="M315,-253.5C315,-253.5 183,-253.5 183,-253.5 177,-253.5 171,-247.5 171,-241.5 171,-241.5 171,-212.5 171,-212.5 171,-206.5 177,-200.5 183,-200.5 183,-200.5 315,-200.5 315,-200.5 321,-200.5 327,-206.5 327,-212.5 327,-212.5 327,-241.5 327,-241.5 327,-247.5 321,-253.5 315,-253.5"/>
<text text-anchor="middle" x="249" y="-238.3" font-family="Helvetica,sans-Serif" font-size="14.00" fill="#000000">entropy = 0.124</text>
<text text-anchor="middle" x="249" y="-223.3" font-family="Helvetica,sans-Serif" font-size="14.00" fill="#000000">samples = 29.5%</text>
<text text-anchor="middle" x="249" y="-208.3" font-family="Helvetica,sans-Serif" font-size="14.00" fill="#000000">value = [0.983, 0.017]</text>
</g>
<!-- 1&#45;&gt;3 -->
<g id="edge2" class="edge">
<title>1&#45;&gt;3</title>
<path fill="none" stroke="#000000" d="M363.3356,-296.9465C343.2599,-284.6649 320.6957,-270.8609 300.9499,-258.7811"/>
<polygon fill="#000000" stroke="#000000" points="302.7431,-255.7751 292.3862,-253.5422 299.0901,-261.7464 302.7431,-255.7751"/>
</g>
<!-- 4 -->
<g id="node4" class="node">
<title>4</title>
<path fill="#e58139" fill-opacity="0.823529" stroke="#000000" d="M489,-261C489,-261 357,-261 357,-261 351,-261 345,-255 345,-249 345,-249 345,-205 345,-205 345,-199 351,-193 357,-193 357,-193 489,-193 489,-193 495,-193 501,-199 501,-205 501,-205 501,-249 501,-249 501,-255 495,-261 489,-261"/>
<text text-anchor="middle" x="423" y="-245.8" font-family="Helvetica,sans-Serif" font-size="14.00" fill="#000000">soc &lt;= 65.0</text>
<text text-anchor="middle" x="423" y="-230.8" font-family="Helvetica,sans-Serif" font-size="14.00" fill="#000000">entropy = 0.607</text>
<text text-anchor="middle" x="423" y="-215.8" font-family="Helvetica,sans-Serif" font-size="14.00" fill="#000000">samples = 40.8%</text>
<text text-anchor="middle" x="423" y="-200.8" font-family="Helvetica,sans-Serif" font-size="14.00" fill="#000000">value = [0.851, 0.149]</text>
</g>
<!-- 1&#45;&gt;4 -->
<g id="edge3" class="edge">
<title>1&#45;&gt;4</title>
<path fill="none" stroke="#000000" d="M420.3097,-296.9465C420.624,-288.776 420.9642,-279.9318 421.2935,-271.3697"/>
<polygon fill="#000000" stroke="#000000" points="424.8003,-271.2572 421.6873,-261.13 417.8055,-270.9881 424.8003,-271.2572"/>
</g>
<!-- 7 -->
<g id="node5" class="node">
<title>7</title>
<path fill="#e58139" fill-opacity="0.882353" stroke="#000000" d="M318,-157C318,-157 186,-157 186,-157 180,-157 174,-151 174,-145 174,-145 174,-101 174,-101 174,-95 180,-89 186,-89 186,-89 318,-89 318,-89 324,-89 330,-95 330,-101 330,-101 330,-145 330,-145 330,-151 324,-157 318,-157"/>
<text text-anchor="middle" x="252" y="-141.8" font-family="Helvetica,sans-Serif" font-size="14.00" fill="#000000">time &lt;= 38.5</text>
<text text-anchor="middle" x="252" y="-126.8" font-family="Helvetica,sans-Serif" font-size="14.00" fill="#000000">entropy = 0.488</text>
<text text-anchor="middle" x="252" y="-111.8" font-family="Helvetica,sans-Serif" font-size="14.00" fill="#000000">samples = 34.5%</text>
<text text-anchor="middle" x="252" y="-96.8" font-family="Helvetica,sans-Serif" font-size="14.00" fill="#000000">value = [0.894, 0.106]</text>
</g>
<!-- 4&#45;&gt;7 -->
<g id="edge4" class="edge">
<title>4&#45;&gt;7</title>
<path fill="none" stroke="#000000" d="M367.0082,-192.9465C350.9168,-183.1599 333.2359,-172.4066 316.6666,-162.3294"/>
<polygon fill="#000000" stroke="#000000" points="318.4802,-159.336 308.1176,-157.13 314.8428,-165.3167 318.4802,-159.336"/>
</g>
<!-- 8 -->
<g id="node8" class="node">
<title>8</title>
<path fill="#e58139" fill-opacity="0.368627" stroke="#000000" d="M492,-157C492,-157 360,-157 360,-157 354,-157 348,-151 348,-145 348,-145 348,-101 348,-101 348,-95 354,-89 360,-89 360,-89 492,-89 492,-89 498,-89 504,-95 504,-101 504,-101 504,-145 504,-145 504,-151 498,-157 492,-157"/>
<text text-anchor="middle" x="426" y="-141.8" font-family="Helvetica,sans-Serif" font-size="14.00" fill="#000000">age&#45;months &lt;= 10.5</text>
<text text-anchor="middle" x="426" y="-126.8" font-family="Helvetica,sans-Serif" font-size="14.00" fill="#000000">entropy = 0.963</text>
<text text-anchor="middle" x="426" y="-111.8" font-family="Helvetica,sans-Serif" font-size="14.00" fill="#000000">samples = 6.2%</text>
<text text-anchor="middle" x="426" y="-96.8" font-family="Helvetica,sans-Serif" font-size="14.00" fill="#000000">value = [0.613, 0.387]</text>
</g>
<!-- 4&#45;&gt;8 -->
<g id="edge7" class="edge">
<title>4&#45;&gt;8</title>
<path fill="none" stroke="#000000" d="M423.9823,-192.9465C424.218,-184.776 424.4731,-175.9318 424.7201,-167.3697"/>
<polygon fill="#000000" stroke="#000000" points="428.2256,-167.2268 425.0155,-157.13 421.2285,-167.0249 428.2256,-167.2268"/>
</g>
<!-- 9 -->
<g id="node6" class="node">
<title>9</title>
<path fill="#e58139" fill-opacity="0.803922" stroke="#000000" d="M144,-53C144,-53 12,-53 12,-53 6,-53 0,-47 0,-41 0,-41 0,-12 0,-12 0,-6 6,0 12,0 12,0 144,0 144,0 150,0 156,-6 156,-12 156,-12 156,-41 156,-41 156,-47 150,-53 144,-53"/>
<text text-anchor="middle" x="78" y="-37.8" font-family="Helvetica,sans-Serif" font-size="14.00" fill="#000000">entropy = 0.642</text>
<text text-anchor="middle" x="78" y="-22.8" font-family="Helvetica,sans-Serif" font-size="14.00" fill="#000000">samples = 21.4%</text>
<text text-anchor="middle" x="78" y="-7.8" font-family="Helvetica,sans-Serif" font-size="14.00" fill="#000000">value = [0.837, 0.163]</text>
</g>
<!-- 7&#45;&gt;9 -->
<g id="edge5" class="edge">
<title>7&#45;&gt;9</title>
<path fill="none" stroke="#000000" d="M190.6541,-88.9777C172.5738,-78.9504 152.87,-68.0228 135.0699,-58.1508"/>
<polygon fill="#000000" stroke="#000000" points="136.3964,-54.8843 125.9537,-53.095 133.0013,-61.0059 136.3964,-54.8843"/>
</g>
<!-- 10 -->
<g id="node7" class="node">
<title>10</title>
<path fill="#e58139" fill-opacity="0.988235" stroke="#000000" d="M318,-53C318,-53 186,-53 186,-53 180,-53 174,-47 174,-41 174,-41 174,-12 174,-12 174,-6 180,0 186,0 186,0 318,0 318,0 324,0 330,-6 330,-12 330,-12 330,-41 330,-41 330,-47 324,-53 318,-53"/>
<text text-anchor="middle" x="252" y="-37.8" font-family="Helvetica,sans-Serif" font-size="14.00" fill="#000000">entropy = 0.098</text>
<text text-anchor="middle" x="252" y="-22.8" font-family="Helvetica,sans-Serif" font-size="14.00" fill="#000000">samples = 13.1%</text>
<text text-anchor="middle" x="252" y="-7.8" font-family="Helvetica,sans-Serif" font-size="14.00" fill="#000000">value = [0.987, 0.013]</text>
</g>
<!-- 7&#45;&gt;10 -->
<g id="edge6" class="edge">
<title>7&#45;&gt;10</title>
<path fill="none" stroke="#000000" d="M252,-88.9777C252,-80.7364 252,-71.887 252,-63.5153"/>
<polygon fill="#000000" stroke="#000000" points="255.5001,-63.2484 252,-53.2485 248.5001,-63.2485 255.5001,-63.2484"/>
</g>
<!-- 13 -->
<g id="node9" class="node">
<title>13</title>
<path fill="#399de5" fill-opacity="0.686275" stroke="#000000" d="M492,-53C492,-53 360,-53 360,-53 354,-53 348,-47 348,-41 348,-41 348,-12 348,-12 348,-6 354,0 360,0 360,0 492,0 492,0 498,0 504,-6 504,-12 504,-12 504,-41 504,-41 504,-47 498,-53 492,-53"/>
<text text-anchor="middle" x="426" y="-37.8" font-family="Helvetica,sans-Serif" font-size="14.00" fill="#000000">entropy = 0.792</text>
<text text-anchor="middle" x="426" y="-22.8" font-family="Helvetica,sans-Serif" font-size="14.00" fill="#000000">samples = 1.7%</text>
<text text-anchor="middle" x="426" y="-7.8" font-family="Helvetica,sans-Serif" font-size="14.00" fill="#000000">value = [0.238, 0.762]</text>
</g>
<!-- 8&#45;&gt;13 -->
<g id="edge8" class="edge">
<title>8&#45;&gt;13</title>
<path fill="none" stroke="#000000" d="M426,-88.9777C426,-80.7364 426,-71.887 426,-63.5153"/>
<polygon fill="#000000" stroke="#000000" points="429.5001,-63.2484 426,-53.2485 422.5001,-63.2485 429.5001,-63.2484"/>
</g>
<!-- 14 -->
<g id="node10" class="node">
<title>14</title>
<path fill="#e58139" fill-opacity="0.682353" stroke="#000000" d="M666,-53C666,-53 534,-53 534,-53 528,-53 522,-47 522,-41 522,-41 522,-12 522,-12 522,-6 528,0 534,0 534,0 666,0 666,0 672,0 678,-6 678,-12 678,-12 678,-41 678,-41 678,-47 672,-53 666,-53"/>
<text text-anchor="middle" x="600" y="-37.8" font-family="Helvetica,sans-Serif" font-size="14.00" fill="#000000">entropy = 0.796</text>
<text text-anchor="middle" x="600" y="-22.8" font-family="Helvetica,sans-Serif" font-size="14.00" fill="#000000">samples = 4.5%</text>
<text text-anchor="middle" x="600" y="-7.8" font-family="Helvetica,sans-Serif" font-size="14.00" fill="#000000">value = [0.759, 0.241]</text>
</g>
<!-- 8&#45;&gt;14 -->
<g id="edge9" class="edge">
<title>8&#45;&gt;14</title>
<path fill="none" stroke="#000000" d="M487.3459,-88.9777C505.4262,-78.9504 525.13,-68.0228 542.9301,-58.1508"/>
<polygon fill="#000000" stroke="#000000" points="544.9987,-61.0059 552.0463,-53.095 541.6036,-54.8843 544.9987,-61.0059"/>
</g>
<!-- 5 -->
<g id="node12" class="node">
<title>5</title>
<path fill="#e58139" fill-opacity="0.427451" stroke="#000000" d="M669,-261C669,-261 537,-261 537,-261 531,-261 525,-255 525,-249 525,-249 525,-205 525,-205 525,-199 531,-193 537,-193 537,-193 669,-193 669,-193 675,-193 681,-199 681,-205 681,-205 681,-249 681,-249 681,-255 675,-261 669,-261"/>
<text text-anchor="middle" x="603" y="-245.8" font-family="Helvetica,sans-Serif" font-size="14.00" fill="#000000">time &lt;= 41.5</text>
<text text-anchor="middle" x="603" y="-230.8" font-family="Helvetica,sans-Serif" font-size="14.00" fill="#000000">entropy = 0.946</text>
<text text-anchor="middle" x="603" y="-215.8" font-family="Helvetica,sans-Serif" font-size="14.00" fill="#000000">samples = 22.1%</text>
<text text-anchor="middle" x="603" y="-200.8" font-family="Helvetica,sans-Serif" font-size="14.00" fill="#000000">value = [0.635, 0.365]</text>
</g>
<!-- 2&#45;&gt;5 -->
<g id="edge11" class="edge">
<title>2&#45;&gt;5</title>
<path fill="none" stroke="#000000" d="M605.0177,-296.9465C604.782,-288.776 604.5269,-279.9318 604.2799,-271.3697"/>
<polygon fill="#000000" stroke="#000000" points="607.7715,-271.0249 603.9845,-261.13 600.7744,-271.2268 607.7715,-271.0249"/>
</g>
<!-- 6 -->
<g id="node15" class="node">
<title>6</title>
<path fill="#399de5" fill-opacity="0.607843" stroke="#000000" d="M843,-253.5C843,-253.5 711,-253.5 711,-253.5 705,-253.5 699,-247.5 699,-241.5 699,-241.5 699,-212.5 699,-212.5 699,-206.5 705,-200.5 711,-200.5 711,-200.5 843,-200.5 843,-200.5 849,-200.5 855,-206.5 855,-212.5 855,-212.5 855,-241.5 855,-241.5 855,-247.5 849,-253.5 843,-253.5"/>
<text text-anchor="middle" x="777" y="-238.3" font-family="Helvetica,sans-Serif" font-size="14.00" fill="#000000">entropy = 0.859</text>
<text text-anchor="middle" x="777" y="-223.3" font-family="Helvetica,sans-Serif" font-size="14.00" fill="#000000">samples = 7.7%</text>
<text text-anchor="middle" x="777" y="-208.3" font-family="Helvetica,sans-Serif" font-size="14.00" fill="#000000">value = [0.283, 0.717]</text>
</g>
<!-- 2&#45;&gt;6 -->
<g id="edge14" class="edge">
<title>2&#45;&gt;6</title>
<path fill="none" stroke="#000000" d="M661.9918,-296.9465C682.1856,-284.6649 704.8826,-270.8609 724.7445,-258.7811"/>
<polygon fill="#000000" stroke="#000000" points="726.6333,-261.7289 733.3586,-253.5422 722.9959,-255.7481 726.6333,-261.7289"/>
</g>
<!-- 11 -->
<g id="node13" class="node">
<title>11</title>
<path fill="#e58139" fill-opacity="0.247059" stroke="#000000" d="M667,-149.5C667,-149.5 535,-149.5 535,-149.5 529,-149.5 523,-143.5 523,-137.5 523,-137.5 523,-108.5 523,-108.5 523,-102.5 529,-96.5 535,-96.5 535,-96.5 667,-96.5 667,-96.5 673,-96.5 679,-102.5 679,-108.5 679,-108.5 679,-137.5 679,-137.5 679,-143.5 673,-149.5 667,-149.5"/>
<text text-anchor="middle" x="601" y="-134.3" font-family="Helvetica,sans-Serif" font-size="14.00" fill="#000000">entropy = 0.986</text>
<text text-anchor="middle" x="601" y="-119.3" font-family="Helvetica,sans-Serif" font-size="14.00" fill="#000000">samples = 17.6%</text>
<text text-anchor="middle" x="601" y="-104.3" font-family="Helvetica,sans-Serif" font-size="14.00" fill="#000000">value = [0.571, 0.429]</text>
</g>
<!-- 5&#45;&gt;11 -->
<g id="edge12" class="edge">
<title>5&#45;&gt;11</title>
<path fill="none" stroke="#000000" d="M602.3451,-192.9465C602.1397,-182.2621 601.912,-170.4254 601.7034,-159.5742"/>
<polygon fill="#000000" stroke="#000000" points="605.2021,-159.473 601.5104,-149.5422 598.2034,-159.6076 605.2021,-159.473"/>
</g>
<!-- 12 -->
<g id="node14" class="node">
<title>12</title>
<path fill="#e58139" fill-opacity="0.874510" stroke="#000000" d="M841,-149.5C841,-149.5 709,-149.5 709,-149.5 703,-149.5 697,-143.5 697,-137.5 697,-137.5 697,-108.5 697,-108.5 697,-102.5 703,-96.5 709,-96.5 709,-96.5 841,-96.5 841,-96.5 847,-96.5 853,-102.5 853,-108.5 853,-108.5 853,-137.5 853,-137.5 853,-143.5 847,-149.5 841,-149.5"/>
<text text-anchor="middle" x="775" y="-134.3" font-family="Helvetica,sans-Serif" font-size="14.00" fill="#000000">entropy = 0.503</text>
<text text-anchor="middle" x="775" y="-119.3" font-family="Helvetica,sans-Serif" font-size="14.00" fill="#000000">samples = 4.5%</text>
<text text-anchor="middle" x="775" y="-104.3" font-family="Helvetica,sans-Serif" font-size="14.00" fill="#000000">value = [0.889, 0.111]</text>
</g>
<!-- 5&#45;&gt;12 -->
<g id="edge13" class="edge">
<title>5&#45;&gt;12</title>
<path fill="none" stroke="#000000" d="M659.3192,-192.9465C679.6311,-180.6649 702.4608,-166.8609 722.4389,-154.7811"/>
<polygon fill="#000000" stroke="#000000" points="724.357,-157.7115 731.1033,-149.5422 720.735,-151.7213 724.357,-157.7115"/>
</g>
</g>
</svg>
