<?xml version="1.0" encoding="UTF-8" standalone="no"?>
<!DOCTYPE svg PUBLIC "-//W3C//DTD SVG 1.1//EN"
 "http://www.w3.org/Graphics/SVG/1.1/DTD/svg11.dtd">
<!-- Generated by graphviz version 2.40.1 (20161225.0304)
 -->
<!-- Title: Tree Pages: 1 -->
<svg width="1126pt" height="373pt"
 viewBox="0.00 0.00 1125.50 373.00" xmlns="http://www.w3.org/2000/svg" xmlns:xlink="http://www.w3.org/1999/xlink">
<g id="graph0" class="graph" transform="scale(1 1) rotate(0) translate(4 369)">
<title>Tree</title>
<polygon fill="#ffffff" stroke="transparent" points="-4,4 -4,-369 1121.5,-369 1121.5,4 -4,4"/>
<!-- 0 -->
<g id="node1" class="node">
<title>0</title>
<path fill="#e58139" fill-opacity="0.117647" stroke="#000000" d="M607.5,-365C607.5,-365 494.5,-365 494.5,-365 488.5,-365 482.5,-359 482.5,-353 482.5,-353 482.5,-309 482.5,-309 482.5,-303 488.5,-297 494.5,-297 494.5,-297 607.5,-297 607.5,-297 613.5,-297 619.5,-303 619.5,-309 619.5,-309 619.5,-353 619.5,-353 619.5,-359 613.5,-365 607.5,-365"/>
<text text-anchor="middle" x="551" y="-349.8" font-family="Helvetica,sans-Serif" font-size="14.00" fill="#000000">loc &lt;= 812.0</text>
<text text-anchor="middle" x="551" y="-334.8" font-family="Helvetica,sans-Serif" font-size="14.00" fill="#000000">mse = 5322.321</text>
<text text-anchor="middle" x="551" y="-319.8" font-family="Helvetica,sans-Serif" font-size="14.00" fill="#000000">samples = 100.0%</text>
<text text-anchor="middle" x="551" y="-304.8" font-family="Helvetica,sans-Serif" font-size="14.00" fill="#000000">value = 56.103</text>
</g>
<!-- 1 -->
<g id="node2" class="node">
<title>1</title>
<path fill="#e58139" fill-opacity="0.054902" stroke="#000000" d="M508,-261C508,-261 404,-261 404,-261 398,-261 392,-255 392,-249 392,-249 392,-205 392,-205 392,-199 398,-193 404,-193 404,-193 508,-193 508,-193 514,-193 520,-199 520,-205 520,-205 520,-249 520,-249 520,-255 514,-261 508,-261"/>
<text text-anchor="middle" x="456" y="-245.8" font-family="Helvetica,sans-Serif" font-size="14.00" fill="#000000">loc &lt;= 359.0</text>
<text text-anchor="middle" x="456" y="-230.8" font-family="Helvetica,sans-Serif" font-size="14.00" fill="#000000">mse = 1021.005</text>
<text text-anchor="middle" x="456" y="-215.8" font-family="Helvetica,sans-Serif" font-size="14.00" fill="#000000">samples = 85.6%</text>
<text text-anchor="middle" x="456" y="-200.8" font-family="Helvetica,sans-Serif" font-size="14.00" fill="#000000">value = 32.957</text>
</g>
<!-- 0&#45;&gt;1 -->
<g id="edge1" class="edge">
<title>0&#45;&gt;1</title>
<path fill="none" stroke="#000000" d="M519.8934,-296.9465C511.6099,-287.8782 502.5682,-277.9799 493.9621,-268.5585"/>
<polygon fill="#000000" stroke="#000000" points="496.505,-266.1528 487.1764,-261.13 491.3367,-270.8739 496.505,-266.1528"/>
<text text-anchor="middle" x="486.0469" y="-282.4045" font-family="Helvetica,sans-Serif" font-size="14.00" fill="#000000">True</text>
</g>
<!-- 2 -->
<g id="node9" class="node">
<title>2</title>
<path fill="#e58139" fill-opacity="0.474510" stroke="#000000" d="M732,-261C732,-261 628,-261 628,-261 622,-261 616,-255 616,-249 616,-249 616,-205 616,-205 616,-199 622,-193 628,-193 628,-193 732,-193 732,-193 738,-193 744,-199 744,-205 744,-205 744,-249 744,-249 744,-255 738,-261 732,-261"/>
<text text-anchor="middle" x="680" y="-245.8" font-family="Helvetica,sans-Serif" font-size="14.00" fill="#000000">loc &lt;= 1585.0</text>
<text text-anchor="middle" x="680" y="-230.8" font-family="Helvetica,sans-Serif" font-size="14.00" fill="#000000">mse = 8721.239</text>
<text text-anchor="middle" x="680" y="-215.8" font-family="Helvetica,sans-Serif" font-size="14.00" fill="#000000">samples = 14.4%</text>
<text text-anchor="middle" x="680" y="-200.8" font-family="Helvetica,sans-Serif" font-size="14.00" fill="#000000">value = 194.174</text>
</g>
<!-- 0&#45;&gt;2 -->
<g id="edge8" class="edge">
<title>0&#45;&gt;2</title>
<path fill="none" stroke="#000000" d="M593.2394,-296.9465C604.9331,-287.519 617.7394,-277.1946 629.837,-267.4415"/>
<polygon fill="#000000" stroke="#000000" points="632.0773,-270.1312 637.6657,-261.13 627.6838,-264.6816 632.0773,-270.1312"/>
<text text-anchor="middle" x="634.9986" y="-282.2873" font-family="Helvetica,sans-Serif" font-size="14.00" fill="#000000">False</text>
</g>
<!-- 5 -->
<g id="node3" class="node">
<title>5</title>
<path fill="#e58139" fill-opacity="0.027451" stroke="#000000" d="M262,-157C262,-157 158,-157 158,-157 152,-157 146,-151 146,-145 146,-145 146,-101 146,-101 146,-95 152,-89 158,-89 158,-89 262,-89 262,-89 268,-89 274,-95 274,-101 274,-101 274,-145 274,-145 274,-151 268,-157 262,-157"/>
<text text-anchor="middle" x="210" y="-141.8" font-family="Helvetica,sans-Serif" font-size="14.00" fill="#000000">loc &lt;= 152.5</text>
<text text-anchor="middle" x="210" y="-126.8" font-family="Helvetica,sans-Serif" font-size="14.00" fill="#000000">mse = 303.083</text>
<text text-anchor="middle" x="210" y="-111.8" font-family="Helvetica,sans-Serif" font-size="14.00" fill="#000000">samples = 70.3%</text>
<text text-anchor="middle" x="210" y="-96.8" font-family="Helvetica,sans-Serif" font-size="14.00" fill="#000000">value = 21.441</text>
</g>
<!-- 1&#45;&gt;5 -->
<g id="edge2" class="edge">
<title>1&#45;&gt;5</title>
<path fill="none" stroke="#000000" d="M391.6877,-199.8111C358.6361,-185.838 318.1998,-168.743 283.8726,-154.2307"/>
<polygon fill="#000000" stroke="#000000" points="284.9373,-150.8809 274.3637,-150.2107 282.2115,-157.3284 284.9373,-150.8809"/>
</g>
<!-- 6 -->
<g id="node6" class="node">
<title>6</title>
<path fill="#e58139" fill-opacity="0.192157" stroke="#000000" d="M531.5,-157C531.5,-157 380.5,-157 380.5,-157 374.5,-157 368.5,-151 368.5,-145 368.5,-145 368.5,-101 368.5,-101 368.5,-95 374.5,-89 380.5,-89 380.5,-89 531.5,-89 531.5,-89 537.5,-89 543.5,-95 543.5,-101 543.5,-101 543.5,-145 543.5,-145 543.5,-151 537.5,-157 531.5,-157"/>
<text text-anchor="middle" x="456" y="-141.8" font-family="Helvetica,sans-Serif" font-size="14.00" fill="#000000">comparisonsQty &lt;= 26.5</text>
<text text-anchor="middle" x="456" y="-126.8" font-family="Helvetica,sans-Serif" font-size="14.00" fill="#000000">mse = 921.808</text>
<text text-anchor="middle" x="456" y="-111.8" font-family="Helvetica,sans-Serif" font-size="14.00" fill="#000000">samples = 15.4%</text>
<text text-anchor="middle" x="456" y="-96.8" font-family="Helvetica,sans-Serif" font-size="14.00" fill="#000000">value = 85.667</text>
</g>
<!-- 1&#45;&gt;6 -->
<g id="edge5" class="edge">
<title>1&#45;&gt;6</title>
<path fill="none" stroke="#000000" d="M456,-192.9465C456,-184.776 456,-175.9318 456,-167.3697"/>
<polygon fill="#000000" stroke="#000000" points="459.5001,-167.13 456,-157.13 452.5001,-167.13 459.5001,-167.13"/>
</g>
<!-- 9 -->
<g id="node4" class="node">
<title>9</title>
<path fill="transparent" stroke="#000000" d="M116,-53C116,-53 12,-53 12,-53 6,-53 0,-47 0,-41 0,-41 0,-12 0,-12 0,-6 6,0 12,0 12,0 116,0 116,0 122,0 128,-6 128,-12 128,-12 128,-41 128,-41 128,-47 122,-53 116,-53"/>
<text text-anchor="middle" x="64" y="-37.8" font-family="Helvetica,sans-Serif" font-size="14.00" fill="#000000">mse = 60.69</text>
<text text-anchor="middle" x="64" y="-22.8" font-family="Helvetica,sans-Serif" font-size="14.00" fill="#000000">samples = 44.8%</text>
<text text-anchor="middle" x="64" y="-7.8" font-family="Helvetica,sans-Serif" font-size="14.00" fill="#000000">value = 11.389</text>
</g>
<!-- 5&#45;&gt;9 -->
<g id="edge3" class="edge">
<title>5&#45;&gt;9</title>
<path fill="none" stroke="#000000" d="M158.5259,-88.9777C143.702,-79.1798 127.5776,-68.5222 112.9135,-58.8298"/>
<polygon fill="#000000" stroke="#000000" points="114.7415,-55.8427 104.4692,-53.2485 110.8817,-61.6824 114.7415,-55.8427"/>
</g>
<!-- 10 -->
<g id="node5" class="node">
<title>10</title>
<path fill="#e58139" fill-opacity="0.070588" stroke="#000000" d="M262,-53C262,-53 158,-53 158,-53 152,-53 146,-47 146,-41 146,-41 146,-12 146,-12 146,-6 152,0 158,0 158,0 262,0 262,0 268,0 274,-6 274,-12 274,-12 274,-41 274,-41 274,-47 268,-53 262,-53"/>
<text text-anchor="middle" x="210" y="-37.8" font-family="Helvetica,sans-Serif" font-size="14.00" fill="#000000">mse = 240.328</text>
<text text-anchor="middle" x="210" y="-22.8" font-family="Helvetica,sans-Serif" font-size="14.00" fill="#000000">samples = 25.5%</text>
<text text-anchor="middle" x="210" y="-7.8" font-family="Helvetica,sans-Serif" font-size="14.00" fill="#000000">value = 39.064</text>
</g>
<!-- 5&#45;&gt;10 -->
<g id="edge4" class="edge">
<title>5&#45;&gt;10</title>
<path fill="none" stroke="#000000" d="M210,-88.9777C210,-80.7364 210,-71.887 210,-63.5153"/>
<polygon fill="#000000" stroke="#000000" points="213.5001,-63.2484 210,-53.2485 206.5001,-63.2485 213.5001,-63.2484"/>
</g>
<!-- 11 -->
<g id="node7" class="node">
<title>11</title>
<path fill="#e58139" fill-opacity="0.160784" stroke="#000000" d="M408,-53C408,-53 304,-53 304,-53 298,-53 292,-47 292,-41 292,-41 292,-12 292,-12 292,-6 298,0 304,0 304,0 408,0 408,0 414,0 420,-6 420,-12 420,-12 420,-41 420,-41 420,-47 414,-53 408,-53"/>
<text text-anchor="middle" x="356" y="-37.8" font-family="Helvetica,sans-Serif" font-size="14.00" fill="#000000">mse = 378.473</text>
<text text-anchor="middle" x="356" y="-22.8" font-family="Helvetica,sans-Serif" font-size="14.00" fill="#000000">samples = 11.7%</text>
<text text-anchor="middle" x="356" y="-7.8" font-family="Helvetica,sans-Serif" font-size="14.00" fill="#000000">value = 73.872</text>
</g>
<!-- 6&#45;&gt;11 -->
<g id="edge6" class="edge">
<title>6&#45;&gt;11</title>
<path fill="none" stroke="#000000" d="M420.7437,-88.9777C411.0649,-79.6376 400.5765,-69.5163 390.9168,-60.1947"/>
<polygon fill="#000000" stroke="#000000" points="393.3449,-57.674 383.7186,-53.2485 388.4841,-62.7111 393.3449,-57.674"/>
</g>
<!-- 12 -->
<g id="node8" class="node">
<title>12</title>
<path fill="#e58139" fill-opacity="0.294118" stroke="#000000" d="M547.5,-53C547.5,-53 450.5,-53 450.5,-53 444.5,-53 438.5,-47 438.5,-41 438.5,-41 438.5,-12 438.5,-12 438.5,-6 444.5,0 450.5,0 450.5,0 547.5,0 547.5,0 553.5,0 559.5,-6 559.5,-12 559.5,-12 559.5,-41 559.5,-41 559.5,-47 553.5,-53 547.5,-53"/>
<text text-anchor="middle" x="499" y="-37.8" font-family="Helvetica,sans-Serif" font-size="14.00" fill="#000000">mse = 770.541</text>
<text text-anchor="middle" x="499" y="-22.8" font-family="Helvetica,sans-Serif" font-size="14.00" fill="#000000">samples = 3.6%</text>
<text text-anchor="middle" x="499" y="-7.8" font-family="Helvetica,sans-Serif" font-size="14.00" fill="#000000">value = 123.897</text>
</g>
<!-- 6&#45;&gt;12 -->
<g id="edge7" class="edge">
<title>6&#45;&gt;12</title>
<path fill="none" stroke="#000000" d="M471.1602,-88.9777C474.9957,-80.3702 479.1268,-71.0992 483.0022,-62.402"/>
<polygon fill="#000000" stroke="#000000" points="486.2077,-63.8073 487.081,-53.2485 479.8138,-60.9581 486.2077,-63.8073"/>
</g>
<!-- 3 -->
<g id="node10" class="node">
<title>3</title>
<path fill="#e58139" fill-opacity="0.360784" stroke="#000000" d="M752.5,-157C752.5,-157 607.5,-157 607.5,-157 601.5,-157 595.5,-151 595.5,-145 595.5,-145 595.5,-101 595.5,-101 595.5,-95 601.5,-89 607.5,-89 607.5,-89 752.5,-89 752.5,-89 758.5,-89 764.5,-95 764.5,-101 764.5,-101 764.5,-145 764.5,-145 764.5,-151 758.5,-157 752.5,-157"/>
<text text-anchor="middle" x="680" y="-141.8" font-family="Helvetica,sans-Serif" font-size="14.00" fill="#000000">privateMethods &lt;= 12.0</text>
<text text-anchor="middle" x="680" y="-126.8" font-family="Helvetica,sans-Serif" font-size="14.00" fill="#000000">mse = 1190.72</text>
<text text-anchor="middle" x="680" y="-111.8" font-family="Helvetica,sans-Serif" font-size="14.00" fill="#000000">samples = 11.1%</text>
<text text-anchor="middle" x="680" y="-96.8" font-family="Helvetica,sans-Serif" font-size="14.00" fill="#000000">value = 150.258</text>
</g>
<!-- 2&#45;&gt;3 -->
<g id="edge9" class="edge">
<title>2&#45;&gt;3</title>
<path fill="none" stroke="#000000" d="M680,-192.9465C680,-184.776 680,-175.9318 680,-167.3697"/>
<polygon fill="#000000" stroke="#000000" points="683.5001,-167.13 680,-157.13 676.5001,-167.13 683.5001,-167.13"/>
</g>
<!-- 4 -->
<g id="node13" class="node">
<title>4</title>
<path fill="#e58139" fill-opacity="0.866667" stroke="#000000" d="M998,-157C998,-157 836,-157 836,-157 830,-157 824,-151 824,-145 824,-145 824,-101 824,-101 824,-95 830,-89 836,-89 836,-89 998,-89 998,-89 1004,-89 1010,-95 1010,-101 1010,-101 1010,-145 1010,-145 1010,-151 1004,-157 998,-157"/>
<text text-anchor="middle" x="917" y="-141.8" font-family="Helvetica,sans-Serif" font-size="14.00" fill="#000000">uniqueWordsQty &lt;= 738.5</text>
<text text-anchor="middle" x="917" y="-126.8" font-family="Helvetica,sans-Serif" font-size="14.00" fill="#000000">mse = 5299.212</text>
<text text-anchor="middle" x="917" y="-111.8" font-family="Helvetica,sans-Serif" font-size="14.00" fill="#000000">samples = 3.2%</text>
<text text-anchor="middle" x="917" y="-96.8" font-family="Helvetica,sans-Serif" font-size="14.00" fill="#000000">value = 344.5</text>
</g>
<!-- 2&#45;&gt;4 -->
<g id="edge12" class="edge">
<title>2&#45;&gt;4</title>
<path fill="none" stroke="#000000" d="M744.1356,-198.8561C770.4927,-187.2901 801.431,-173.7138 829.7931,-161.268"/>
<polygon fill="#000000" stroke="#000000" points="831.5518,-164.3185 839.3025,-157.0951 828.7389,-157.9085 831.5518,-164.3185"/>
</g>
<!-- 13 -->
<g id="node11" class="node">
<title>13</title>
<path fill="#e58139" fill-opacity="0.298039" stroke="#000000" d="M686.5,-53C686.5,-53 589.5,-53 589.5,-53 583.5,-53 577.5,-47 577.5,-41 577.5,-41 577.5,-12 577.5,-12 577.5,-6 583.5,0 589.5,0 589.5,0 686.5,0 686.5,0 692.5,0 698.5,-6 698.5,-12 698.5,-12 698.5,-41 698.5,-41 698.5,-47 692.5,-53 686.5,-53"/>
<text text-anchor="middle" x="638" y="-37.8" font-family="Helvetica,sans-Serif" font-size="14.00" fill="#000000">mse = 914.475</text>
<text text-anchor="middle" x="638" y="-22.8" font-family="Helvetica,sans-Serif" font-size="14.00" fill="#000000">samples = 4.6%</text>
<text text-anchor="middle" x="638" y="-7.8" font-family="Helvetica,sans-Serif" font-size="14.00" fill="#000000">value = 125.932</text>
</g>
<!-- 3&#45;&gt;13 -->
<g id="edge10" class="edge">
<title>3&#45;&gt;13</title>
<path fill="none" stroke="#000000" d="M665.1924,-88.9777C661.4859,-80.4617 657.4969,-71.2963 653.7466,-62.6798"/>
<polygon fill="#000000" stroke="#000000" points="656.8418,-61.0209 649.6418,-53.2485 650.4234,-63.8145 656.8418,-61.0209"/>
</g>
<!-- 14 -->
<g id="node12" class="node">
<title>14</title>
<path fill="#e58139" fill-opacity="0.403922" stroke="#000000" d="M825.5,-53C825.5,-53 728.5,-53 728.5,-53 722.5,-53 716.5,-47 716.5,-41 716.5,-41 716.5,-12 716.5,-12 716.5,-6 722.5,0 728.5,0 728.5,0 825.5,0 825.5,0 831.5,0 837.5,-6 837.5,-12 837.5,-12 837.5,-41 837.5,-41 837.5,-47 831.5,-53 825.5,-53"/>
<text text-anchor="middle" x="777" y="-37.8" font-family="Helvetica,sans-Serif" font-size="14.00" fill="#000000">mse = 685.285</text>
<text text-anchor="middle" x="777" y="-22.8" font-family="Helvetica,sans-Serif" font-size="14.00" fill="#000000">samples = 6.6%</text>
<text text-anchor="middle" x="777" y="-7.8" font-family="Helvetica,sans-Serif" font-size="14.00" fill="#000000">value = 167.171</text>
</g>
<!-- 3&#45;&gt;14 -->
<g id="edge11" class="edge">
<title>3&#45;&gt;14</title>
<path fill="none" stroke="#000000" d="M714.1986,-88.9777C723.495,-79.7292 733.5614,-69.7147 742.8549,-60.4691"/>
<polygon fill="#000000" stroke="#000000" points="745.4921,-62.7825 750.1129,-53.2485 740.5551,-57.82 745.4921,-62.7825"/>
</g>
<!-- 7 -->
<g id="node14" class="node">
<title>7</title>
<path fill="#e58139" fill-opacity="0.650980" stroke="#000000" d="M966,-53C966,-53 868,-53 868,-53 862,-53 856,-47 856,-41 856,-41 856,-12 856,-12 856,-6 862,0 868,0 868,0 966,0 966,0 972,0 978,-6 978,-12 978,-12 978,-41 978,-41 978,-47 972,-53 966,-53"/>
<text text-anchor="middle" x="917" y="-37.8" font-family="Helvetica,sans-Serif" font-size="14.00" fill="#000000">mse = 1122.547</text>
<text text-anchor="middle" x="917" y="-22.8" font-family="Helvetica,sans-Serif" font-size="14.00" fill="#000000">samples = 1.2%</text>
<text text-anchor="middle" x="917" y="-7.8" font-family="Helvetica,sans-Serif" font-size="14.00" fill="#000000">value = 261.55</text>
</g>
<!-- 4&#45;&gt;7 -->
<g id="edge13" class="edge">
<title>4&#45;&gt;7</title>
<path fill="none" stroke="#000000" d="M917,-88.9777C917,-80.7364 917,-71.887 917,-63.5153"/>
<polygon fill="#000000" stroke="#000000" points="920.5001,-63.2484 917,-53.2485 913.5001,-63.2485 920.5001,-63.2484"/>
</g>
<!-- 8 -->
<g id="node15" class="node">
<title>8</title>
<path fill="#e58139" stroke="#000000" d="M1105.5,-53C1105.5,-53 1008.5,-53 1008.5,-53 1002.5,-53 996.5,-47 996.5,-41 996.5,-41 996.5,-12 996.5,-12 996.5,-6 1002.5,0 1008.5,0 1008.5,0 1105.5,0 1105.5,0 1111.5,0 1117.5,-6 1117.5,-12 1117.5,-12 1117.5,-41 1117.5,-41 1117.5,-47 1111.5,-53 1105.5,-53"/>
<text text-anchor="middle" x="1057" y="-37.8" font-family="Helvetica,sans-Serif" font-size="14.00" fill="#000000">mse = 921.413</text>
<text text-anchor="middle" x="1057" y="-22.8" font-family="Helvetica,sans-Serif" font-size="14.00" fill="#000000">samples = 2.0%</text>
<text text-anchor="middle" x="1057" y="-7.8" font-family="Helvetica,sans-Serif" font-size="14.00" fill="#000000">value = 396.344</text>
</g>
<!-- 4&#45;&gt;8 -->
<g id="edge14" class="edge">
<title>4&#45;&gt;8</title>
<path fill="none" stroke="#000000" d="M966.3588,-88.9777C980.4406,-79.2713 995.7463,-68.7213 1009.702,-59.1018"/>
<polygon fill="#000000" stroke="#000000" points="1011.9467,-61.8055 1018.1939,-53.2485 1007.974,-56.042 1011.9467,-61.8055"/>
</g>
</g>
</svg>
