<?xml version="1.0" encoding="UTF-8" standalone="no"?>
<!DOCTYPE svg PUBLIC "-//W3C//DTD SVG 1.1//EN"
 "http://www.w3.org/Graphics/SVG/1.1/DTD/svg11.dtd">
<!-- Generated by graphviz version 2.40.1 (20161225.0304)
 -->
<!-- Title: Tree Pages: 1 -->
<svg width="1991pt" height="581pt"
 viewBox="0.00 0.00 1990.50 581.00" xmlns="http://www.w3.org/2000/svg" xmlns:xlink="http://www.w3.org/1999/xlink">
<g id="graph0" class="graph" transform="scale(1 1) rotate(0) translate(4 577)">
<title>Tree</title>
<polygon fill="#ffffff" stroke="transparent" points="-4,4 -4,-577 1986.5,-577 1986.5,4 -4,4"/>
<!-- 0 -->
<g id="node1" class="node">
<title>0</title>
<path fill="#e58139" fill-opacity="0.121569" stroke="#000000" d="M1153.5,-573C1153.5,-573 1040.5,-573 1040.5,-573 1034.5,-573 1028.5,-567 1028.5,-561 1028.5,-561 1028.5,-517 1028.5,-517 1028.5,-511 1034.5,-505 1040.5,-505 1040.5,-505 1153.5,-505 1153.5,-505 1159.5,-505 1165.5,-511 1165.5,-517 1165.5,-517 1165.5,-561 1165.5,-561 1165.5,-567 1159.5,-573 1153.5,-573"/>
<text text-anchor="middle" x="1097" y="-557.8" font-family="Helvetica,sans-Serif" font-size="14.00" fill="#000000">loc &lt;= 812.0</text>
<text text-anchor="middle" x="1097" y="-542.8" font-family="Helvetica,sans-Serif" font-size="14.00" fill="#000000">mse = 5322.321</text>
<text text-anchor="middle" x="1097" y="-527.8" font-family="Helvetica,sans-Serif" font-size="14.00" fill="#000000">samples = 100.0%</text>
<text text-anchor="middle" x="1097" y="-512.8" font-family="Helvetica,sans-Serif" font-size="14.00" fill="#000000">value = 56.103</text>
</g>
<!-- 1 -->
<g id="node2" class="node">
<title>1</title>
<path fill="#e58139" fill-opacity="0.062745" stroke="#000000" d="M895,-469C895,-469 791,-469 791,-469 785,-469 779,-463 779,-457 779,-457 779,-413 779,-413 779,-407 785,-401 791,-401 791,-401 895,-401 895,-401 901,-401 907,-407 907,-413 907,-413 907,-457 907,-457 907,-463 901,-469 895,-469"/>
<text text-anchor="middle" x="843" y="-453.8" font-family="Helvetica,sans-Serif" font-size="14.00" fill="#000000">loc &lt;= 359.0</text>
<text text-anchor="middle" x="843" y="-438.8" font-family="Helvetica,sans-Serif" font-size="14.00" fill="#000000">mse = 1021.005</text>
<text text-anchor="middle" x="843" y="-423.8" font-family="Helvetica,sans-Serif" font-size="14.00" fill="#000000">samples = 85.6%</text>
<text text-anchor="middle" x="843" y="-408.8" font-family="Helvetica,sans-Serif" font-size="14.00" fill="#000000">value = 32.957</text>
</g>
<!-- 0&#45;&gt;1 -->
<g id="edge1" class="edge">
<title>0&#45;&gt;1</title>
<path fill="none" stroke="#000000" d="M1028.2639,-510.8561C993.7377,-496.7194 951.8765,-479.5794 916.6872,-465.1711"/>
<polygon fill="#000000" stroke="#000000" points="918.0038,-461.9283 907.4233,-461.378 915.3514,-468.4063 918.0038,-461.9283"/>
<text text-anchor="middle" x="917.0844" y="-480.7359" font-family="Helvetica,sans-Serif" font-size="14.00" fill="#000000">True</text>
</g>
<!-- 2 -->
<g id="node17" class="node">
<title>2</title>
<path fill="#e58139" fill-opacity="0.458824" stroke="#000000" d="M1431,-469C1431,-469 1327,-469 1327,-469 1321,-469 1315,-463 1315,-457 1315,-457 1315,-413 1315,-413 1315,-407 1321,-401 1327,-401 1327,-401 1431,-401 1431,-401 1437,-401 1443,-407 1443,-413 1443,-413 1443,-457 1443,-457 1443,-463 1437,-469 1431,-469"/>
<text text-anchor="middle" x="1379" y="-453.8" font-family="Helvetica,sans-Serif" font-size="14.00" fill="#000000">loc &lt;= 1585.0</text>
<text text-anchor="middle" x="1379" y="-438.8" font-family="Helvetica,sans-Serif" font-size="14.00" fill="#000000">mse = 8721.239</text>
<text text-anchor="middle" x="1379" y="-423.8" font-family="Helvetica,sans-Serif" font-size="14.00" fill="#000000">samples = 14.4%</text>
<text text-anchor="middle" x="1379" y="-408.8" font-family="Helvetica,sans-Serif" font-size="14.00" fill="#000000">value = 194.174</text>
</g>
<!-- 0&#45;&gt;2 -->
<g id="edge16" class="edge">
<title>0&#45;&gt;2</title>
<path fill="none" stroke="#000000" d="M1165.6244,-513.6917C1207.9122,-498.0962 1262.1165,-478.106 1305.31,-462.1765"/>
<polygon fill="#000000" stroke="#000000" points="1306.7401,-465.3795 1314.9113,-458.6355 1304.318,-458.8119 1306.7401,-465.3795"/>
<text text-anchor="middle" x="1304.4424" y="-477.638" font-family="Helvetica,sans-Serif" font-size="14.00" fill="#000000">False</text>
</g>
<!-- 5 -->
<g id="node3" class="node">
<title>5</title>
<path fill="#e58139" fill-opacity="0.035294" stroke="#000000" d="M489,-365C489,-365 385,-365 385,-365 379,-365 373,-359 373,-353 373,-353 373,-309 373,-309 373,-303 379,-297 385,-297 385,-297 489,-297 489,-297 495,-297 501,-303 501,-309 501,-309 501,-353 501,-353 501,-359 495,-365 489,-365"/>
<text text-anchor="middle" x="437" y="-349.8" font-family="Helvetica,sans-Serif" font-size="14.00" fill="#000000">loc &lt;= 152.5</text>
<text text-anchor="middle" x="437" y="-334.8" font-family="Helvetica,sans-Serif" font-size="14.00" fill="#000000">mse = 303.083</text>
<text text-anchor="middle" x="437" y="-319.8" font-family="Helvetica,sans-Serif" font-size="14.00" fill="#000000">samples = 70.3%</text>
<text text-anchor="middle" x="437" y="-304.8" font-family="Helvetica,sans-Serif" font-size="14.00" fill="#000000">value = 21.441</text>
</g>
<!-- 1&#45;&gt;5 -->
<g id="edge2" class="edge">
<title>1&#45;&gt;5</title>
<path fill="none" stroke="#000000" d="M778.6681,-418.5209C705.9121,-399.8839 587.6346,-369.5862 511.0819,-349.9766"/>
<polygon fill="#000000" stroke="#000000" points="511.5867,-346.493 501.0309,-347.402 509.8496,-353.2741 511.5867,-346.493"/>
</g>
<!-- 6 -->
<g id="node10" class="node">
<title>6</title>
<path fill="#e58139" fill-opacity="0.192157" stroke="#000000" d="M918.5,-365C918.5,-365 767.5,-365 767.5,-365 761.5,-365 755.5,-359 755.5,-353 755.5,-353 755.5,-309 755.5,-309 755.5,-303 761.5,-297 767.5,-297 767.5,-297 918.5,-297 918.5,-297 924.5,-297 930.5,-303 930.5,-309 930.5,-309 930.5,-353 930.5,-353 930.5,-359 924.5,-365 918.5,-365"/>
<text text-anchor="middle" x="843" y="-349.8" font-family="Helvetica,sans-Serif" font-size="14.00" fill="#000000">comparisonsQty &lt;= 26.5</text>
<text text-anchor="middle" x="843" y="-334.8" font-family="Helvetica,sans-Serif" font-size="14.00" fill="#000000">mse = 921.808</text>
<text text-anchor="middle" x="843" y="-319.8" font-family="Helvetica,sans-Serif" font-size="14.00" fill="#000000">samples = 15.4%</text>
<text text-anchor="middle" x="843" y="-304.8" font-family="Helvetica,sans-Serif" font-size="14.00" fill="#000000">value = 85.667</text>
</g>
<!-- 1&#45;&gt;6 -->
<g id="edge9" class="edge">
<title>1&#45;&gt;6</title>
<path fill="none" stroke="#000000" d="M843,-400.9465C843,-392.776 843,-383.9318 843,-375.3697"/>
<polygon fill="#000000" stroke="#000000" points="846.5001,-375.13 843,-365.13 839.5001,-375.13 846.5001,-375.13"/>
</g>
<!-- 9 -->
<g id="node4" class="node">
<title>9</title>
<path fill="#e58139" fill-opacity="0.011765" stroke="#000000" d="M262,-261C262,-261 158,-261 158,-261 152,-261 146,-255 146,-249 146,-249 146,-205 146,-205 146,-199 152,-193 158,-193 158,-193 262,-193 262,-193 268,-193 274,-199 274,-205 274,-205 274,-249 274,-249 274,-255 268,-261 262,-261"/>
<text text-anchor="middle" x="210" y="-245.8" font-family="Helvetica,sans-Serif" font-size="14.00" fill="#000000">loc &lt;= 77.5</text>
<text text-anchor="middle" x="210" y="-230.8" font-family="Helvetica,sans-Serif" font-size="14.00" fill="#000000">mse = 60.69</text>
<text text-anchor="middle" x="210" y="-215.8" font-family="Helvetica,sans-Serif" font-size="14.00" fill="#000000">samples = 44.8%</text>
<text text-anchor="middle" x="210" y="-200.8" font-family="Helvetica,sans-Serif" font-size="14.00" fill="#000000">value = 11.389</text>
</g>
<!-- 5&#45;&gt;9 -->
<g id="edge3" class="edge">
<title>5&#45;&gt;9</title>
<path fill="none" stroke="#000000" d="M372.8611,-301.6148C345.0599,-288.8777 312.3515,-273.8923 283.5695,-260.7058"/>
<polygon fill="#000000" stroke="#000000" points="284.9229,-257.4761 274.3738,-256.4928 282.0073,-263.84 284.9229,-257.4761"/>
</g>
<!-- 10 -->
<g id="node7" class="node">
<title>10</title>
<path fill="#e58139" fill-opacity="0.078431" stroke="#000000" d="M508.5,-261C508.5,-261 365.5,-261 365.5,-261 359.5,-261 353.5,-255 353.5,-249 353.5,-249 353.5,-205 353.5,-205 353.5,-199 359.5,-193 365.5,-193 365.5,-193 508.5,-193 508.5,-193 514.5,-193 520.5,-199 520.5,-205 520.5,-205 520.5,-249 520.5,-249 520.5,-255 514.5,-261 508.5,-261"/>
<text text-anchor="middle" x="437" y="-245.8" font-family="Helvetica,sans-Serif" font-size="14.00" fill="#000000">comparisonsQty &lt;= 9.5</text>
<text text-anchor="middle" x="437" y="-230.8" font-family="Helvetica,sans-Serif" font-size="14.00" fill="#000000">mse = 240.328</text>
<text text-anchor="middle" x="437" y="-215.8" font-family="Helvetica,sans-Serif" font-size="14.00" fill="#000000">samples = 25.5%</text>
<text text-anchor="middle" x="437" y="-200.8" font-family="Helvetica,sans-Serif" font-size="14.00" fill="#000000">value = 39.064</text>
</g>
<!-- 5&#45;&gt;10 -->
<g id="edge6" class="edge">
<title>5&#45;&gt;10</title>
<path fill="none" stroke="#000000" d="M437,-296.9465C437,-288.776 437,-279.9318 437,-271.3697"/>
<polygon fill="#000000" stroke="#000000" points="440.5001,-271.13 437,-261.13 433.5001,-271.13 440.5001,-271.13"/>
</g>
<!-- 29 -->
<g id="node5" class="node">
<title>29</title>
<path fill="transparent" stroke="#000000" d="M116,-149.5C116,-149.5 12,-149.5 12,-149.5 6,-149.5 0,-143.5 0,-137.5 0,-137.5 0,-108.5 0,-108.5 0,-102.5 6,-96.5 12,-96.5 12,-96.5 116,-96.5 116,-96.5 122,-96.5 128,-102.5 128,-108.5 128,-108.5 128,-137.5 128,-137.5 128,-143.5 122,-149.5 116,-149.5"/>
<text text-anchor="middle" x="64" y="-134.3" font-family="Helvetica,sans-Serif" font-size="14.00" fill="#000000">mse = 19.827</text>
<text text-anchor="middle" x="64" y="-119.3" font-family="Helvetica,sans-Serif" font-size="14.00" fill="#000000">samples = 28.8%</text>
<text text-anchor="middle" x="64" y="-104.3" font-family="Helvetica,sans-Serif" font-size="14.00" fill="#000000">value = 7.332</text>
</g>
<!-- 9&#45;&gt;29 -->
<g id="edge4" class="edge">
<title>9&#45;&gt;29</title>
<path fill="none" stroke="#000000" d="M162.1941,-192.9465C145.3392,-180.9403 126.4419,-167.4791 109.7601,-155.5962"/>
<polygon fill="#000000" stroke="#000000" points="111.4367,-152.4933 101.2611,-149.5422 107.3753,-158.1947 111.4367,-152.4933"/>
</g>
<!-- 30 -->
<g id="node6" class="node">
<title>30</title>
<path fill="#e58139" fill-opacity="0.027451" stroke="#000000" d="M262,-149.5C262,-149.5 158,-149.5 158,-149.5 152,-149.5 146,-143.5 146,-137.5 146,-137.5 146,-108.5 146,-108.5 146,-102.5 152,-96.5 158,-96.5 158,-96.5 262,-96.5 262,-96.5 268,-96.5 274,-102.5 274,-108.5 274,-108.5 274,-137.5 274,-137.5 274,-143.5 268,-149.5 262,-149.5"/>
<text text-anchor="middle" x="210" y="-134.3" font-family="Helvetica,sans-Serif" font-size="14.00" fill="#000000">mse = 51.251</text>
<text text-anchor="middle" x="210" y="-119.3" font-family="Helvetica,sans-Serif" font-size="14.00" fill="#000000">samples = 16.0%</text>
<text text-anchor="middle" x="210" y="-104.3" font-family="Helvetica,sans-Serif" font-size="14.00" fill="#000000">value = 18.695</text>
</g>
<!-- 9&#45;&gt;30 -->
<g id="edge5" class="edge">
<title>9&#45;&gt;30</title>
<path fill="none" stroke="#000000" d="M210,-192.9465C210,-182.2621 210,-170.4254 210,-159.5742"/>
<polygon fill="#000000" stroke="#000000" points="213.5001,-159.5421 210,-149.5422 206.5001,-159.5422 213.5001,-159.5421"/>
</g>
<!-- 15 -->
<g id="node8" class="node">
<title>15</title>
<path fill="#e58139" fill-opacity="0.062745" stroke="#000000" d="M408,-149.5C408,-149.5 304,-149.5 304,-149.5 298,-149.5 292,-143.5 292,-137.5 292,-137.5 292,-108.5 292,-108.5 292,-102.5 298,-96.5 304,-96.5 304,-96.5 408,-96.5 408,-96.5 414,-96.5 420,-102.5 420,-108.5 420,-108.5 420,-137.5 420,-137.5 420,-143.5 414,-149.5 408,-149.5"/>
<text text-anchor="middle" x="356" y="-134.3" font-family="Helvetica,sans-Serif" font-size="14.00" fill="#000000">mse = 120.935</text>
<text text-anchor="middle" x="356" y="-119.3" font-family="Helvetica,sans-Serif" font-size="14.00" fill="#000000">samples = 18.8%</text>
<text text-anchor="middle" x="356" y="-104.3" font-family="Helvetica,sans-Serif" font-size="14.00" fill="#000000">value = 33.093</text>
</g>
<!-- 10&#45;&gt;15 -->
<g id="edge7" class="edge">
<title>10&#45;&gt;15</title>
<path fill="none" stroke="#000000" d="M410.4776,-192.9465C401.6413,-181.6012 391.7932,-168.9567 382.9266,-157.5724"/>
<polygon fill="#000000" stroke="#000000" points="385.5783,-155.281 376.6723,-149.5422 380.0556,-159.5823 385.5783,-155.281"/>
</g>
<!-- 16 -->
<g id="node9" class="node">
<title>16</title>
<path fill="#e58139" fill-opacity="0.117647" stroke="#000000" d="M546,-149.5C546,-149.5 450,-149.5 450,-149.5 444,-149.5 438,-143.5 438,-137.5 438,-137.5 438,-108.5 438,-108.5 438,-102.5 444,-96.5 450,-96.5 450,-96.5 546,-96.5 546,-96.5 552,-96.5 558,-102.5 558,-108.5 558,-108.5 558,-137.5 558,-137.5 558,-143.5 552,-149.5 546,-149.5"/>
<text text-anchor="middle" x="498" y="-134.3" font-family="Helvetica,sans-Serif" font-size="14.00" fill="#000000">mse = 196.838</text>
<text text-anchor="middle" x="498" y="-119.3" font-family="Helvetica,sans-Serif" font-size="14.00" fill="#000000">samples = 6.7%</text>
<text text-anchor="middle" x="498" y="-104.3" font-family="Helvetica,sans-Serif" font-size="14.00" fill="#000000">value = 55.704</text>
</g>
<!-- 10&#45;&gt;16 -->
<g id="edge8" class="edge">
<title>10&#45;&gt;16</title>
<path fill="none" stroke="#000000" d="M456.9737,-192.9465C463.499,-181.8215 470.7569,-169.4473 477.3322,-158.237"/>
<polygon fill="#000000" stroke="#000000" points="480.3916,-159.9387 482.432,-149.5422 474.3536,-156.3971 480.3916,-159.9387"/>
</g>
<!-- 11 -->
<g id="node11" class="node">
<title>11</title>
<path fill="#e58139" fill-opacity="0.164706" stroke="#000000" d="M825,-261C825,-261 663,-261 663,-261 657,-261 651,-255 651,-249 651,-249 651,-205 651,-205 651,-199 657,-193 663,-193 663,-193 825,-193 825,-193 831,-193 837,-199 837,-205 837,-205 837,-249 837,-249 837,-255 831,-261 825,-261"/>
<text text-anchor="middle" x="744" y="-245.8" font-family="Helvetica,sans-Serif" font-size="14.00" fill="#000000">uniqueWordsQty &lt;= 407.0</text>
<text text-anchor="middle" x="744" y="-230.8" font-family="Helvetica,sans-Serif" font-size="14.00" fill="#000000">mse = 378.473</text>
<text text-anchor="middle" x="744" y="-215.8" font-family="Helvetica,sans-Serif" font-size="14.00" fill="#000000">samples = 11.7%</text>
<text text-anchor="middle" x="744" y="-200.8" font-family="Helvetica,sans-Serif" font-size="14.00" fill="#000000">value = 73.872</text>
</g>
<!-- 6&#45;&gt;11 -->
<g id="edge10" class="edge">
<title>6&#45;&gt;11</title>
<path fill="none" stroke="#000000" d="M810.5837,-296.9465C801.9514,-287.8782 792.5289,-277.9799 783.5605,-268.5585"/>
<polygon fill="#000000" stroke="#000000" points="785.919,-265.9599 776.4891,-261.13 780.8489,-270.7863 785.919,-265.9599"/>
</g>
<!-- 12 -->
<g id="node14" class="node">
<title>12</title>
<path fill="#e58139" fill-opacity="0.286275" stroke="#000000" d="M1018.5,-261C1018.5,-261 867.5,-261 867.5,-261 861.5,-261 855.5,-255 855.5,-249 855.5,-249 855.5,-205 855.5,-205 855.5,-199 861.5,-193 867.5,-193 867.5,-193 1018.5,-193 1018.5,-193 1024.5,-193 1030.5,-199 1030.5,-205 1030.5,-205 1030.5,-249 1030.5,-249 1030.5,-255 1024.5,-261 1018.5,-261"/>
<text text-anchor="middle" x="943" y="-245.8" font-family="Helvetica,sans-Serif" font-size="14.00" fill="#000000">comparisonsQty &lt;= 41.5</text>
<text text-anchor="middle" x="943" y="-230.8" font-family="Helvetica,sans-Serif" font-size="14.00" fill="#000000">mse = 770.541</text>
<text text-anchor="middle" x="943" y="-215.8" font-family="Helvetica,sans-Serif" font-size="14.00" fill="#000000">samples = 3.6%</text>
<text text-anchor="middle" x="943" y="-200.8" font-family="Helvetica,sans-Serif" font-size="14.00" fill="#000000">value = 123.897</text>
</g>
<!-- 6&#45;&gt;12 -->
<g id="edge13" class="edge">
<title>6&#45;&gt;12</title>
<path fill="none" stroke="#000000" d="M875.7437,-296.9465C884.4633,-287.8782 893.9809,-277.9799 903.0399,-268.5585"/>
<polygon fill="#000000" stroke="#000000" points="905.7745,-270.7642 910.1827,-261.13 900.7287,-265.9125 905.7745,-270.7642"/>
</g>
<!-- 27 -->
<g id="node12" class="node">
<title>27</title>
<path fill="#e58139" fill-opacity="0.149020" stroke="#000000" d="M684,-149.5C684,-149.5 588,-149.5 588,-149.5 582,-149.5 576,-143.5 576,-137.5 576,-137.5 576,-108.5 576,-108.5 576,-102.5 582,-96.5 588,-96.5 588,-96.5 684,-96.5 684,-96.5 690,-96.5 696,-102.5 696,-108.5 696,-108.5 696,-137.5 696,-137.5 696,-143.5 690,-149.5 684,-149.5"/>
<text text-anchor="middle" x="636" y="-134.3" font-family="Helvetica,sans-Serif" font-size="14.00" fill="#000000">mse = 294.042</text>
<text text-anchor="middle" x="636" y="-119.3" font-family="Helvetica,sans-Serif" font-size="14.00" fill="#000000">samples = 9.6%</text>
<text text-anchor="middle" x="636" y="-104.3" font-family="Helvetica,sans-Serif" font-size="14.00" fill="#000000">value = 68.779</text>
</g>
<!-- 11&#45;&gt;27 -->
<g id="edge11" class="edge">
<title>11&#45;&gt;27</title>
<path fill="none" stroke="#000000" d="M708.6368,-192.9465C696.5119,-181.2707 682.9582,-168.219 670.8725,-156.5809"/>
<polygon fill="#000000" stroke="#000000" points="673.194,-153.9575 663.563,-149.5422 668.3385,-158.9997 673.194,-153.9575"/>
</g>
<!-- 28 -->
<g id="node13" class="node">
<title>28</title>
<path fill="#e58139" fill-opacity="0.219608" stroke="#000000" d="M822,-149.5C822,-149.5 726,-149.5 726,-149.5 720,-149.5 714,-143.5 714,-137.5 714,-137.5 714,-108.5 714,-108.5 714,-102.5 720,-96.5 726,-96.5 726,-96.5 822,-96.5 822,-96.5 828,-96.5 834,-102.5 834,-108.5 834,-108.5 834,-137.5 834,-137.5 834,-143.5 828,-149.5 822,-149.5"/>
<text text-anchor="middle" x="774" y="-134.3" font-family="Helvetica,sans-Serif" font-size="14.00" fill="#000000">mse = 111.232</text>
<text text-anchor="middle" x="774" y="-119.3" font-family="Helvetica,sans-Serif" font-size="14.00" fill="#000000">samples = 2.1%</text>
<text text-anchor="middle" x="774" y="-104.3" font-family="Helvetica,sans-Serif" font-size="14.00" fill="#000000">value = 96.941</text>
</g>
<!-- 11&#45;&gt;28 -->
<g id="edge12" class="edge">
<title>11&#45;&gt;28</title>
<path fill="none" stroke="#000000" d="M753.8231,-192.9465C756.937,-182.1519 760.39,-170.1813 763.5465,-159.2389"/>
<polygon fill="#000000" stroke="#000000" points="766.9348,-160.1205 766.3436,-149.5422 760.209,-158.1803 766.9348,-160.1205"/>
</g>
<!-- 19 -->
<g id="node15" class="node">
<title>19</title>
<path fill="#e58139" fill-opacity="0.250980" stroke="#000000" d="M961.5,-149.5C961.5,-149.5 864.5,-149.5 864.5,-149.5 858.5,-149.5 852.5,-143.5 852.5,-137.5 852.5,-137.5 852.5,-108.5 852.5,-108.5 852.5,-102.5 858.5,-96.5 864.5,-96.5 864.5,-96.5 961.5,-96.5 961.5,-96.5 967.5,-96.5 973.5,-102.5 973.5,-108.5 973.5,-108.5 973.5,-137.5 973.5,-137.5 973.5,-143.5 967.5,-149.5 961.5,-149.5"/>
<text text-anchor="middle" x="913" y="-134.3" font-family="Helvetica,sans-Serif" font-size="14.00" fill="#000000">mse = 126.159</text>
<text text-anchor="middle" x="913" y="-119.3" font-family="Helvetica,sans-Serif" font-size="14.00" fill="#000000">samples = 2.7%</text>
<text text-anchor="middle" x="913" y="-104.3" font-family="Helvetica,sans-Serif" font-size="14.00" fill="#000000">value = 109.477</text>
</g>
<!-- 12&#45;&gt;19 -->
<g id="edge14" class="edge">
<title>12&#45;&gt;19</title>
<path fill="none" stroke="#000000" d="M933.1769,-192.9465C930.063,-182.1519 926.61,-170.1813 923.4535,-159.2389"/>
<polygon fill="#000000" stroke="#000000" points="926.791,-158.1803 920.6564,-149.5422 920.0652,-160.1205 926.791,-158.1803"/>
</g>
<!-- 20 -->
<g id="node16" class="node">
<title>20</title>
<path fill="#e58139" fill-opacity="0.396078" stroke="#000000" d="M1100.5,-149.5C1100.5,-149.5 1003.5,-149.5 1003.5,-149.5 997.5,-149.5 991.5,-143.5 991.5,-137.5 991.5,-137.5 991.5,-108.5 991.5,-108.5 991.5,-102.5 997.5,-96.5 1003.5,-96.5 1003.5,-96.5 1100.5,-96.5 1100.5,-96.5 1106.5,-96.5 1112.5,-102.5 1112.5,-108.5 1112.5,-108.5 1112.5,-137.5 1112.5,-137.5 1112.5,-143.5 1106.5,-149.5 1100.5,-149.5"/>
<text text-anchor="middle" x="1052" y="-134.3" font-family="Helvetica,sans-Serif" font-size="14.00" fill="#000000">mse = 88.597</text>
<text text-anchor="middle" x="1052" y="-119.3" font-family="Helvetica,sans-Serif" font-size="14.00" fill="#000000">samples = 0.9%</text>
<text text-anchor="middle" x="1052" y="-104.3" font-family="Helvetica,sans-Serif" font-size="14.00" fill="#000000">value = 169.214</text>
</g>
<!-- 12&#45;&gt;20 -->
<g id="edge15" class="edge">
<title>12&#45;&gt;20</title>
<path fill="none" stroke="#000000" d="M978.6907,-192.9465C990.9278,-181.2707 1004.607,-168.219 1016.8046,-156.5809"/>
<polygon fill="#000000" stroke="#000000" points="1019.3628,-158.9777 1024.1818,-149.5422 1014.5306,-153.9131 1019.3628,-158.9777"/>
</g>
<!-- 3 -->
<g id="node18" class="node">
<title>3</title>
<path fill="#e58139" fill-opacity="0.349020" stroke="#000000" d="M1451.5,-365C1451.5,-365 1306.5,-365 1306.5,-365 1300.5,-365 1294.5,-359 1294.5,-353 1294.5,-353 1294.5,-309 1294.5,-309 1294.5,-303 1300.5,-297 1306.5,-297 1306.5,-297 1451.5,-297 1451.5,-297 1457.5,-297 1463.5,-303 1463.5,-309 1463.5,-309 1463.5,-353 1463.5,-353 1463.5,-359 1457.5,-365 1451.5,-365"/>
<text text-anchor="middle" x="1379" y="-349.8" font-family="Helvetica,sans-Serif" font-size="14.00" fill="#000000">privateMethods &lt;= 12.0</text>
<text text-anchor="middle" x="1379" y="-334.8" font-family="Helvetica,sans-Serif" font-size="14.00" fill="#000000">mse = 1190.72</text>
<text text-anchor="middle" x="1379" y="-319.8" font-family="Helvetica,sans-Serif" font-size="14.00" fill="#000000">samples = 11.1%</text>
<text text-anchor="middle" x="1379" y="-304.8" font-family="Helvetica,sans-Serif" font-size="14.00" fill="#000000">value = 150.258</text>
</g>
<!-- 2&#45;&gt;3 -->
<g id="edge17" class="edge">
<title>2&#45;&gt;3</title>
<path fill="none" stroke="#000000" d="M1379,-400.9465C1379,-392.776 1379,-383.9318 1379,-375.3697"/>
<polygon fill="#000000" stroke="#000000" points="1382.5001,-375.13 1379,-365.13 1375.5001,-375.13 1382.5001,-375.13"/>
</g>
<!-- 4 -->
<g id="node27" class="node">
<title>4</title>
<path fill="#e58139" fill-opacity="0.827451" stroke="#000000" d="M1697,-365C1697,-365 1599,-365 1599,-365 1593,-365 1587,-359 1587,-353 1587,-353 1587,-309 1587,-309 1587,-303 1593,-297 1599,-297 1599,-297 1697,-297 1697,-297 1703,-297 1709,-303 1709,-309 1709,-309 1709,-353 1709,-353 1709,-359 1703,-365 1697,-365"/>
<text text-anchor="middle" x="1648" y="-349.8" font-family="Helvetica,sans-Serif" font-size="14.00" fill="#000000">loopQty &lt;= 12.0</text>
<text text-anchor="middle" x="1648" y="-334.8" font-family="Helvetica,sans-Serif" font-size="14.00" fill="#000000">mse = 5299.212</text>
<text text-anchor="middle" x="1648" y="-319.8" font-family="Helvetica,sans-Serif" font-size="14.00" fill="#000000">samples = 3.2%</text>
<text text-anchor="middle" x="1648" y="-304.8" font-family="Helvetica,sans-Serif" font-size="14.00" fill="#000000">value = 344.5</text>
</g>
<!-- 2&#45;&gt;4 -->
<g id="edge26" class="edge">
<title>2&#45;&gt;4</title>
<path fill="none" stroke="#000000" d="M1443.0904,-410.2215C1483.4579,-394.6148 1535.6097,-374.452 1577.1971,-358.3736"/>
<polygon fill="#000000" stroke="#000000" points="1578.6476,-361.5654 1586.7126,-354.6948 1576.1233,-355.0363 1578.6476,-361.5654"/>
</g>
<!-- 13 -->
<g id="node19" class="node">
<title>13</title>
<path fill="#e58139" fill-opacity="0.290196" stroke="#000000" d="M1353,-261C1353,-261 1213,-261 1213,-261 1207,-261 1201,-255 1201,-249 1201,-249 1201,-205 1201,-205 1201,-199 1207,-193 1213,-193 1213,-193 1353,-193 1353,-193 1359,-193 1365,-199 1365,-205 1365,-205 1365,-249 1365,-249 1365,-255 1359,-261 1353,-261"/>
<text text-anchor="middle" x="1283" y="-245.8" font-family="Helvetica,sans-Serif" font-size="14.00" fill="#000000">publicMethods &lt;= 97.5</text>
<text text-anchor="middle" x="1283" y="-230.8" font-family="Helvetica,sans-Serif" font-size="14.00" fill="#000000">mse = 914.475</text>
<text text-anchor="middle" x="1283" y="-215.8" font-family="Helvetica,sans-Serif" font-size="14.00" fill="#000000">samples = 4.6%</text>
<text text-anchor="middle" x="1283" y="-200.8" font-family="Helvetica,sans-Serif" font-size="14.00" fill="#000000">value = 125.932</text>
</g>
<!-- 3&#45;&gt;13 -->
<g id="edge18" class="edge">
<title>3&#45;&gt;13</title>
<path fill="none" stroke="#000000" d="M1347.566,-296.9465C1339.1953,-287.8782 1330.0584,-277.9799 1321.3617,-268.5585"/>
<polygon fill="#000000" stroke="#000000" points="1323.8593,-266.1041 1314.5046,-261.13 1318.7156,-270.852 1323.8593,-266.1041"/>
</g>
<!-- 14 -->
<g id="node24" class="node">
<title>14</title>
<path fill="#e58139" fill-opacity="0.392157" stroke="#000000" d="M1557,-261C1557,-261 1395,-261 1395,-261 1389,-261 1383,-255 1383,-249 1383,-249 1383,-205 1383,-205 1383,-199 1389,-193 1395,-193 1395,-193 1557,-193 1557,-193 1563,-193 1569,-199 1569,-205 1569,-205 1569,-249 1569,-249 1569,-255 1563,-261 1557,-261"/>
<text text-anchor="middle" x="1476" y="-245.8" font-family="Helvetica,sans-Serif" font-size="14.00" fill="#000000">uniqueWordsQty &lt;= 806.5</text>
<text text-anchor="middle" x="1476" y="-230.8" font-family="Helvetica,sans-Serif" font-size="14.00" fill="#000000">mse = 685.285</text>
<text text-anchor="middle" x="1476" y="-215.8" font-family="Helvetica,sans-Serif" font-size="14.00" fill="#000000">samples = 6.6%</text>
<text text-anchor="middle" x="1476" y="-200.8" font-family="Helvetica,sans-Serif" font-size="14.00" fill="#000000">value = 167.171</text>
</g>
<!-- 3&#45;&gt;14 -->
<g id="edge23" class="edge">
<title>3&#45;&gt;14</title>
<path fill="none" stroke="#000000" d="M1410.7614,-296.9465C1419.2194,-287.8782 1428.4514,-277.9799 1437.2387,-268.5585"/>
<polygon fill="#000000" stroke="#000000" points="1439.906,-270.8302 1444.1672,-261.13 1434.787,-266.0557 1439.906,-270.8302"/>
</g>
<!-- 21 -->
<g id="node20" class="node">
<title>21</title>
<path fill="#e58139" fill-opacity="0.266667" stroke="#000000" d="M1247,-157C1247,-157 1143,-157 1143,-157 1137,-157 1131,-151 1131,-145 1131,-145 1131,-101 1131,-101 1131,-95 1137,-89 1143,-89 1143,-89 1247,-89 1247,-89 1253,-89 1259,-95 1259,-101 1259,-101 1259,-145 1259,-145 1259,-151 1253,-157 1247,-157"/>
<text text-anchor="middle" x="1195" y="-141.8" font-family="Helvetica,sans-Serif" font-size="14.00" fill="#000000">modifiers &lt;= 56.5</text>
<text text-anchor="middle" x="1195" y="-126.8" font-family="Helvetica,sans-Serif" font-size="14.00" fill="#000000">mse = 561.829</text>
<text text-anchor="middle" x="1195" y="-111.8" font-family="Helvetica,sans-Serif" font-size="14.00" fill="#000000">samples = 3.6%</text>
<text text-anchor="middle" x="1195" y="-96.8" font-family="Helvetica,sans-Serif" font-size="14.00" fill="#000000">value = 115.776</text>
</g>
<!-- 13&#45;&gt;21 -->
<g id="edge19" class="edge">
<title>13&#45;&gt;21</title>
<path fill="none" stroke="#000000" d="M1254.1855,-192.9465C1246.5883,-183.968 1238.3026,-174.1758 1230.4018,-164.8385"/>
<polygon fill="#000000" stroke="#000000" points="1233.0105,-162.5031 1223.8792,-157.13 1227.6668,-167.0247 1233.0105,-162.5031"/>
</g>
<!-- 22 -->
<g id="node23" class="node">
<title>22</title>
<path fill="#e58139" fill-opacity="0.388235" stroke="#000000" d="M1385,-149.5C1385,-149.5 1289,-149.5 1289,-149.5 1283,-149.5 1277,-143.5 1277,-137.5 1277,-137.5 1277,-108.5 1277,-108.5 1277,-102.5 1283,-96.5 1289,-96.5 1289,-96.5 1385,-96.5 1385,-96.5 1391,-96.5 1397,-102.5 1397,-108.5 1397,-108.5 1397,-137.5 1397,-137.5 1397,-143.5 1391,-149.5 1385,-149.5"/>
<text text-anchor="middle" x="1337" y="-134.3" font-family="Helvetica,sans-Serif" font-size="14.00" fill="#000000">mse = 337.227</text>
<text text-anchor="middle" x="1337" y="-119.3" font-family="Helvetica,sans-Serif" font-size="14.00" fill="#000000">samples = 0.9%</text>
<text text-anchor="middle" x="1337" y="-104.3" font-family="Helvetica,sans-Serif" font-size="14.00" fill="#000000">value = 165.2</text>
</g>
<!-- 13&#45;&gt;22 -->
<g id="edge22" class="edge">
<title>13&#45;&gt;22</title>
<path fill="none" stroke="#000000" d="M1300.6816,-192.9465C1306.4009,-181.9316 1312.756,-169.6922 1318.5308,-158.5703"/>
<polygon fill="#000000" stroke="#000000" points="1321.7165,-160.03 1323.2185,-149.5422 1315.504,-156.8043 1321.7165,-160.03"/>
</g>
<!-- 23 -->
<g id="node21" class="node">
<title>23</title>
<path fill="#e58139" fill-opacity="0.239216" stroke="#000000" d="M1173.5,-53C1173.5,-53 1076.5,-53 1076.5,-53 1070.5,-53 1064.5,-47 1064.5,-41 1064.5,-41 1064.5,-12 1064.5,-12 1064.5,-6 1070.5,0 1076.5,0 1076.5,0 1173.5,0 1173.5,0 1179.5,0 1185.5,-6 1185.5,-12 1185.5,-12 1185.5,-41 1185.5,-41 1185.5,-47 1179.5,-53 1173.5,-53"/>
<text text-anchor="middle" x="1125" y="-37.8" font-family="Helvetica,sans-Serif" font-size="14.00" fill="#000000">mse = 94.592</text>
<text text-anchor="middle" x="1125" y="-22.8" font-family="Helvetica,sans-Serif" font-size="14.00" fill="#000000">samples = 2.9%</text>
<text text-anchor="middle" x="1125" y="-7.8" font-family="Helvetica,sans-Serif" font-size="14.00" fill="#000000">value = 105.298</text>
</g>
<!-- 21&#45;&gt;23 -->
<g id="edge20" class="edge">
<title>21&#45;&gt;23</title>
<path fill="none" stroke="#000000" d="M1170.3206,-88.9777C1163.8775,-80.0954 1156.922,-70.5067 1150.4402,-61.5711"/>
<polygon fill="#000000" stroke="#000000" points="1153.1079,-59.288 1144.403,-53.2485 1147.4417,-63.3982 1153.1079,-59.288"/>
</g>
<!-- 24 -->
<g id="node22" class="node">
<title>24</title>
<path fill="#e58139" fill-opacity="0.376471" stroke="#000000" d="M1312.5,-53C1312.5,-53 1215.5,-53 1215.5,-53 1209.5,-53 1203.5,-47 1203.5,-41 1203.5,-41 1203.5,-12 1203.5,-12 1203.5,-6 1209.5,0 1215.5,0 1215.5,0 1312.5,0 1312.5,0 1318.5,0 1324.5,-6 1324.5,-12 1324.5,-12 1324.5,-41 1324.5,-41 1324.5,-47 1318.5,-53 1312.5,-53"/>
<text text-anchor="middle" x="1264" y="-37.8" font-family="Helvetica,sans-Serif" font-size="14.00" fill="#000000">mse = 84.793</text>
<text text-anchor="middle" x="1264" y="-22.8" font-family="Helvetica,sans-Serif" font-size="14.00" fill="#000000">samples = 0.7%</text>
<text text-anchor="middle" x="1264" y="-7.8" font-family="Helvetica,sans-Serif" font-size="14.00" fill="#000000">value = 160.545</text>
</g>
<!-- 21&#45;&gt;24 -->
<g id="edge21" class="edge">
<title>21&#45;&gt;24</title>
<path fill="none" stroke="#000000" d="M1219.3268,-88.9777C1225.6779,-80.0954 1232.534,-70.5067 1238.9232,-61.5711"/>
<polygon fill="#000000" stroke="#000000" points="1241.9048,-63.4187 1244.8741,-53.2485 1236.2107,-59.3472 1241.9048,-63.4187"/>
</g>
<!-- 17 -->
<g id="node25" class="node">
<title>17</title>
<path fill="#e58139" fill-opacity="0.384314" stroke="#000000" d="M1524.5,-149.5C1524.5,-149.5 1427.5,-149.5 1427.5,-149.5 1421.5,-149.5 1415.5,-143.5 1415.5,-137.5 1415.5,-137.5 1415.5,-108.5 1415.5,-108.5 1415.5,-102.5 1421.5,-96.5 1427.5,-96.5 1427.5,-96.5 1524.5,-96.5 1524.5,-96.5 1530.5,-96.5 1536.5,-102.5 1536.5,-108.5 1536.5,-108.5 1536.5,-137.5 1536.5,-137.5 1536.5,-143.5 1530.5,-149.5 1524.5,-149.5"/>
<text text-anchor="middle" x="1476" y="-134.3" font-family="Helvetica,sans-Serif" font-size="14.00" fill="#000000">mse = 327.997</text>
<text text-anchor="middle" x="1476" y="-119.3" font-family="Helvetica,sans-Serif" font-size="14.00" fill="#000000">samples = 6.4%</text>
<text text-anchor="middle" x="1476" y="-104.3" font-family="Helvetica,sans-Serif" font-size="14.00" fill="#000000">value = 164.515</text>
</g>
<!-- 14&#45;&gt;17 -->
<g id="edge24" class="edge">
<title>14&#45;&gt;17</title>
<path fill="none" stroke="#000000" d="M1476,-192.9465C1476,-182.2621 1476,-170.4254 1476,-159.5742"/>
<polygon fill="#000000" stroke="#000000" points="1479.5001,-159.5421 1476,-149.5422 1472.5001,-159.5422 1479.5001,-159.5421"/>
</g>
<!-- 18 -->
<g id="node26" class="node">
<title>18</title>
<path fill="#e58139" fill-opacity="0.729412" stroke="#000000" d="M1663,-149.5C1663,-149.5 1567,-149.5 1567,-149.5 1561,-149.5 1555,-143.5 1555,-137.5 1555,-137.5 1555,-108.5 1555,-108.5 1555,-102.5 1561,-96.5 1567,-96.5 1567,-96.5 1663,-96.5 1663,-96.5 1669,-96.5 1675,-102.5 1675,-108.5 1675,-108.5 1675,-137.5 1675,-137.5 1675,-143.5 1669,-149.5 1663,-149.5"/>
<text text-anchor="middle" x="1615" y="-134.3" font-family="Helvetica,sans-Serif" font-size="14.00" fill="#000000">mse = 0.0</text>
<text text-anchor="middle" x="1615" y="-119.3" font-family="Helvetica,sans-Serif" font-size="14.00" fill="#000000">samples = 0.1%</text>
<text text-anchor="middle" x="1615" y="-104.3" font-family="Helvetica,sans-Serif" font-size="14.00" fill="#000000">value = 304.0</text>
</g>
<!-- 14&#45;&gt;18 -->
<g id="edge25" class="edge">
<title>14&#45;&gt;18</title>
<path fill="none" stroke="#000000" d="M1521.5138,-192.9465C1537.5606,-180.9403 1555.5519,-167.4791 1571.4339,-155.5962"/>
<polygon fill="#000000" stroke="#000000" points="1573.6152,-158.3354 1579.5254,-149.5422 1569.4217,-152.7306 1573.6152,-158.3354"/>
</g>
<!-- 7 -->
<g id="node28" class="node">
<title>7</title>
<path fill="#e58139" fill-opacity="0.623529" stroke="#000000" d="M1697,-253.5C1697,-253.5 1599,-253.5 1599,-253.5 1593,-253.5 1587,-247.5 1587,-241.5 1587,-241.5 1587,-212.5 1587,-212.5 1587,-206.5 1593,-200.5 1599,-200.5 1599,-200.5 1697,-200.5 1697,-200.5 1703,-200.5 1709,-206.5 1709,-212.5 1709,-212.5 1709,-241.5 1709,-241.5 1709,-247.5 1703,-253.5 1697,-253.5"/>
<text text-anchor="middle" x="1648" y="-238.3" font-family="Helvetica,sans-Serif" font-size="14.00" fill="#000000">mse = 1122.547</text>
<text text-anchor="middle" x="1648" y="-223.3" font-family="Helvetica,sans-Serif" font-size="14.00" fill="#000000">samples = 1.2%</text>
<text text-anchor="middle" x="1648" y="-208.3" font-family="Helvetica,sans-Serif" font-size="14.00" fill="#000000">value = 261.55</text>
</g>
<!-- 4&#45;&gt;7 -->
<g id="edge27" class="edge">
<title>4&#45;&gt;7</title>
<path fill="none" stroke="#000000" d="M1648,-296.9465C1648,-286.2621 1648,-274.4254 1648,-263.5742"/>
<polygon fill="#000000" stroke="#000000" points="1651.5001,-263.5421 1648,-253.5422 1644.5001,-263.5422 1651.5001,-263.5421"/>
</g>
<!-- 8 -->
<g id="node29" class="node">
<title>8</title>
<path fill="#e58139" fill-opacity="0.952941" stroke="#000000" d="M1887,-261C1887,-261 1739,-261 1739,-261 1733,-261 1727,-255 1727,-249 1727,-249 1727,-205 1727,-205 1727,-199 1733,-193 1739,-193 1739,-193 1887,-193 1887,-193 1893,-193 1899,-199 1899,-205 1899,-205 1899,-249 1899,-249 1899,-255 1893,-261 1887,-261"/>
<text text-anchor="middle" x="1813" y="-245.8" font-family="Helvetica,sans-Serif" font-size="14.00" fill="#000000">publicMethods &lt;= 243.0</text>
<text text-anchor="middle" x="1813" y="-230.8" font-family="Helvetica,sans-Serif" font-size="14.00" fill="#000000">mse = 921.413</text>
<text text-anchor="middle" x="1813" y="-215.8" font-family="Helvetica,sans-Serif" font-size="14.00" fill="#000000">samples = 2.0%</text>
<text text-anchor="middle" x="1813" y="-200.8" font-family="Helvetica,sans-Serif" font-size="14.00" fill="#000000">value = 396.344</text>
</g>
<!-- 4&#45;&gt;8 -->
<g id="edge28" class="edge">
<title>4&#45;&gt;8</title>
<path fill="none" stroke="#000000" d="M1702.0272,-296.9465C1717.4115,-287.2497 1734.3016,-276.6039 1750.1621,-266.6069"/>
<polygon fill="#000000" stroke="#000000" points="1752.258,-269.4232 1758.8514,-261.13 1748.5254,-263.5013 1752.258,-269.4232"/>
</g>
<!-- 25 -->
<g id="node30" class="node">
<title>25</title>
<path fill="#e58139" fill-opacity="0.854902" stroke="#000000" d="M1831,-149.5C1831,-149.5 1735,-149.5 1735,-149.5 1729,-149.5 1723,-143.5 1723,-137.5 1723,-137.5 1723,-108.5 1723,-108.5 1723,-102.5 1729,-96.5 1735,-96.5 1735,-96.5 1831,-96.5 1831,-96.5 1837,-96.5 1843,-102.5 1843,-108.5 1843,-108.5 1843,-137.5 1843,-137.5 1843,-143.5 1837,-149.5 1831,-149.5"/>
<text text-anchor="middle" x="1783" y="-134.3" font-family="Helvetica,sans-Serif" font-size="14.00" fill="#000000">mse = 341.29</text>
<text text-anchor="middle" x="1783" y="-119.3" font-family="Helvetica,sans-Serif" font-size="14.00" fill="#000000">samples = 0.6%</text>
<text text-anchor="middle" x="1783" y="-104.3" font-family="Helvetica,sans-Serif" font-size="14.00" fill="#000000">value = 355.9</text>
</g>
<!-- 8&#45;&gt;25 -->
<g id="edge29" class="edge">
<title>8&#45;&gt;25</title>
<path fill="none" stroke="#000000" d="M1803.1769,-192.9465C1800.063,-182.1519 1796.61,-170.1813 1793.4535,-159.2389"/>
<polygon fill="#000000" stroke="#000000" points="1796.791,-158.1803 1790.6564,-149.5422 1790.0652,-160.1205 1796.791,-158.1803"/>
</g>
<!-- 26 -->
<g id="node31" class="node">
<title>26</title>
<path fill="#e58139" stroke="#000000" d="M1970.5,-149.5C1970.5,-149.5 1873.5,-149.5 1873.5,-149.5 1867.5,-149.5 1861.5,-143.5 1861.5,-137.5 1861.5,-137.5 1861.5,-108.5 1861.5,-108.5 1861.5,-102.5 1867.5,-96.5 1873.5,-96.5 1873.5,-96.5 1970.5,-96.5 1970.5,-96.5 1976.5,-96.5 1982.5,-102.5 1982.5,-108.5 1982.5,-108.5 1982.5,-137.5 1982.5,-137.5 1982.5,-143.5 1976.5,-149.5 1970.5,-149.5"/>
<text text-anchor="middle" x="1922" y="-134.3" font-family="Helvetica,sans-Serif" font-size="14.00" fill="#000000">mse = 103.653</text>
<text text-anchor="middle" x="1922" y="-119.3" font-family="Helvetica,sans-Serif" font-size="14.00" fill="#000000">samples = 1.4%</text>
<text text-anchor="middle" x="1922" y="-104.3" font-family="Helvetica,sans-Serif" font-size="14.00" fill="#000000">value = 414.727</text>
</g>
<!-- 8&#45;&gt;26 -->
<g id="edge30" class="edge">
<title>8&#45;&gt;26</title>
<path fill="none" stroke="#000000" d="M1848.6907,-192.9465C1860.9278,-181.2707 1874.607,-168.219 1886.8046,-156.5809"/>
<polygon fill="#000000" stroke="#000000" points="1889.3628,-158.9777 1894.1818,-149.5422 1884.5306,-153.9131 1889.3628,-158.9777"/>
</g>
</g>
</svg>
