<?xml version="1.0" encoding="UTF-8" standalone="no"?>
<!DOCTYPE svg PUBLIC "-//W3C//DTD SVG 1.1//EN"
 "http://www.w3.org/Graphics/SVG/1.1/DTD/svg11.dtd">
<!-- Generated by graphviz version 2.40.1 (20161225.0304)
 -->
<!-- Title: Tree Pages: 1 -->
<svg width="692pt" height="269pt"
 viewBox="0.00 0.00 692.00 269.00" xmlns="http://www.w3.org/2000/svg" xmlns:xlink="http://www.w3.org/1999/xlink">
<g id="graph0" class="graph" transform="scale(1 1) rotate(0) translate(4 265)">
<title>Tree</title>
<polygon fill="#ffffff" stroke="transparent" points="-4,4 -4,-265 688,-265 688,4 -4,4"/>
<!-- 0 -->
<g id="node1" class="node">
<title>0</title>
<path fill="#e58139" fill-opacity="0.749020" stroke="#000000" d="M407,-261C407,-261 275,-261 275,-261 269,-261 263,-255 263,-249 263,-249 263,-205 263,-205 263,-199 269,-193 275,-193 275,-193 407,-193 407,-193 413,-193 419,-199 419,-205 419,-205 419,-249 419,-249 419,-255 413,-261 407,-261"/>
<text text-anchor="middle" x="341" y="-245.8" font-family="Helvetica,sans-Serif" font-size="14.00" fill="#000000">fractal&#45;value &lt;= 0.1</text>
<text text-anchor="middle" x="341" y="-230.8" font-family="Helvetica,sans-Serif" font-size="14.00" fill="#000000">entropy = 0.725</text>
<text text-anchor="middle" x="341" y="-215.8" font-family="Helvetica,sans-Serif" font-size="14.00" fill="#000000">samples = 100.0%</text>
<text text-anchor="middle" x="341" y="-200.8" font-family="Helvetica,sans-Serif" font-size="14.00" fill="#000000">value = [0.799, 0.201]</text>
</g>
<!-- 1 -->
<g id="node2" class="node">
<title>1</title>
<path fill="#e58139" fill-opacity="0.898039" stroke="#000000" d="M323,-157C323,-157 173,-157 173,-157 167,-157 161,-151 161,-145 161,-145 161,-101 161,-101 161,-95 167,-89 173,-89 173,-89 323,-89 323,-89 329,-89 335,-95 335,-101 335,-101 335,-145 335,-145 335,-151 329,-157 323,-157"/>
<text text-anchor="middle" x="248" y="-141.8" font-family="Helvetica,sans-Serif" font-size="14.00" fill="#000000">assignmentsQty &lt;= 15.5</text>
<text text-anchor="middle" x="248" y="-126.8" font-family="Helvetica,sans-Serif" font-size="14.00" fill="#000000">entropy = 0.448</text>
<text text-anchor="middle" x="248" y="-111.8" font-family="Helvetica,sans-Serif" font-size="14.00" fill="#000000">samples = 70.2%</text>
<text text-anchor="middle" x="248" y="-96.8" font-family="Helvetica,sans-Serif" font-size="14.00" fill="#000000">value = [0.906, 0.094]</text>
</g>
<!-- 0&#45;&gt;1 -->
<g id="edge1" class="edge">
<title>0&#45;&gt;1</title>
<path fill="none" stroke="#000000" d="M310.5483,-192.9465C302.5194,-183.968 293.763,-174.1758 285.4133,-164.8385"/>
<polygon fill="#000000" stroke="#000000" points="287.795,-162.2512 278.5201,-157.13 282.577,-166.9174 287.795,-162.2512"/>
<text text-anchor="middle" x="277.1263" y="-178.3911" font-family="Helvetica,sans-Serif" font-size="14.00" fill="#000000">True</text>
</g>
<!-- 2 -->
<g id="node5" class="node">
<title>2</title>
<path fill="#e58139" fill-opacity="0.164706" stroke="#000000" d="M505,-157C505,-157 365,-157 365,-157 359,-157 353,-151 353,-145 353,-145 353,-101 353,-101 353,-95 359,-89 365,-89 365,-89 505,-89 505,-89 511,-89 517,-95 517,-101 517,-101 517,-145 517,-145 517,-151 511,-157 505,-157"/>
<text text-anchor="middle" x="435" y="-141.8" font-family="Helvetica,sans-Serif" font-size="14.00" fill="#000000">publicMethods &lt;= 49.5</text>
<text text-anchor="middle" x="435" y="-126.8" font-family="Helvetica,sans-Serif" font-size="14.00" fill="#000000">entropy = 0.994</text>
<text text-anchor="middle" x="435" y="-111.8" font-family="Helvetica,sans-Serif" font-size="14.00" fill="#000000">samples = 29.8%</text>
<text text-anchor="middle" x="435" y="-96.8" font-family="Helvetica,sans-Serif" font-size="14.00" fill="#000000">value = [0.545, 0.455]</text>
</g>
<!-- 0&#45;&gt;2 -->
<g id="edge4" class="edge">
<title>0&#45;&gt;2</title>
<path fill="none" stroke="#000000" d="M371.7791,-192.9465C379.9755,-183.8782 388.922,-173.9799 397.4375,-164.5585"/>
<polygon fill="#000000" stroke="#000000" points="400.0429,-166.8957 404.1517,-157.13 394.8497,-162.2019 400.0429,-166.8957"/>
<text text-anchor="middle" x="405.4128" y="-178.3982" font-family="Helvetica,sans-Serif" font-size="14.00" fill="#000000">False</text>
</g>
<!-- 3 -->
<g id="node3" class="node">
<title>3</title>
<path fill="#e58139" fill-opacity="0.984314" stroke="#000000" d="M144,-53C144,-53 12,-53 12,-53 6,-53 0,-47 0,-41 0,-41 0,-12 0,-12 0,-6 6,0 12,0 12,0 144,0 144,0 150,0 156,-6 156,-12 156,-12 156,-41 156,-41 156,-47 150,-53 144,-53"/>
<text text-anchor="middle" x="78" y="-37.8" font-family="Helvetica,sans-Serif" font-size="14.00" fill="#000000">entropy = 0.124</text>
<text text-anchor="middle" x="78" y="-22.8" font-family="Helvetica,sans-Serif" font-size="14.00" fill="#000000">samples = 29.5%</text>
<text text-anchor="middle" x="78" y="-7.8" font-family="Helvetica,sans-Serif" font-size="14.00" fill="#000000">value = [0.983, 0.017]</text>
</g>
<!-- 1&#45;&gt;3 -->
<g id="edge2" class="edge">
<title>1&#45;&gt;3</title>
<path fill="none" stroke="#000000" d="M188.0644,-88.9777C170.3997,-78.9504 151.1489,-68.0228 133.7579,-58.1508"/>
<polygon fill="#000000" stroke="#000000" points="135.2757,-54.9879 124.8513,-53.095 131.8201,-61.0755 135.2757,-54.9879"/>
</g>
<!-- 4 -->
<g id="node4" class="node">
<title>4</title>
<path fill="#e58139" fill-opacity="0.823529" stroke="#000000" d="M318,-53C318,-53 186,-53 186,-53 180,-53 174,-47 174,-41 174,-41 174,-12 174,-12 174,-6 180,0 186,0 186,0 318,0 318,0 324,0 330,-6 330,-12 330,-12 330,-41 330,-41 330,-47 324,-53 318,-53"/>
<text text-anchor="middle" x="252" y="-37.8" font-family="Helvetica,sans-Serif" font-size="14.00" fill="#000000">entropy = 0.607</text>
<text text-anchor="middle" x="252" y="-22.8" font-family="Helvetica,sans-Serif" font-size="14.00" fill="#000000">samples = 40.8%</text>
<text text-anchor="middle" x="252" y="-7.8" font-family="Helvetica,sans-Serif" font-size="14.00" fill="#000000">value = [0.851, 0.149]</text>
</g>
<!-- 1&#45;&gt;4 -->
<g id="edge3" class="edge">
<title>1&#45;&gt;4</title>
<path fill="none" stroke="#000000" d="M249.4103,-88.9777C249.7519,-80.7364 250.1187,-71.887 250.4657,-63.5153"/>
<polygon fill="#000000" stroke="#000000" points="253.974,-63.3849 250.8913,-53.2485 246.98,-63.0949 253.974,-63.3849"/>
</g>
<!-- 5 -->
<g id="node6" class="node">
<title>5</title>
<path fill="#e58139" fill-opacity="0.427451" stroke="#000000" d="M498,-53C498,-53 366,-53 366,-53 360,-53 354,-47 354,-41 354,-41 354,-12 354,-12 354,-6 360,0 366,0 366,0 498,0 498,0 504,0 510,-6 510,-12 510,-12 510,-41 510,-41 510,-47 504,-53 498,-53"/>
<text text-anchor="middle" x="432" y="-37.8" font-family="Helvetica,sans-Serif" font-size="14.00" fill="#000000">entropy = 0.946</text>
<text text-anchor="middle" x="432" y="-22.8" font-family="Helvetica,sans-Serif" font-size="14.00" fill="#000000">samples = 22.1%</text>
<text text-anchor="middle" x="432" y="-7.8" font-family="Helvetica,sans-Serif" font-size="14.00" fill="#000000">value = [0.635, 0.365]</text>
</g>
<!-- 2&#45;&gt;5 -->
<g id="edge5" class="edge">
<title>2&#45;&gt;5</title>
<path fill="none" stroke="#000000" d="M433.9423,-88.9777C433.6861,-80.7364 433.411,-71.887 433.1507,-63.5153"/>
<polygon fill="#000000" stroke="#000000" points="436.6407,-63.1349 432.8316,-53.2485 429.6441,-63.3524 436.6407,-63.1349"/>
</g>
<!-- 6 -->
<g id="node7" class="node">
<title>6</title>
<path fill="#399de5" fill-opacity="0.607843" stroke="#000000" d="M672,-53C672,-53 540,-53 540,-53 534,-53 528,-47 528,-41 528,-41 528,-12 528,-12 528,-6 534,0 540,0 540,0 672,0 672,0 678,0 684,-6 684,-12 684,-12 684,-41 684,-41 684,-47 678,-53 672,-53"/>
<text text-anchor="middle" x="606" y="-37.8" font-family="Helvetica,sans-Serif" font-size="14.00" fill="#000000">entropy = 0.859</text>
<text text-anchor="middle" x="606" y="-22.8" font-family="Helvetica,sans-Serif" font-size="14.00" fill="#000000">samples = 7.7%</text>
<text text-anchor="middle" x="606" y="-7.8" font-family="Helvetica,sans-Serif" font-size="14.00" fill="#000000">value = [0.283, 0.717]</text>
</g>
<!-- 2&#45;&gt;6 -->
<g id="edge6" class="edge">
<title>2&#45;&gt;6</title>
<path fill="none" stroke="#000000" d="M495.2882,-88.9777C513.0568,-78.9504 532.4208,-68.0228 549.9141,-58.1508"/>
<polygon fill="#000000" stroke="#000000" points="551.8843,-61.0579 558.8731,-53.095 548.4439,-54.9616 551.8843,-61.0579"/>
</g>
</g>
</svg>
